<svg width="40" height="41" viewBox="0 0 40 41" fill="none" xmlns="http://www.w3.org/2000/svg">
<path fill-rule="evenodd" clip-rule="evenodd" d="M39.9026 18.5014C39.8913 18.3713 39.8278 18.2526 39.7254 18.1697C39.6246 18.0868 39.4929 18.0494 39.3628 18.0624H39.2555C37.8539 18.064 36.5043 17.5388 35.4701 16.5925C35.3303 16.4624 35.1254 16.4266 34.9498 16.5031C34.1157 16.8592 33.2165 17.0413 32.3091 17.038C30.5222 17.0364 28.8067 16.3259 27.5417 15.0608C26.2767 13.7974 25.5645 12.082 25.5613 10.2951C25.5613 10.1357 25.5678 9.96987 25.5775 9.80726L25.5792 9.80563C25.5922 9.61539 25.493 9.43491 25.3255 9.34384C24.4328 8.85927 23.8767 7.92598 23.8767 6.91131C23.8751 6.31781 24.067 5.73896 24.4214 5.26418C24.506 5.15036 24.5385 5.00402 24.5076 4.86581C24.2702 3.80239 24.4019 2.69182 24.8783 1.71299C24.9434 1.57965 24.9434 1.42518 24.88 1.29186C24.8182 1.1569 24.6962 1.05934 24.5531 1.0252C19.1289 -0.243101 13.4232 0.808937 8.80693 3.92601C4.19063 7.04309 1.08493 11.944 0.234514 17.4477C-0.615901 22.9536 0.868642 28.5631 4.32878 32.9275C7.79055 37.2916 12.9141 40.0135 18.467 40.4414C24.0215 40.8674 29.5012 38.9601 33.5871 35.1766C37.6749 31.3912 39.9983 26.0743 40 20.5051C40 19.8547 39.9675 19.1816 39.9024 18.5019L39.9026 18.5014ZM20.0005 6.5598C20.0005 7.82421 18.9755 8.84921 17.7111 8.84921C16.4467 8.84921 15.4217 7.82421 15.4217 6.5598C15.4217 5.29539 16.4467 4.27038 17.7111 4.27038C18.9755 4.27038 20.0005 5.29539 20.0005 6.5598ZM21.0411 22.5857C22.3055 22.5857 23.3306 21.5607 23.3306 20.2963C23.3306 19.0319 22.3055 18.0069 21.0411 18.0069C19.7767 18.0069 18.7517 19.0319 18.7517 20.2963C18.7517 21.5607 19.7767 22.5857 21.0411 22.5857ZM12.0714 15.2771C12.0714 16.7714 10.8601 17.9828 9.36576 17.9828C7.87145 17.9828 6.66008 16.7714 6.66008 15.2771C6.66008 13.7828 7.87145 12.5714 9.36576 12.5714C10.8601 12.5714 12.0714 13.7828 12.0714 15.2771ZM12.716 31.3272C14.4402 31.3272 15.8379 29.9294 15.8379 28.2052C15.8379 26.481 14.4402 25.0833 12.716 25.0833C10.9918 25.0833 9.59406 26.481 9.59406 28.2052C9.59406 29.9294 10.9918 31.3272 12.716 31.3272ZM25.8281 31.9515C25.8281 33.2159 24.8031 34.241 23.5387 34.241C22.2743 34.241 21.2493 33.2159 21.2493 31.9515C21.2493 30.6871 22.2743 29.6621 23.5387 29.6621C24.8031 29.6621 25.8281 30.6871 25.8281 31.9515ZM32.2801 26.7483C33.5445 26.7483 34.5695 25.7233 34.5695 24.4589C34.5695 23.1945 33.5445 22.1695 32.2801 22.1695C31.0156 22.1695 29.9906 23.1945 29.9906 24.4589C29.9906 25.7233 31.0156 26.7483 32.2801 26.7483Z" fill="white"/>
</svg>
