<svg width="22" height="23" viewBox="0 0 22 23" fill="none" xmlns="http://www.w3.org/2000/svg">
<g clip-path="url(#clip0)">
<path d="M2.93856 8.58706C1.07866 11.8146 2.26103 16.7125 4.31778 19.6823C5.34442 21.167 6.38383 22.4998 7.80748 22.4998C7.83431 22.4998 7.86122 22.4993 7.88877 22.4982C8.55765 22.4715 9.041 22.2656 9.50834 22.0666C10.033 21.843 10.5757 21.6118 11.4268 21.6118C12.2366 21.6118 12.7533 21.8355 13.253 22.0517C13.7455 22.2648 14.2528 22.4852 15.0024 22.4711C16.606 22.4413 17.5906 21.0031 18.4593 19.7344C19.3658 18.4097 19.8205 17.1236 19.9739 16.6321L19.9801 16.6125C20.0093 16.5252 19.9681 16.4298 19.8843 16.3914C19.882 16.3903 19.8735 16.3867 19.8711 16.3857C19.5887 16.2702 17.1116 15.1713 17.0856 12.1762C17.0614 9.74274 18.9439 8.45412 19.3214 8.22056L19.339 8.20959C19.3799 8.18327 19.4084 8.1415 19.4181 8.09375C19.4277 8.04607 19.4176 7.99645 19.3902 7.95634C18.0909 6.05482 16.0993 5.76824 15.2975 5.73376C15.1812 5.72215 15.0611 5.71631 14.9405 5.71631C13.9987 5.71631 13.0966 6.07199 12.3718 6.35777C11.8715 6.55505 11.4394 6.72542 11.1413 6.72542C10.8064 6.72542 10.3718 6.55296 9.86856 6.3533C9.19557 6.0862 8.43279 5.78353 7.62528 5.78353C7.60602 5.78353 7.58705 5.78375 7.56837 5.78411C5.69079 5.81174 3.91666 6.88592 2.93856 8.58706Z" fill="white"/>
<path d="M15.2991 0.500139C14.1621 0.546447 12.7982 1.24634 11.9829 2.20121C11.2901 3.00381 10.6133 4.34199 10.7916 5.69084C10.8028 5.77523 10.8715 5.84037 10.9564 5.84693C11.0331 5.85292 11.1114 5.85595 11.1895 5.85602C12.3012 5.85602 13.5006 5.24096 14.3196 4.2506C15.1817 3.20484 15.6175 1.86277 15.4857 0.66063C15.4753 0.566427 15.3924 0.49646 15.2991 0.500139Z" fill="white"/>
</g>
<defs>
<clipPath id="clip0">
<rect width="22" height="22" fill="white" transform="translate(0 0.5)"/>
</clipPath>
</defs>
</svg>
