<svg xmlns="http://www.w3.org/2000/svg" xmlns:xlink="http://www.w3.org/1999/xlink" fill="none" version="1.1" width="240" height="449" viewBox="0 0 240 449"><defs><linearGradient x1="-1.1220351758822744e-8" y1="2.0309613990576736e-9" x2="-1.1220351758822744e-8" y2="0.9999991655349731" id="master_svg0_60_18495"><stop offset="0%" stop-color="#FCC538" stop-opacity="1"/><stop offset="100%" stop-color="#F7931A" stop-opacity="1"/></linearGradient></defs><g style="mix-blend-mode:passthrough"><g><g style="mix-blend-mode:passthrough"><g><path d="M51.551,400.6286C49.5475,408.6642,41.4077,413.5547,33.3701,411.551C25.33579,409.5475,20.44482,401.4081,22.449277,393.3729C24.45198,385.33627,32.5918,380.44549,40.626999999999995,382.448852C48.6639,384.45221,53.5547,392.5925,51.551,400.6287L51.551,400.6286Z" fill="url(#master_svg0_60_18495)" fill-opacity="1"/><path d="M43.614979825592044,394.8629153097534C43.91357982559204,392.8667453097534,42.39357982559204,391.7937253097534,40.31527982559204,391.0779253097534L40.98947982559204,388.3739253097534L39.34327982559204,387.96377530975343L38.686969825592044,390.5965753097534C38.25418982559204,390.4886453097534,37.80976982559204,390.38697530975344,37.36804982559204,390.2861453097534L38.02916982559204,387.6359753097534L36.38398982559204,387.2258253097534L35.70938982559204,389.92894530975343C35.35126982559204,389.84739530975344,34.99950982559204,389.7668253097534,34.65824982559204,389.6819253097534L34.66014982559204,389.67342530975344L32.390049825592044,389.1065953097534L31.952119825592042,390.8646253097534Q33.17345982559204,391.1445753097534,33.14772982559204,391.1617953097534C33.81432982559204,391.32814530975344,33.93488982559204,391.7693753097534,33.91485982559204,392.11912530975343L33.14684982559204,395.1995953097534C33.19272982559204,395.2112453097534,33.252289825592044,395.22811530975343,33.31799982559204,395.2545153097534L33.27023982559204,395.2425953097534C33.22955982559204,395.23241530975343,33.187329825592045,395.2218453097534,33.14397982559204,395.2114653097534L32.06745982559204,399.5268253097534C31.985999825592042,399.7293253097534,31.77922982559204,400.0332253097534,31.313149825592042,399.9178253097534Q31.329649825592043,399.9417253097534,30.11669482559204,399.6192253097534L29.29937982559204,401.5033253097534L31.44163982559204,402.03732530975344C31.676219825592042,402.09622530975344,31.908019825592042,402.1566253097534,32.13746982559204,402.2164253097534L32.13793982559204,402.2165253097534C32.29815982559204,402.25832530975345,32.45722982559204,402.2997253097534,32.61529982559204,402.34012530975343L31.934099825592043,405.0751253097534L33.57837982559204,405.4853253097534L34.25297982559204,402.7793253097534C34.70217982559204,402.90122530975344,35.13809982559204,403.0137253097534,35.56486982559204,403.1197253097534L34.89251982559204,405.81292530975344L36.538779825592044,406.2231253097534L37.21992982559204,403.4932253097534C40.02697982559204,404.02442530975344,42.137679825592045,403.81022530975343,43.02617982559204,401.27152530975343C43.74207982559204,399.22752530975345,42.99047982559204,398.04862530975345,41.51367982559204,397.2798253097534C42.58937982559204,397.03174530975343,43.39957982559204,396.32436530975343,43.61557982559204,394.8631453097534L43.61507982559204,394.8627653097534L43.614979825592044,394.8629153097534ZM39.85377982559204,400.1364253097534C39.38707982559204,402.01172530975344,36.45138982559204,401.23642530975343,35.10824982559204,400.8817253097534C34.98740982559204,400.84982530975344,34.87946982559204,400.82132530975343,34.787389825592044,400.79842530975344L35.691359825592045,397.1750153097534C35.803599825592045,397.2030453097534,35.94073982559204,397.2338253097534,36.09609982559204,397.2686253097534C37.48547982559204,397.5804253097534,40.33197982559204,398.2192253097534,39.853879825592045,400.1364253097534L39.85377982559204,400.1364253097534ZM36.37480982559204,395.58699530975343C37.49462982559204,395.8858153097534,39.93747982559204,396.5376953097534,40.36287982559204,394.8332953097534L40.36307982559204,394.8332953097534C40.79747982559204,393.0901153097534,38.42345982559204,392.5645753097534,37.26395982559204,392.3078953097534C37.13351982559204,392.2790253097534,37.01845982559204,392.2535453097534,36.924499825592044,392.2301253097534L36.10490982559204,395.5163153097534C36.18228982559204,395.53561530975344,36.27309982559204,395.5598453097534,36.37480982559204,395.58699530975343Z" fill-rule="evenodd" fill="#FFFFFF" fill-opacity="1"/></g></g><g style="mix-blend-mode:passthrough"><path d="M67.16016,396.473L64.96387,396.473L64.96387,394.3063L62.96224,394.3063L62.96224,396.473L60.753255,396.473L60.753255,398.3731L62.96224,398.3731L62.96224,400.5186L64.96387,400.5186L64.96387,398.3731L67.16016,398.3731L67.16016,396.473ZM72.3102,402.4313C74.625,402.4313,76.3177,400.7048,76.3177,397.5563C76.3177,394.4121,74.625,392.68133,72.3102,392.68133C69.98275,392.68133,68.29427,394.4121,68.29427,397.5563C68.29427,400.7048,69.98275,402.4313,72.3102,402.4313ZM72.3102,400.3281C71.4808,400.3281,70.87989999999999,399.5749,70.87989999999999,397.5563C70.87989999999999,395.542,71.4808,394.7888,72.3102,394.7888C73.1312,394.7888,73.7279,395.542,73.7279,397.5563C73.7279,399.5749,73.1312,400.3281,72.3102,400.3281ZM78.624,402.4313C79.4661,402.4313,80.1051,401.822,80.1051,400.9629C80.1051,400.0785,79.4661,399.5072,78.624,399.5072C77.7904,399.5072,77.1387,400.0785,77.1387,400.9629C77.1387,401.822,77.7904,402.4313,78.624,402.4313ZM85.0394,402.4313C87.35419999999999,402.4313,89.0469,400.7048,89.0469,397.5563C89.0469,394.4121,87.35419999999999,392.68133,85.0394,392.68133C82.7119,392.68133,81.0234,394.4121,81.0234,397.5563C81.0234,400.7048,82.7119,402.4313,85.0394,402.4313ZM85.0394,400.3281C84.21000000000001,400.3281,83.6091,399.5749,83.6091,397.5563C83.6091,395.542,84.21000000000001,394.7888,85.0394,394.7888C85.8604,394.7888,86.457,395.542,86.457,397.5563C86.457,399.5749,85.8604,400.3281,85.0394,400.3281ZM93.9769,402.4313C96.29169999999999,402.4313,97.9844,400.7048,97.9844,397.5563C97.9844,394.4121,96.29169999999999,392.68133,93.9769,392.68133C91.6494,392.68133,89.9609,394.4121,89.9609,397.5563C89.9609,400.7048,91.6494,402.4313,93.9769,402.4313ZM93.9769,400.3281C93.14750000000001,400.3281,92.5466,399.5749,92.5466,397.5563C92.5466,395.542,93.14750000000001,394.7888,93.9769,394.7888C94.7979,394.7888,95.3945,395.542,95.3945,397.5563C95.3945,399.5749,94.7979,400.3281,93.9769,400.3281ZM102.9144,402.4313C105.22919999999999,402.4313,106.9219,400.7048,106.9219,397.5563C106.9219,394.4121,105.22919999999999,392.68133,102.9144,392.68133C100.5869,392.68133,98.89840000000001,394.4121,98.89840000000001,397.5563C98.89840000000001,400.7048,100.5869,402.4313,102.9144,402.4313ZM102.9144,400.3281C102.08500000000001,400.3281,101.4841,399.5749,101.4841,397.5563C101.4841,395.542,102.08500000000001,394.7888,102.9144,394.7888C103.7354,394.7888,104.332,395.542,104.332,397.5563C104.332,399.5749,103.7354,400.3281,102.9144,400.3281ZM111.36099999999999,400.1208L113.0749,398.4746C114.374,397.2347,114.6237,396.3968,114.6237,395.4785C114.6237,393.7604,113.1807,392.68133,111.08590000000001,392.68133C109.29169999999999,392.68133,108.0052,393.4388,107.3154,394.5814L109.2282,395.6817C109.5921,395.0723,110.1888,394.7634,110.8532,394.7634C111.6318,394.7634,112.0212,395.1273,112.0212,395.7367C112.0212,396.126,111.9196,396.5576,111.1917,397.2601L107.7852,400.5524L107.7852,402.1605L114.8691,402.1605L114.8691,400.1208L111.36099999999999,400.1208ZM126.9424,397.332C127.7253,396.9258,128.1654,396.2233,128.1654,395.3389C128.1654,393.9297,126.9974,392.95217,124.6022,392.95217L119.95150000000001,392.95217L119.95150000000001,402.1605L124.8646,402.1605C127.3063,402.1605,128.6097,401.238,128.6097,399.6384C128.6097,398.4789,127.9707,397.696,126.9424,397.332ZM124.2679,394.8141C125.1227,394.8141,125.5671,395.1146,125.5671,395.6944C125.5671,396.28679999999997,125.1227,396.5915,124.2679,396.5915L122.499,396.5915L122.499,394.8141L124.2679,394.8141ZM124.6572,400.3028L122.499,400.3028L122.499,398.3688L124.6572,398.3688C125.5417,398.3688,126.0072,398.682,126.0072,399.3379C126.0072,399.9896,125.5417,400.3028,124.6572,400.3028ZM131.9063,402.1605L134.48340000000002,402.1605L134.48340000000002,394.9961L137.2637,394.9961L137.2637,392.95217L129.11329999999998,392.95217L129.11329999999998,394.9961L131.9063,394.9961L131.9063,402.1605ZM142.6338,402.4313C144.3096,402.4313,145.6637,401.822,146.5482,400.7175L144.9063,399.1771C144.33499999999998,399.905,143.6325,400.3028,142.765,400.3028C141.26690000000002,400.3028,140.2259,399.2025,140.2259,397.5563C140.2259,395.9102,141.26690000000002,394.8141,142.765,394.8141C143.6325,394.8141,144.33499999999998,395.2119,144.9063,395.9398L146.5482,394.5772C145.6637,393.2949,144.3096,392.68133,142.6338,392.68133C139.7477,392.68133,137.6276,394.6449,137.6276,397.5563C137.6276,400.472,139.7477,402.4313,142.6338,402.4313Z" fill="#3D3D3D" fill-opacity="1"/></g><g style="mix-blend-mode:passthrough"><g><path d="M155.551,161.6286C153.5475,169.6642,145.4077,174.5547,137.3701,172.551C129.33579,170.5475,124.44481999999999,162.4081,126.449277,154.3729C128.45198,146.33627,136.5918,141.44549,144.627,143.448852C152.6639,145.45221,157.5547,153.5925,155.551,161.6287L155.551,161.6286Z" fill="#50AF95" fill-opacity="1"/><path d="M142.8999744781494,159.70053350738525C142.7938744781494,159.70848350738527,142.24577447814943,159.74118350738524,141.0233044781494,159.74118350738524C140.0509444781494,159.74118350738524,139.3605744781494,159.71203350738526,139.1183744781494,159.70053350738525C135.36065447814943,159.53526350738525,132.55584747814942,158.88118350738526,132.55584747814942,158.09808350738524C132.55584747814942,157.31498350738525,135.36065447814943,156.66181350738526,139.1183744781494,156.49388350738525L139.1183744781494,159.04913350738525C139.36412447814942,159.06681350738526,140.06775447814942,159.10836350738526,141.0401044781494,159.10836350738526C142.20697447814942,159.10836350738526,142.7912744781494,159.05973350738526,142.89637447814943,159.05001350738524L142.89637447814943,156.49566350738525C146.64617447814942,156.66271350738526,149.4447744781494,157.31676350738525,149.4447744781494,158.09808350738524C149.4447744781494,158.87943350738524,146.64707447814942,159.53348350738526,142.89637447814943,159.69966350738525L142.8999744781494,159.70053350738525ZM142.8999744781494,156.23138350738526L142.8999744781494,153.94481350738525L148.1329744781494,153.94481350738525L148.1329744781494,150.45799350738525L133.8853144781494,150.45799350738525L133.8853144781494,153.94481350738525L139.1174944781494,153.94481350738525L139.1174944781494,156.23048350738526C134.86475447814942,156.42583350738525,131.6665744781494,157.26813350738524,131.6665744781494,158.27751350738527C131.6665744781494,159.28688350738526,134.86475447814942,160.12833350738526,139.1174944781494,160.32453350738524L139.1174944781494,167.65179350738526L142.8990744781494,167.65179350738526L142.8990744781494,160.32188350738525C147.14207447814942,160.12656350738524,150.3349744781494,159.28511350738526,150.3349744781494,158.27663350738524C150.3349744781494,157.26813350738524,147.1447744781494,156.42671350738524,142.8990744781494,156.23048350738526L142.8999744781494,156.23138350738526Z" fill-rule="evenodd" fill="#FFFFFF" fill-opacity="1"/></g></g><g style="mix-blend-mode:passthrough"><path d="M167.16016,155.473L164.96387,155.473L164.96387,153.3063L162.96224,153.3063L162.96224,155.473L160.753255,155.473L160.753255,157.3731L162.96224,157.3731L162.96224,159.5186L164.96387,159.5186L164.96387,157.3731L167.16016,157.3731L167.16016,155.473ZM167.93034,151.95217L167.93034,153.9453L169.61882,153.9453L169.61882,161.1605L172.196,161.1605L172.196,151.95217L167.93034,151.95217ZM174.8324,161.4313C175.6745,161.4313,176.3135,160.822,176.3135,159.9629C176.3135,159.0785,175.6745,158.5072,174.8324,158.5072C173.99869999999999,158.5072,173.347,159.0785,173.347,159.9629C173.347,160.822,173.99869999999999,161.4313,174.8324,161.4313ZM177.0879,151.95217L177.0879,155.4222L179.2842,155.4222L179.2842,153.9961L181.6794,153.9961L178.6113,161.1605L181.417,161.1605L184.6289,153.5645L184.6289,151.95217L177.0879,151.95217ZM193.8161,161.4313C196.5075,161.4313,198.0944,159.9121,198.0944,157.1361L198.0944,151.95217L195.5596,151.95217L195.5596,157.0557C195.5596,158.6595,194.90789999999998,159.3028,193.8415,159.3028C192.7624,159.3028,192.1107,158.6595,192.1107,157.0557L192.1107,151.95217L189.5378,151.95217L189.5378,157.1361C189.5378,159.9121,191.1247,161.4313,193.8161,161.4313ZM203.1048,161.4313C205.8089,161.4313,207.1377,160.0814,207.1377,158.4649C207.1377,155.0075,201.9749,156.1289,201.9749,154.6139C201.9749,154.0977,202.36430000000001,153.6872,203.4434,153.6872C204.2389,153.6872,205.0938,153.9496,205.9655,154.4785L206.7611,152.4769C205.8639,151.9564,204.6409,151.68133,203.4561,151.68133C200.752,151.68133,199.4274,153.0101,199.4274,154.7578C199.4274,158.266,204.6029,157.1953,204.6029,158.668C204.6029,159.125,204.1839,159.4297,203.1175,159.4297C202.06799999999998,159.4297,200.9212,159.0573,200.1172,158.5072L199.2708,160.4326C200.1299,161.0293,201.611,161.4313,203.1048,161.4313ZM208.3057,161.1605L212.6051,161.1605C215.6224,161.1605,217.6917,159.4085,217.6917,156.5563C217.6917,153.7084,215.6224,151.95217,212.6051,151.95217L208.3057,151.95217L208.3057,161.1605ZM210.8786,159.1081L210.8786,154.0088L212.5036,154.0088C214.0524,154.0088,215.0892,154.9525,215.0892,156.5563C215.0892,158.1644,214.0524,159.1081,212.5036,159.1081L210.8786,159.1081ZM221.0729,161.1605L223.6501,161.1605L223.6501,153.9961L226.4303,153.9961L226.4303,151.95217L218.28,151.95217L218.28,153.9961L221.0729,153.9961L221.0729,161.1605Z" fill="#3D3D3D" fill-opacity="1"/></g><g style="mix-blend-mode:passthrough"><g><path d="M29.551,125.6286C27.5475,133.6642,19.4077,138.5547,11.3701,136.551C3.33579,134.5475,-1.55518,126.4081,0.449277,118.3729C2.45198,110.33627,10.5918,105.44549,18.627,107.448852C26.6639,109.45221,31.5547,117.5925,29.551,125.6287L29.551,125.6286Z" fill="#F3BA2F" fill-opacity="1"/><path d="M15.00165170059204,116.51999570846557L11.117081700592042,120.40413570846557L11.117151700592041,120.40398570846557L8.85698170059204,118.14398570846558L15.00165170059204,111.99999570846558L21.14835170059204,118.14583570846557L18.88805170059204,120.40583570846557L15.00165170059204,116.51999570846557ZM7.260871700592041,119.73958570846557L5.000551700592041,121.99998570846557L7.2607217005920415,124.25959570846558L9.521051700592041,121.99951570846558L7.260871700592041,119.73958570846557ZM11.117081700592042,123.59609570846558L15.00165170059204,127.47999570846558L18.88805170059204,123.59419570846558L21.149451700592042,125.85299570846557L21.14835170059204,125.85419570846558L15.00165170059204,131.99999570846558L8.85698170059204,125.85599570846557L8.853781700592041,125.85279570846558L11.117081700592042,123.59609570846558ZM22.742551700592042,119.74086570846558L20.48225170059204,122.00089570846558L22.742551700592042,124.26089570846557L25.00275170059204,122.00079570846557L22.742551700592042,119.74086570846558Z" fill-rule="evenodd" fill="#FFFFFF" fill-opacity="1"/></g></g><g style="mix-blend-mode:passthrough"><path d="M45.16016,122.473L42.96387,122.473L42.96387,120.3063L40.96224,120.3063L40.96224,122.473L38.753255,122.473L38.753255,124.3731L40.96224,124.3731L40.96224,126.51859999999999L42.96387,126.51859999999999L42.96387,124.3731L45.16016,124.3731L45.16016,122.473ZM50.3102,128.4313C52.625,128.4313,54.3177,126.7048,54.3177,123.5563C54.3177,120.4121,52.625,118.68133,50.3102,118.68133C47.982749999999996,118.68133,46.29427,120.4121,46.29427,123.5563C46.29427,126.7048,47.982749999999996,128.4313,50.3102,128.4313ZM50.3102,126.3281C49.4808,126.3281,48.8799,125.5749,48.8799,123.5563C48.8799,121.542,49.4808,120.7888,50.3102,120.7888C51.1312,120.7888,51.7279,121.542,51.7279,123.5563C51.7279,125.5749,51.1312,126.3281,50.3102,126.3281ZM56.623999999999995,128.4313C57.4661,128.4313,58.1051,127.822,58.1051,126.9629C58.1051,126.07849999999999,57.4661,125.5072,56.623999999999995,125.5072C55.790400000000005,125.5072,55.1387,126.07849999999999,55.1387,126.9629C55.1387,127.822,55.790400000000005,128.4313,56.623999999999995,128.4313ZM58.6595,118.95217L58.6595,120.9453L60.348,120.9453L60.348,128.1605L62.9251,128.1605L62.9251,118.95217L58.6595,118.95217ZM75.4216,123.332C76.20439999999999,122.9258,76.6445,122.2233,76.6445,121.3389C76.6445,119.9297,75.47659999999999,118.95217,73.0814,118.95217L68.4307,118.95217L68.4307,128.1605L73.3438,128.1605C75.7855,128.1605,77.0889,127.238,77.0889,125.6384C77.0889,124.4789,76.4499,123.696,75.4216,123.332ZM72.7471,120.8141C73.6019,120.8141,74.0462,121.1146,74.0462,121.6944C74.0462,122.2868,73.6019,122.5915,72.7471,122.5915L70.9782,122.5915L70.9782,120.8141L72.7471,120.8141ZM73.13640000000001,126.3028L70.9782,126.3028L70.9782,124.3688L73.13640000000001,124.3688C74.02080000000001,124.3688,74.4863,124.682,74.4863,125.3379C74.4863,125.9896,74.02080000000001,126.3028,73.13640000000001,126.3028ZM84.58760000000001,118.95217L84.58760000000001,123.861L80.56739999999999,118.95217L78.45150000000001,118.95217L78.45150000000001,128.1605L80.9736,128.1605L80.9736,123.2559L84.9896,128.1605L87.1097,128.1605L87.1097,118.95217L84.58760000000001,118.95217ZM96.00489999999999,123.332C96.7878,122.9258,97.2279,122.2233,97.2279,121.3389C97.2279,119.9297,96.0599,118.95217,93.66470000000001,118.95217L89.01400000000001,118.95217L89.01400000000001,128.1605L93.9271,128.1605C96.3688,128.1605,97.6722,127.238,97.6722,125.6384C97.6722,124.4789,97.0332,123.696,96.00489999999999,123.332ZM93.3304,120.8141C94.18520000000001,120.8141,94.62960000000001,121.1146,94.62960000000001,121.6944C94.62960000000001,122.2868,94.18520000000001,122.5915,93.3304,122.5915L91.5615,122.5915L91.5615,120.8141L93.3304,120.8141ZM93.7197,126.3028L91.5615,126.3028L91.5615,124.3688L93.7197,124.3688C94.60419999999999,124.3688,95.0697,124.682,95.0697,125.3379C95.0697,125.9896,94.60419999999999,126.3028,93.7197,126.3028Z" fill="#3D3D3D" fill-opacity="1"/></g><g style="mix-blend-mode:passthrough"><g><path d="M138.551,437.6286C136.5475,445.6642,128.4077,450.5547,120.37010000000001,448.551C112.33579,446.5475,107.44481999999999,438.4081,109.449277,430.3729C111.45198,422.33627,119.5918,417.44549,127.627,419.448852C135.6639,421.45221,140.5547,429.5925,138.551,437.6287L138.551,437.6286Z" fill="#F3BA2F" fill-opacity="1"/><path d="M124.00165170059203,428.51999570846556L120.11708170059204,432.40413570846556L120.11715170059205,432.4039857084656L117.85698170059204,430.14398570846555L124.00165170059203,423.9999957084656L130.14835170059203,430.1458357084656L127.88805170059204,432.4058357084656L124.00165170059203,428.51999570846556ZM116.26087170059205,431.7395857084656L114.00055170059204,433.9999857084656L116.26072170059204,436.25959570846555L118.52105170059204,433.9995157084656L116.26087170059205,431.7395857084656ZM120.11708170059204,435.59609570846555L124.00165170059203,439.4799957084656L127.88805170059204,435.5941957084656L130.14945170059204,437.8529957084656L130.14835170059203,437.85419570846557L124.00165170059203,443.9999957084656L117.85698170059204,437.85599570846557L117.85378170059204,437.8527957084656L120.11708170059204,435.59609570846555ZM131.74255170059203,431.74086570846555L129.48225170059203,434.0008957084656L131.74255170059203,436.26089570846557L134.00275170059203,434.0007957084656L131.74255170059203,431.74086570846555Z" fill-rule="evenodd" fill="#FFFFFF" fill-opacity="1"/></g></g><g style="mix-blend-mode:passthrough"><path d="M154.16016,432.473L151.96387,432.473L151.96387,430.3063L149.96224,430.3063L149.96224,432.473L147.753255,432.473L147.753255,434.3731L149.96224,434.3731L149.96224,436.5186L151.96387,436.5186L151.96387,434.3731L154.16016,434.3731L154.16016,432.473ZM159.3102,438.4313C161.625,438.4313,163.3177,436.7048,163.3177,433.5563C163.3177,430.4121,161.625,428.68133,159.3102,428.68133C156.98275,428.68133,155.29427,430.4121,155.29427,433.5563C155.29427,436.7048,156.98275,438.4313,159.3102,438.4313ZM159.3102,436.3281C158.4808,436.3281,157.8799,435.5749,157.8799,433.5563C157.8799,431.542,158.4808,430.7888,159.3102,430.7888C160.1312,430.7888,160.7279,431.542,160.7279,433.5563C160.7279,435.5749,160.1312,436.3281,159.3102,436.3281ZM165.624,438.4313C166.4661,438.4313,167.1051,437.822,167.1051,436.9629C167.1051,436.0785,166.4661,435.5072,165.624,435.5072C164.7904,435.5072,164.1387,436.0785,164.1387,436.9629C164.1387,437.822,164.7904,438.4313,165.624,438.4313ZM171.5485,436.1208L173.2624,434.4746C174.5615,433.2347,174.81119999999999,432.3968,174.81119999999999,431.4785C174.81119999999999,429.7604,173.3682,428.68133,171.2734,428.68133C169.4792,428.68133,168.1927,429.4388,167.5029,430.5814L169.41570000000002,431.6817C169.7796,431.0723,170.37630000000001,430.7634,171.04070000000002,430.7634C171.8193,430.7634,172.2087,431.1273,172.2087,431.7367C172.2087,432.126,172.1071,432.5576,171.3792,433.2601L167.9727,436.5524L167.9727,438.1605L175.0566,438.1605L175.0566,436.1208L171.5485,436.1208ZM187.1299,433.332C187.9128,432.9258,188.3529,432.2233,188.3529,431.3389C188.3529,429.9297,187.1849,428.95217,184.7897,428.95217L180.139,428.95217L180.139,438.1605L185.0521,438.1605C187.4938,438.1605,188.7972,437.238,188.7972,435.6384C188.7972,434.4789,188.1582,433.696,187.1299,433.332ZM184.4554,430.8141C185.3102,430.8141,185.7546,431.1146,185.7546,431.6944C185.7546,432.28679999999997,185.3102,432.5915,184.4554,432.5915L182.6865,432.5915L182.6865,430.8141L184.4554,430.8141ZM184.8447,436.3028L182.6865,436.3028L182.6865,434.3688L184.8447,434.3688C185.7292,434.3688,186.1947,434.682,186.1947,435.3379C186.1947,435.9896,185.7292,436.3028,184.8447,436.3028ZM196.29590000000002,428.95217L196.29590000000002,433.861L192.2757,428.95217L190.1598,428.95217L190.1598,438.1605L192.68200000000002,438.1605L192.68200000000002,433.2559L196.6979,438.1605L198.81799999999998,438.1605L198.81799999999998,428.95217L196.29590000000002,428.95217ZM207.7132,433.332C208.4961,432.9258,208.93619999999999,432.2233,208.93619999999999,431.3389C208.93619999999999,429.9297,207.7682,428.95217,205.373,428.95217L200.7223,428.95217L200.7223,438.1605L205.6354,438.1605C208.0771,438.1605,209.38049999999998,437.238,209.38049999999998,435.6384C209.38049999999998,434.4789,208.7415,433.696,207.7132,433.332ZM205.0387,430.8141C205.8936,430.8141,206.3379,431.1146,206.3379,431.6944C206.3379,432.28679999999997,205.8936,432.5915,205.0387,432.5915L203.2699,432.5915L203.2699,430.8141L205.0387,430.8141ZM205.4281,436.3028L203.2699,436.3028L203.2699,434.3688L205.4281,434.3688C206.3125,434.3688,206.778,434.682,206.778,435.3379C206.778,435.9896,206.3125,436.3028,205.4281,436.3028Z" fill="#3D3D3D" fill-opacity="1"/></g><g style="mix-blend-mode:passthrough"><g><path d="M155.551,18.6286C153.5475,26.6642,145.4077,31.5547,137.3701,29.551C129.33579,27.5475,124.44481999999999,19.4081,126.449277,11.3729C128.45198,3.33627,136.5918,-1.55451,144.627,0.448852C152.6639,2.45221,157.5547,10.5925,155.551,18.6287L155.551,18.6286Z" fill="#F3BA2F" fill-opacity="1"/><path d="M141.00165170059205,9.519995708465576L137.11708170059205,13.404135708465576L137.11715170059205,13.403985708465576L134.85698170059203,11.143985708465575L141.00165170059205,4.999995708465576L147.14835170059203,11.145835708465576L144.88805170059203,13.405835708465576L141.00165170059205,9.519995708465576ZM133.26087170059205,12.739585708465576L131.00055170059204,14.999985708465577L133.26072170059203,17.259595708465575L135.52105170059204,14.999515708465577L133.26087170059205,12.739585708465576ZM137.11708170059205,16.596095708465576L141.00165170059205,20.479995708465577L144.88805170059203,16.594195708465577L147.14945170059204,18.852995708465578L147.14835170059203,18.854195708465575L141.00165170059205,24.999995708465576L134.85698170059203,18.855995708465578L134.85378170059204,18.852795708465578L137.11708170059205,16.596095708465576ZM148.74255170059203,12.740865708465577L146.48225170059203,15.000895708465576L148.74255170059203,17.260895708465576L151.00275170059203,15.000795708465576L148.74255170059203,12.740865708465577Z" fill-rule="evenodd" fill="#FFFFFF" fill-opacity="1"/></g></g><g style="mix-blend-mode:passthrough"><path d="M171.16016,13.473L168.96387,13.473L168.96387,11.3063L166.96224,11.3063L166.96224,13.473L164.753255,13.473L164.753255,15.3731L166.96224,15.3731L166.96224,17.5186L168.96387,17.5186L168.96387,15.3731L171.16016,15.3731L171.16016,13.473ZM176.3102,19.4313C178.625,19.4313,180.3177,17.7048,180.3177,14.5563C180.3177,11.4121,178.625,9.68133,176.3102,9.68133C173.98275,9.68133,172.29427,11.4121,172.29427,14.5563C172.29427,17.7048,173.98275,19.4313,176.3102,19.4313ZM176.3102,17.3281C175.4808,17.3281,174.8799,16.5749,174.8799,14.5563C174.8799,12.542,175.4808,11.7888,176.3102,11.7888C177.1312,11.7888,177.7279,12.542,177.7279,14.5563C177.7279,16.5749,177.1312,17.3281,176.3102,17.3281ZM182.624,19.4313C183.4661,19.4313,184.1051,18.822,184.1051,17.9629C184.1051,17.0785,183.4661,16.5072,182.624,16.5072C181.7904,16.5072,181.1387,17.0785,181.1387,17.9629C181.1387,18.822,181.7904,19.4313,182.624,19.4313ZM188.5485,17.1208L190.2624,15.4746C191.5615,14.2347,191.81119999999999,13.3968,191.81119999999999,12.4785C191.81119999999999,10.7604,190.3682,9.68133,188.2734,9.68133C186.4792,9.68133,185.1927,10.4388,184.5029,11.5814L186.41570000000002,12.6817C186.7796,12.0723,187.37630000000001,11.7634,188.04070000000002,11.7634C188.8193,11.7634,189.2087,12.1273,189.2087,12.7367C189.2087,13.126,189.1071,13.5576,188.3792,14.2601L184.9727,17.5524L184.9727,19.1605L192.0566,19.1605L192.0566,17.1208L188.5485,17.1208ZM204.1299,14.332C204.9128,13.9258,205.3529,13.2233,205.3529,12.3389C205.3529,10.9297,204.1849,9.95217,201.7897,9.95217L197.139,9.95217L197.139,19.1605L202.0521,19.1605C204.4938,19.1605,205.7972,18.238,205.7972,16.6384C205.7972,15.4789,205.1582,14.696,204.1299,14.332ZM201.4554,11.8141C202.3102,11.8141,202.7546,12.1146,202.7546,12.6944C202.7546,13.2868,202.3102,13.5915,201.4554,13.5915L199.6865,13.5915L199.6865,11.8141L201.4554,11.8141ZM201.8447,17.3028L199.6865,17.3028L199.6865,15.3688L201.8447,15.3688C202.7292,15.3688,203.1947,15.682,203.1947,16.3379C203.1947,16.9896,202.7292,17.3028,201.8447,17.3028ZM213.29590000000002,9.95217L213.29590000000002,14.861L209.2757,9.95217L207.1598,9.95217L207.1598,19.1605L209.68200000000002,19.1605L209.68200000000002,14.2559L213.6979,19.1605L215.81799999999998,19.1605L215.81799999999998,9.95217L213.29590000000002,9.95217ZM224.7132,14.332C225.4961,13.9258,225.93619999999999,13.2233,225.93619999999999,12.3389C225.93619999999999,10.9297,224.7682,9.95217,222.373,9.95217L217.7223,9.95217L217.7223,19.1605L222.6354,19.1605C225.0771,19.1605,226.38049999999998,18.238,226.38049999999998,16.6384C226.38049999999998,15.4789,225.7415,14.696,224.7132,14.332ZM222.0387,11.8141C222.8936,11.8141,223.3379,12.1146,223.3379,12.6944C223.3379,13.2868,222.8936,13.5915,222.0387,13.5915L220.2699,13.5915L220.2699,11.8141L222.0387,11.8141ZM222.4281,17.3028L220.2699,17.3028L220.2699,15.3688L222.4281,15.3688C223.3125,15.3688,223.778,15.682,223.778,16.3379C223.778,16.9896,223.3125,17.3028,222.4281,17.3028Z" fill="#3D3D3D" fill-opacity="1"/></g></g></g></svg>