<svg width="20" height="20" viewBox="0 0 20 20" fill="none" xmlns="http://www.w3.org/2000/svg">
<g clip-path="url(#clip0)">
<path fill-rule="evenodd" clip-rule="evenodd" d="M13.75 0H6.25C2.79875 0 0 2.79875 0 6.25V13.75C0 17.2013 2.79875 20 6.25 20H13.75C17.2013 20 20 17.2013 20 13.75V6.25C20 2.79875 17.2013 0 13.75 0ZM10 5.00006C7.23875 5.00006 5 7.23881 5 10.0001C5 12.7613 7.23875 15.0001 10 15.0001C12.7613 15.0001 15 12.7613 15 10.0001C15 7.23881 12.7613 5.00006 10 5.00006ZM10 13.1251C8.2775 13.1251 6.875 11.7226 6.875 10.0001C6.875 8.27631 8.2775 6.87506 10 6.87506C11.7225 6.87506 13.125 8.27631 13.125 10.0001C13.125 11.7226 11.7225 13.1251 10 13.1251ZM16.0416 4.62529C16.0416 4.99325 15.7433 5.29154 15.3753 5.29154C15.0074 5.29154 14.7091 4.99325 14.7091 4.62529C14.7091 4.25733 15.0074 3.95905 15.3753 3.95905C15.7433 3.95905 16.0416 4.25733 16.0416 4.62529Z" fill="white"/>
</g>
<defs>
<clipPath id="clip0">
<rect width="20" height="20" fill="white"/>
</clipPath>
</defs>
</svg>
