<svg width="22" height="22" viewBox="0 0 22 22" fill="none" xmlns="http://www.w3.org/2000/svg">
<g clip-path="url(#clip0)">
<path d="M2.93856 8.08754C1.07866 11.3151 2.26103 16.213 4.31778 19.1828C5.34442 20.6675 6.38383 22.0003 7.80748 22.0003C7.83431 22.0003 7.86122 21.9998 7.88877 21.9987C8.55765 21.972 9.041 21.7661 9.50834 21.567C10.033 21.3434 10.5757 21.1123 11.4268 21.1123C12.2366 21.1123 12.7533 21.3359 13.253 21.5522C13.7455 21.7653 14.2528 21.9857 15.0024 21.9716C16.606 21.9418 17.5906 20.5036 18.4593 19.2349C19.3658 17.9102 19.8205 16.624 19.9739 16.1325L19.9801 16.113C20.0093 16.0256 19.9681 15.9303 19.8843 15.8918C19.882 15.8908 19.8735 15.8872 19.8711 15.8862C19.5887 15.7707 17.1116 14.6718 17.0856 11.6766C17.0614 9.24323 18.9439 7.95461 19.3214 7.72105L19.339 7.71008C19.3799 7.68375 19.4084 7.64199 19.4181 7.59424C19.4277 7.54656 19.4176 7.49693 19.3902 7.45683C18.0909 5.55531 16.0993 5.26873 15.2975 5.23425C15.1812 5.22264 15.0611 5.2168 14.9405 5.2168C13.9987 5.2168 13.0966 5.57248 12.3718 5.85826C11.8715 6.05554 11.4394 6.22591 11.1413 6.22591C10.8064 6.22591 10.3718 6.05345 9.86856 5.85379C9.19557 5.58669 8.43279 5.28402 7.62528 5.28402C7.60602 5.28402 7.58705 5.28424 7.56837 5.2846C5.69079 5.31223 3.91666 6.3864 2.93856 8.08754Z" fill="#1D1E20"/>
<path d="M15.2991 0.000138595C14.1621 0.0464468 12.7982 0.746335 11.9829 1.70121C11.2901 2.50381 10.6133 3.84199 10.7916 5.19084C10.8028 5.27523 10.8715 5.34037 10.9564 5.34693C11.0331 5.35292 11.1114 5.35595 11.1895 5.35602C12.3012 5.35602 13.5006 4.74096 14.3196 3.7506C15.1817 2.70484 15.6175 1.36277 15.4857 0.16063C15.4753 0.0664271 15.3924 -0.00354009 15.2991 0.000138595Z" fill="#1D1E20"/>
</g>
<defs>
<clipPath id="clip0">
<rect width="22" height="22" fill="white"/>
</clipPath>
</defs>
</svg>
