<svg xmlns="http://www.w3.org/2000/svg" xmlns:xlink="http://www.w3.org/1999/xlink" fill="none" version="1.1" width="814" height="343" viewBox="0 0 814 343"><defs><filter id="master_svg0_60_15424" filterUnits="userSpaceOnUse" color-interpolation-filters="sRGB" x="303" y="-26" width="178" height="88"><feFlood flood-opacity="0" result="BackgroundImageFix"/><feBlend mode="normal" in="SourceGraphic" in2="BackgroundImageFix" result="shape"/><feGaussianBlur stdDeviation="13" result="effect1_foregroundBlur"/></filter><filter id="master_svg1_60_16334" filterUnits="userSpaceOnUse" color-interpolation-filters="sRGB" x="662" y="-1" width="178" height="88"><feFlood flood-opacity="0" result="BackgroundImageFix"/><feBlend mode="normal" in="SourceGraphic" in2="BackgroundImageFix" result="shape"/><feGaussianBlur stdDeviation="13" result="effect1_foregroundBlur"/></filter><filter id="master_svg2_60_16349" filterUnits="userSpaceOnUse" color-interpolation-filters="sRGB" x="646" y="140" width="178" height="88"><feFlood flood-opacity="0" result="BackgroundImageFix"/><feBlend mode="normal" in="SourceGraphic" in2="BackgroundImageFix" result="shape"/><feGaussianBlur stdDeviation="13" result="effect1_foregroundBlur"/></filter><filter id="master_svg3_60_16364" filterUnits="userSpaceOnUse" color-interpolation-filters="sRGB" x="96" y="281" width="178" height="88"><feFlood flood-opacity="0" result="BackgroundImageFix"/><feBlend mode="normal" in="SourceGraphic" in2="BackgroundImageFix" result="shape"/><feGaussianBlur stdDeviation="13" result="effect1_foregroundBlur"/></filter><filter id="master_svg4_60_16379" filterUnits="userSpaceOnUse" color-interpolation-filters="sRGB" x="489" y="278" width="178" height="88"><feFlood flood-opacity="0" result="BackgroundImageFix"/><feBlend mode="normal" in="SourceGraphic" in2="BackgroundImageFix" result="shape"/><feGaussianBlur stdDeviation="13" result="effect1_foregroundBlur"/></filter><filter id="master_svg5_60_16394" filterUnits="userSpaceOnUse" color-interpolation-filters="sRGB" x="-17" y="-20" width="178" height="88"><feFlood flood-opacity="0" result="BackgroundImageFix"/><feBlend mode="normal" in="SourceGraphic" in2="BackgroundImageFix" result="shape"/><feGaussianBlur stdDeviation="13" result="effect1_foregroundBlur"/></filter><filter id="master_svg6_60_16409" filterUnits="userSpaceOnUse" color-interpolation-filters="sRGB" x="-26" y="143" width="178" height="88"><feFlood flood-opacity="0" result="BackgroundImageFix"/><feBlend mode="normal" in="SourceGraphic" in2="BackgroundImageFix" result="shape"/><feGaussianBlur stdDeviation="13" result="effect1_foregroundBlur"/></filter><linearGradient x1="-1.1220351758822744e-8" y1="2.0309613990576736e-9" x2="-1.1220351758822744e-8" y2="0.9999991655349731" id="master_svg7_60_16702"><stop offset="0%" stop-color="#FCC538" stop-opacity="1"/><stop offset="100%" stop-color="#F7931A" stop-opacity="1"/></linearGradient></defs><g style="mix-blend-mode:passthrough"><g><g><g><g><g><g filter="url(#master_svg0_60_15424)"><rect x="329" y="0" width="126" height="36" rx="18" fill="#FFFFFF" fill-opacity="1"/></g><path d="M329,15C329,6.7157,335.7157,0,344,0C352.28430000000003,0,359,6.7157,359,15C359,23.2843,352.28430000000003,30,344,30C335.7157,30,329,23.2843,329,15Z" fill-rule="evenodd" fill="#6E7FFC" fill-opacity="1"/><path d="M354.4915580383301,17.440681007385255L354.49145803833005,17.437781007385254C354.4717580383301,16.941601007385252,354.3694580383301,16.452101007385252,354.1887580383301,15.989501007385254C353.4668580383301,13.808201007385254,351.5821580383301,10.676101007385254,349.9272580383301,9.629401007385255L349.14475803833005,8.480201007385254C348.9222580383301,8.058900007385255,348.5735580383301,7.717800007385254,348.1475580383301,7.5045000073852535C347.7215580383301,7.291200207385254,347.2395580383301,7.216400107385254,346.7689580383301,7.290500207385254C346.2983580383301,7.364700007385254,345.86275803833007,7.584100007385254,345.5229580383301,7.918000007385254C345.1831580383301,8.251900007385254,344.9562580383301,8.683701007385254,344.8739580383301,9.153001007385253L344.8719580383301,9.154001007385254L344.8708580383301,9.172801007385253C344.8656580383301,9.206301007385253,344.8593580383301,9.239701007385253,344.8551580383301,9.274201007385255L343.1428980383301,9.274201007385255C343.13869803833006,9.239701007385253,343.1324980383301,9.206301007385253,343.1271980383301,9.172801007385253L343.1261980383301,9.154001007385254L343.1240980383301,9.153001007385253C343.04179803833006,8.683701007385254,342.81489803833006,8.251900007385254,342.47519803833006,7.918000007385254C342.1353980383301,7.584100007385254,341.6996980383301,7.364700007385254,341.22909803833005,7.290500207385254C340.75849803833006,7.216400107385254,340.2764980383301,7.291200207385254,339.8504980383301,7.5045000073852535C339.42449803833006,7.717800007385254,339.0758980383301,8.058900007385255,338.8532980383301,8.480201007385254L338.07079803833005,9.629401007385255C336.41589803833006,10.676101007385254,334.5311980383301,13.808201007385254,333.8093000383301,15.989501007385254C333.6286000383301,16.452101007385252,333.52629993833006,16.941601007385252,333.5065998983301,17.437781007385254L333.50649976833006,17.440681007385255C333.4549999383301,18.452281007385253,333.7085000383301,19.456181007385254,334.2341000383301,20.322081007385254C334.7597980383301,21.188081007385254,335.5332980383301,21.876281007385252,336.45459803833006,22.297481007385255C337.0594980383301,22.569181007385254,337.7123980383301,22.717981007385255,338.3752980383301,22.735281007385254C339.03819803833005,22.752481007385256,339.6978980383301,22.637781007385254,340.3160980383301,22.39788100738525C340.9342980383301,22.157981007385253,341.4986980383301,21.797681007385254,341.9763980383301,21.337781007385253C342.4541980383301,20.877881007385255,342.8357980383301,20.327581007385255,343.0989980383301,19.718981007385253C343.3824980383301,19.84458100738525,343.6890580383301,19.909481007385253,343.9990580383301,19.909481007385253C344.3090580383301,19.909481007385253,344.6156580383301,19.84458100738525,344.89905803833005,19.718981007385253C345.36645803833005,20.798481007385256,346.1989580383301,21.678981007385254,347.2506580383301,22.20588100738525C348.3022580383301,22.732881007385252,349.50595803833005,22.872781007385253,350.6504580383301,22.600881007385254C351.79485803833006,22.329081007385255,352.80705803833007,21.662981007385255,353.5094580383301,20.719381007385252C354.2118580383301,19.775781007385255,354.55955803833007,18.614981007385254,354.4915580383301,17.440681007385255ZM341.3719980383301,18.712981007385252C341.1623980383301,19.322181007385254,340.76419803833005,19.848681007385252,340.23519803833005,20.21638100738525C339.70619803833006,20.583981007385255,339.07389803833007,20.773581007385253,338.42989803833007,20.757581007385255C337.78589803833006,20.741681007385253,337.1636980383301,20.520981007385252,336.6535980383301,20.127581007385253C336.1433980383301,19.734281007385256,335.7717980383301,19.188681007385256,335.5925980383301,18.569881007385256C335.4159980383301,17.957481007385255,335.43689803833007,17.30498100738525,335.65229803833006,16.705101007385252C335.8676980383301,16.105301007385254,336.2667980383301,15.588601007385254,336.79269803833006,15.228401007385255C337.31849803833006,14.868301007385254,337.94459803833007,14.683101007385254,338.5816980383301,14.699201007385254C339.21889803833005,14.715201007385254,339.83479803833006,14.931701007385254,340.3418980383301,15.317801007385254C340.84569803833006,15.706101007385254,341.21569803833006,16.241901007385252,341.4003980383301,16.850501007385255C341.58499803833007,17.459181007385254,341.57509803833005,18.110281007385254,341.3719980383301,18.712981007385252ZM343.9989580383301,18.812281007385252C343.80025803833007,18.809881007385254,343.6060580383301,18.752081007385254,343.43829803833006,18.645381007385254C343.2705980383301,18.538681007385254,343.1358980383301,18.387381007385255,343.0493980383301,18.208381007385256C342.96299803833006,18.029381007385254,342.92809803833006,17.829781007385254,342.9487980383301,17.632081007385253C342.9694980383301,17.434381007385255,343.0448980383301,17.246401007385252,343.1664980383301,17.089101007385253C343.28819803833005,16.931901007385253,343.4512980383301,16.811701007385253,343.63745803833007,16.74210100738525C343.82365803833005,16.672401007385254,344.0255580383301,16.656101007385253,344.22055803833007,16.694901007385255C344.4154580383301,16.733601007385253,344.5957580383301,16.82600100738525,344.74115803833007,16.961601007385255C344.88655803833007,17.09720100738525,344.99115803833007,17.270681007385253,345.0434580383301,17.462481007385254C345.08315803833005,17.621881007385255,345.0862580383301,17.788181007385255,345.0524580383301,17.948881007385253C345.0186580383301,18.109581007385252,344.94885803833006,18.260581007385255,344.8483580383301,18.390481007385254C344.7478580383301,18.520381007385254,344.6192580383301,18.625781007385253,344.4720580383301,18.698881007385253C344.32495803833007,18.771881007385254,344.16325803833007,18.810681007385256,343.9989580383301,18.812281007385252ZM352.4054580383301,18.569881007385256C352.2277580383301,19.185881007385255,351.8594580383301,19.729681007385253,351.35325803833007,20.123181007385256C350.84715803833006,20.516581007385255,350.2292580383301,20.739481007385255,349.5884580383301,20.759781007385254C348.9476580383301,20.780081007385256,348.3169580383301,20.596681007385254,347.78695803833006,20.235881007385252C347.2569580383301,19.875181007385255,346.8549580383301,19.355781007385254,346.6387580383301,18.752181007385254C346.42255803833007,18.148681007385253,346.4031580383301,17.492081007385252,346.58355803833007,16.876901007385253C346.7639580383301,16.261701007385255,347.1346580383301,15.719501007385254,347.6425580383301,15.328301007385253C348.15035803833007,14.937001007385254,348.76925803833007,14.716801007385254,349.4100580383301,14.699401007385255C350.05095803833007,14.681901007385253,350.6808580383301,14.868001007385253,351.20925803833006,15.231101007385254C351.73035803833005,15.594701007385254,352.12545803833007,16.111501007385254,352.3398580383301,16.709701007385256C352.55415803833006,17.307881007385255,352.57705803833005,17.957981007385253,352.4054580383301,18.569881007385256Z" fill="#FFFFFF" fill-opacity="1"/></g><g><g filter="url(#master_svg1_60_16334)"><rect x="688" y="25" width="126" height="36" rx="18" fill="#FFFFFF" fill-opacity="1"/></g><path d="M688,40C688,31.7157,694.7157,25,703,25C711.2843,25,718,31.7157,718,40C718,48.2843,711.2843,55,703,55C694.7157,55,688,48.2843,688,40Z" fill-rule="evenodd" fill="#6E7FFC" fill-opacity="1"/><path d="M713.49155803833,42.44068100738525L713.49145803833,42.437781007385254C713.4717580383301,41.94160100738525,713.3694580383301,41.45210100738525,713.1887580383301,40.98950100738526C712.4668580383301,38.80820100738525,710.5821580383301,35.676101007385256,708.92725803833,34.629401007385255L708.1447580383301,33.480201007385254C707.92225803833,33.058900007385255,707.5735580383301,32.71780000738526,707.1475580383301,32.50450000738525C706.72155803833,32.29120020738525,706.2395580383301,32.216400107385255,705.7689580383301,32.29050020738526C705.2983580383301,32.36470000738525,704.8627580383301,32.58410000738525,704.5229580383301,32.91800000738525C704.18315803833,33.25190000738525,703.9562580383301,33.68370100738525,703.8739580383301,34.15300100738526L703.87195803833,34.154001007385254L703.8708580383301,34.17280100738525C703.86565803833,34.20630100738526,703.8593580383301,34.23970100738526,703.85515803833,34.27420100738525L702.14289803833,34.27420100738525C702.1386980383301,34.23970100738526,702.13249803833,34.20630100738526,702.1271980383301,34.17280100738525L702.1261980383301,34.154001007385254L702.1240980383301,34.15300100738526C702.0417980383301,33.68370100738525,701.81489803833,33.25190000738525,701.4751980383301,32.91800000738525C701.1353980383301,32.58410000738525,700.6996980383301,32.36470000738525,700.2290980383301,32.29050020738526C699.7584980383301,32.216400107385255,699.27649803833,32.29120020738525,698.8504980383301,32.50450000738525C698.4244980383301,32.71780000738526,698.07589803833,33.058900007385255,697.8532980383301,33.480201007385254L697.07079803833,34.629401007385255C695.41589803833,35.676101007385256,693.5311980383301,38.80820100738525,692.8093000383301,40.98950100738526C692.6286000383301,41.45210100738525,692.5262999383301,41.94160100738525,692.50659989833,42.437781007385254L692.5064997683301,42.44068100738525C692.45499993833,43.45228100738525,692.70850003833,44.456181007385254,693.2341000383301,45.32208100738525C693.7597980383301,46.18808100738525,694.53329803833,46.87628100738525,695.4545980383301,47.29748100738526C696.05949803833,47.569181007385254,696.7123980383301,47.717981007385255,697.3752980383301,47.735281007385254C698.03819803833,47.752481007385256,698.6978980383301,47.63778100738526,699.3160980383301,47.39788100738525C699.9342980383301,47.15798100738525,700.4986980383301,46.79768100738525,700.9763980383301,46.33778100738525C701.4541980383301,45.877881007385255,701.83579803833,45.327581007385255,702.09899803833,44.71898100738525C702.38249803833,44.84458100738525,702.6890580383301,44.90948100738525,702.9990580383301,44.90948100738525C703.30905803833,44.90948100738525,703.61565803833,44.84458100738525,703.89905803833,44.71898100738525C704.36645803833,45.798481007385256,705.19895803833,46.678981007385254,706.2506580383301,47.20588100738525C707.30225803833,47.73288100738525,708.50595803833,47.87278100738526,709.65045803833,47.600881007385254C710.7948580383301,47.329081007385255,711.8070580383301,46.662981007385255,712.5094580383301,45.71938100738525C713.2118580383301,44.775781007385255,713.5595580383301,43.61498100738525,713.49155803833,42.44068100738525ZM700.37199803833,43.71298100738525C700.16239803833,44.322181007385254,699.76419803833,44.84868100738525,699.23519803833,45.21638100738525C698.7061980383301,45.583981007385255,698.0738980383301,45.77358100738525,697.4298980383301,45.757581007385255C696.7858980383301,45.74168100738525,696.16369803833,45.52098100738525,695.6535980383301,45.12758100738525C695.1433980383301,44.734281007385256,694.7717980383301,44.188681007385256,694.59259803833,43.569881007385256C694.41599803833,42.957481007385255,694.4368980383301,42.30498100738525,694.6522980383301,41.70510100738525C694.8676980383301,41.10530100738525,695.2667980383301,40.58860100738525,695.7926980383301,40.22840100738525C696.3184980383301,39.868301007385256,696.9445980383301,39.683101007385254,697.58169803833,39.699201007385255C698.21889803833,39.715201007385254,698.8347980383301,39.93170100738526,699.3418980383301,40.317801007385256C699.84569803833,40.70610100738526,700.2156980383301,41.24190100738525,700.4003980383301,41.850501007385255C700.5849980383301,42.459181007385254,700.5750980383301,43.110281007385254,700.37199803833,43.71298100738525ZM702.9989580383301,43.81228100738525C702.8002580383301,43.80988100738526,702.60605803833,43.75208100738526,702.4382980383301,43.645381007385254C702.27059803833,43.53868100738525,702.1358980383301,43.38738100738526,702.0493980383301,43.208381007385256C701.96299803833,43.029381007385254,701.9280980383301,42.82978100738525,701.9487980383301,42.63208100738525C701.9694980383301,42.434381007385255,702.0448980383301,42.24640100738525,702.1664980383301,42.08910100738525C702.28819803833,41.93190100738525,702.45129803833,41.81170100738525,702.6374580383301,41.74210100738525C702.8236580383301,41.672401007385254,703.0255580383301,41.65610100738525,703.2205580383301,41.694901007385255C703.41545803833,41.73360100738525,703.5957580383301,41.82600100738525,703.7411580383301,41.961601007385255C703.8865580383301,42.09720100738525,703.9911580383301,42.27068100738525,704.0434580383301,42.46248100738525C704.0831580383301,42.621881007385255,704.0862580383301,42.788181007385255,704.0524580383301,42.94888100738525C704.01865803833,43.10958100738525,703.9488580383301,43.260581007385255,703.84835803833,43.390481007385254C703.74785803833,43.520381007385254,703.61925803833,43.62578100738526,703.47205803833,43.69888100738525C703.3249580383301,43.771881007385254,703.1632580383301,43.810681007385256,702.9989580383301,43.81228100738525ZM711.40545803833,43.569881007385256C711.2277580383301,44.185881007385255,710.8594580383301,44.72968100738525,710.3532580383301,45.123181007385256C709.8471580383301,45.516581007385255,709.22925803833,45.73948100738525,708.58845803833,45.75978100738526C707.9476580383301,45.780081007385256,707.3169580383301,45.59668100738526,706.7869580383301,45.23588100738525C706.25695803833,44.87518100738525,705.8549580383301,44.355781007385254,705.63875803833,43.75218100738525C705.4225580383301,43.14868100738525,705.40315803833,42.49208100738525,705.5835580383301,41.87690100738526C705.7639580383301,41.261701007385255,706.13465803833,40.719501007385254,706.6425580383301,40.32830100738525C707.1503580383301,39.937001007385255,707.7692580383301,39.71680100738526,708.4100580383301,39.699401007385255C709.0509580383301,39.68190100738526,709.68085803833,39.86800100738525,710.2092580383301,40.231101007385256C710.7303580383301,40.594701007385254,711.1254580383301,41.11150100738526,711.33985803833,41.709701007385256C711.5541580383301,42.307881007385255,711.57705803833,42.95798100738526,711.40545803833,43.569881007385256Z" fill="#FFFFFF" fill-opacity="1"/></g><g><g filter="url(#master_svg2_60_16349)"><rect x="672" y="166" width="126" height="36" rx="18" fill="#FFFFFF" fill-opacity="1"/></g><path d="M672,181C672,172.7157,678.7157,166,687,166C695.2843,166,702,172.7157,702,181C702,189.2843,695.2843,196,687,196C678.7157,196,672,189.2843,672,181Z" fill-rule="evenodd" fill="#6E7FFC" fill-opacity="1"/><path d="M697.49155803833,183.44068100738525L697.49145803833,183.43778100738524C697.4717580383301,182.94160100738526,697.3694580383301,182.45210100738527,697.1887580383301,181.98950100738526C696.4668580383301,179.80820100738526,694.5821580383301,176.67610100738526,692.92725803833,175.62940100738524L692.1447580383301,174.48020100738526C691.92225803833,174.05890000738526,691.5735580383301,173.71780000738525,691.1475580383301,173.50450000738525C690.72155803833,173.29120020738526,690.2395580383301,173.21640010738525,689.7689580383301,173.29050020738526C689.2983580383301,173.36470000738527,688.8627580383301,173.58410000738525,688.5229580383301,173.91800000738525C688.18315803833,174.25190000738525,687.9562580383301,174.68370100738525,687.8739580383301,175.15300100738526L687.87195803833,175.15400100738526L687.8708580383301,175.17280100738526C687.86565803833,175.20630100738526,687.8593580383301,175.23970100738526,687.85515803833,175.27420100738524L686.14289803833,175.27420100738524C686.1386980383301,175.23970100738526,686.13249803833,175.20630100738526,686.1271980383301,175.17280100738526L686.1261980383301,175.15400100738526L686.1240980383301,175.15300100738526C686.0417980383301,174.68370100738525,685.81489803833,174.25190000738525,685.4751980383301,173.91800000738525C685.1353980383301,173.58410000738525,684.6996980383301,173.36470000738527,684.2290980383301,173.29050020738526C683.7584980383301,173.21640010738525,683.27649803833,173.29120020738526,682.8504980383301,173.50450000738525C682.4244980383301,173.71780000738525,682.07589803833,174.05890000738526,681.8532980383301,174.48020100738526L681.07079803833,175.62940100738524C679.41589803833,176.67610100738526,677.5311980383301,179.80820100738526,676.8093000383301,181.98950100738526C676.6286000383301,182.45210100738527,676.5262999383301,182.94160100738526,676.50659989833,183.43778100738524L676.5064997683301,183.44068100738525C676.45499993833,184.45228100738527,676.70850003833,185.45618100738525,677.2341000383301,186.32208100738526C677.7597980383301,187.18808100738525,678.53329803833,187.87628100738524,679.4545980383301,188.29748100738524C680.05949803833,188.56918100738525,680.7123980383301,188.71798100738525,681.3752980383301,188.73528100738525C682.03819803833,188.75248100738526,682.6978980383301,188.63778100738526,683.3160980383301,188.39788100738525C683.9342980383301,188.15798100738525,684.4986980383301,187.79768100738525,684.9763980383301,187.33778100738525C685.4541980383301,186.87788100738524,685.83579803833,186.32758100738525,686.09899803833,185.71898100738525C686.38249803833,185.84458100738524,686.6890580383301,185.90948100738527,686.9990580383301,185.90948100738527C687.30905803833,185.90948100738527,687.61565803833,185.84458100738524,687.89905803833,185.71898100738525C688.36645803833,186.79848100738525,689.19895803833,187.67898100738526,690.2506580383301,188.20588100738524C691.30225803833,188.73288100738526,692.50595803833,188.87278100738524,693.65045803833,188.60088100738525C694.7948580383301,188.32908100738524,695.8070580383301,187.66298100738524,696.5094580383301,186.71938100738527C697.2118580383301,185.77578100738526,697.5595580383301,184.61498100738527,697.49155803833,183.44068100738525ZM684.37199803833,184.71298100738525C684.16239803833,185.32218100738527,683.76419803833,185.84868100738527,683.23519803833,186.21638100738525C682.7061980383301,186.58398100738526,682.0738980383301,186.77358100738525,681.4298980383301,186.75758100738526C680.7858980383301,186.74168100738524,680.16369803833,186.52098100738525,679.6535980383301,186.12758100738526C679.1433980383301,185.73428100738525,678.7717980383301,185.18868100738524,678.59259803833,184.56988100738525C678.41599803833,183.95748100738524,678.4368980383301,183.30498100738527,678.6522980383301,182.70510100738525C678.8676980383301,182.10530100738526,679.2667980383301,181.58860100738525,679.7926980383301,181.22840100738526C680.3184980383301,180.86830100738524,680.9445980383301,180.68310100738526,681.58169803833,180.69920100738526C682.21889803833,180.71520100738525,682.8347980383301,180.93170100738524,683.3418980383301,181.31780100738524C683.84569803833,181.70610100738526,684.2156980383301,182.24190100738525,684.4003980383301,182.85050100738525C684.5849980383301,183.45918100738527,684.5750980383301,184.11028100738525,684.37199803833,184.71298100738525ZM686.9989580383301,184.81228100738525C686.8002580383301,184.80988100738526,686.60605803833,184.75208100738524,686.4382980383301,184.64538100738525C686.27059803833,184.53868100738526,686.1358980383301,184.38738100738524,686.0493980383301,184.20838100738524C685.96299803833,184.02938100738527,685.9280980383301,183.82978100738526,685.9487980383301,183.63208100738527C685.9694980383301,183.43438100738524,686.0448980383301,183.24640100738526,686.1664980383301,183.08910100738527C686.28819803833,182.93190100738525,686.45129803833,182.81170100738527,686.6374580383301,182.74210100738526C686.8236580383301,182.67240100738525,687.0255580383301,182.65610100738525,687.2205580383301,182.69490100738525C687.41545803833,182.73360100738526,687.5957580383301,182.82600100738526,687.7411580383301,182.96160100738524C687.8865580383301,183.09720100738525,687.9911580383301,183.27068100738526,688.0434580383301,183.46248100738526C688.0831580383301,183.62188100738524,688.0862580383301,183.78818100738525,688.0524580383301,183.94888100738524C688.01865803833,184.10958100738526,687.9488580383301,184.26058100738524,687.84835803833,184.39048100738526C687.74785803833,184.52038100738525,687.61925803833,184.62578100738526,687.47205803833,184.69888100738524C687.3249580383301,184.77188100738525,687.1632580383301,184.81068100738526,686.9989580383301,184.81228100738525ZM695.40545803833,184.56988100738525C695.2277580383301,185.18588100738526,694.8594580383301,185.72968100738527,694.3532580383301,186.12318100738526C693.8471580383301,186.51658100738524,693.22925803833,186.73948100738525,692.58845803833,186.75978100738524C691.9476580383301,186.78008100738526,691.3169580383301,186.59668100738526,690.7869580383301,186.23588100738525C690.25695803833,185.87518100738527,689.8549580383301,185.35578100738525,689.63875803833,184.75218100738525C689.4225580383301,184.14868100738525,689.40315803833,183.49208100738525,689.5835580383301,182.87690100738524C689.7639580383301,182.26170100738526,690.13465803833,181.71950100738525,690.6425580383301,181.32830100738525C691.1503580383301,180.93700100738525,691.7692580383301,180.71680100738524,692.4100580383301,180.69940100738526C693.0509580383301,180.68190100738525,693.68085803833,180.86800100738526,694.2092580383301,181.23110100738526C694.7303580383301,181.59470100738525,695.1254580383301,182.11150100738524,695.33985803833,182.70970100738526C695.5541580383301,183.30788100738525,695.57705803833,183.95798100738526,695.40545803833,184.56988100738525Z" fill="#FFFFFF" fill-opacity="1"/></g><g><g filter="url(#master_svg3_60_16364)"><rect x="122" y="307" width="126" height="36" rx="18" fill="#FFFFFF" fill-opacity="1"/></g><path d="M122,322C122,313.7157,128.7157,307,137,307C145.2843,307,152,313.7157,152,322C152,330.28430000000003,145.2843,337,137,337C128.7157,337,122,330.28430000000003,122,322Z" fill-rule="evenodd" fill="#6E7FFC" fill-opacity="1"/><path d="M147.49155803833008,324.44068100738525L147.49145803833008,324.43778100738524C147.47175803833008,323.94160100738526,147.36945803833007,323.45210100738524,147.1887580383301,322.98950100738523C146.4668580383301,320.80820100738526,144.58215803833008,317.6761010073852,142.92725803833008,316.62940100738524L142.14475803833008,315.48020100738523C141.92225803833009,315.05890000738526,141.57355803833008,314.7178000073853,141.1475580383301,314.5045000073853C140.72155803833007,314.29120020738526,140.23955803833007,314.21640010738525,139.76895803833008,314.29050020738526C139.2983580383301,314.36470000738524,138.86275803833007,314.58410000738525,138.52295803833007,314.9180000073853C138.18315803833008,315.25190000738525,137.95625803833008,315.68370100738525,137.87395803833007,316.1530010073852L137.8719580383301,316.15400100738526L137.87085803833008,316.17280100738526C137.86565803833008,316.20630100738526,137.85935803833007,316.23970100738524,137.85515803833007,316.2742010073853L136.1428980383301,316.2742010073853C136.1386980383301,316.23970100738524,136.13249803833008,316.20630100738526,136.12719803833008,316.17280100738526L136.12619803833007,316.15400100738526L136.1240980383301,316.1530010073852C136.04179803833009,315.68370100738525,135.81489803833009,315.25190000738525,135.47519803833006,314.9180000073853C135.13539803833007,314.58410000738525,134.69969803833007,314.36470000738524,134.22909803833008,314.29050020738526C133.7584980383301,314.21640010738525,133.2764980383301,314.29120020738526,132.85049803833007,314.5045000073853C132.42449803833009,314.7178000073853,132.07589803833008,315.05890000738526,131.85329803833008,315.48020100738523L131.07079803833008,316.62940100738524C129.41589803833008,317.6761010073852,127.53119803833007,320.80820100738526,126.80930003833008,322.98950100738523C126.62860003833008,323.45210100738524,126.52629993833008,323.94160100738526,126.50659989833008,324.43778100738524L126.50649976833007,324.44068100738525C126.45499993833008,325.45228100738524,126.70850003833007,326.4561810073852,127.23410003833008,327.32208100738524C127.75979803833008,328.1880810073853,128.5332980383301,328.8762810073853,129.4545980383301,329.2974810073853C130.05949803833008,329.5691810073853,130.71239803833006,329.7179810073853,131.37529803833007,329.73528100738525C132.03819803833008,329.75248100738526,132.69789803833007,329.63778100738523,133.31609803833007,329.39788100738525C133.93429803833007,329.1579810073853,134.49869803833008,328.7976810073853,134.97639803833007,328.3377810073853C135.45419803833008,327.87788100738527,135.83579803833007,327.3275810073853,136.09899803833008,326.71898100738525C136.38249803833008,326.8445810073853,136.68905803833007,326.90948100738524,136.99905803833008,326.90948100738524C137.30905803833008,326.90948100738524,137.61565803833008,326.8445810073853,137.89905803833008,326.71898100738525C138.36645803833008,327.79848100738525,139.1989580383301,328.67898100738523,140.25065803833007,329.20588100738524C141.30225803833008,329.73288100738523,142.50595803833008,329.87278100738524,143.65045803833007,329.6008810073853C144.79485803833006,329.32908100738524,145.80705803833007,328.66298100738527,146.50945803833008,327.71938100738527C147.2118580383301,326.77578100738526,147.55955803833007,325.61498100738527,147.49155803833008,324.44068100738525ZM134.37199803833008,325.7129810073853C134.16239803833008,326.32218100738527,133.76419803833008,326.84868100738527,133.23519803833008,327.2163810073853C132.7061980383301,327.58398100738526,132.07389803833007,327.77358100738525,131.42989803833007,327.7575810073852C130.7858980383301,327.74168100738524,130.16369803833007,327.5209810073853,129.65359803833007,327.12758100738523C129.14339803833008,326.7342810073853,128.77179803833008,326.18868100738524,128.59259803833007,325.5698810073853C128.4159980383301,324.95748100738524,128.43689803833007,324.30498100738527,128.6522980383301,323.7051010073853C128.86769803833008,323.10530100738526,129.26679803833008,322.58860100738525,129.7926980383301,322.22840100738523C130.3184980383301,321.86830100738524,130.94459803833007,321.68310100738523,131.58169803833007,321.6992010073852C132.21889803833008,321.71520100738525,132.83479803833006,321.93170100738524,133.34189803833007,322.31780100738524C133.84569803833008,322.70610100738526,134.2156980383301,323.24190100738525,134.40039803833008,323.8505010073853C134.58499803833007,324.45918100738527,134.57509803833008,325.11028100738525,134.37199803833008,325.7129810073853ZM136.99895803833007,325.81228100738525C136.80025803833007,325.80988100738523,136.60605803833008,325.75208100738524,136.4382980383301,325.64538100738525C136.2705980383301,325.53868100738526,136.13589803833008,325.3873810073853,136.04939803833008,325.20838100738524C135.96299803833008,325.02938100738527,135.9280980383301,324.82978100738524,135.94879803833007,324.63208100738524C135.96949803833007,324.43438100738524,136.04489803833007,324.24640100738526,136.16649803833008,324.08910100738524C136.28819803833008,323.93190100738525,136.45129803833007,323.81170100738524,136.63745803833007,323.74210100738526C136.82365803833008,323.67240100738525,137.02555803833008,323.65610100738525,137.22055803833007,323.6949010073852C137.4154580383301,323.73360100738523,137.59575803833008,323.82600100738523,137.74115803833007,323.96160100738524C137.88655803833007,324.09720100738525,137.99115803833007,324.27068100738524,138.04345803833007,324.46248100738524C138.08315803833008,324.62188100738524,138.08625803833007,324.7881810073853,138.0524580383301,324.94888100738524C138.01865803833007,325.10958100738526,137.9488580383301,325.26058100738527,137.84835803833008,325.39048100738523C137.74785803833007,325.52038100738525,137.6192580383301,325.6257810073852,137.4720580383301,325.69888100738524C137.32495803833007,325.7718810073853,137.16325803833007,325.81068100738526,136.99895803833007,325.81228100738525ZM145.40545803833007,325.5698810073853C145.22775803833008,326.18588100738526,144.85945803833008,326.72968100738524,144.35325803833007,327.12318100738526C143.84715803833006,327.51658100738524,143.22925803833007,327.7394810073853,142.5884580383301,327.75978100738524C141.94765803833008,327.78008100738526,141.31695803833009,327.59668100738526,140.78695803833008,327.2358810073853C140.25695803833008,326.87518100738527,139.85495803833007,326.35578100738525,139.63875803833008,325.7521810073853C139.42255803833007,325.1486810073853,139.40315803833008,324.49208100738525,139.58355803833007,323.87690100738524C139.7639580383301,323.2617010073852,140.1346580383301,322.71950100738525,140.64255803833007,322.3283010073853C141.15035803833007,321.9370010073853,141.76925803833007,321.71680100738524,142.41005803833008,321.69940100738523C143.05095803833007,321.68190100738525,143.6808580383301,321.86800100738526,144.20925803833006,322.23110100738523C144.73035803833008,322.59470100738525,145.12545803833007,323.11150100738524,145.33985803833008,323.70970100738526C145.5541580383301,324.3078810073853,145.57705803833008,324.95798100738523,145.40545803833007,325.5698810073853Z" fill="#FFFFFF" fill-opacity="1"/></g><g><g filter="url(#master_svg4_60_16379)"><rect x="515" y="304" width="126" height="36" rx="18" fill="#FFFFFF" fill-opacity="1"/></g><path d="M515,319C515,310.7157,521.7157,304,530,304C538.2843,304,545,310.7157,545,319C545,327.28430000000003,538.2843,334,530,334C521.7157,334,515,327.28430000000003,515,319Z" fill-rule="evenodd" fill="#6E7FFC" fill-opacity="1"/><path d="M540.49155803833,321.44068100738525L540.49145803833,321.43778100738524C540.4717580383301,320.94160100738526,540.3694580383301,320.45210100738524,540.1887580383301,319.98950100738523C539.4668580383301,317.80820100738526,537.5821580383301,314.6761010073852,535.92725803833,313.62940100738524L535.1447580383301,312.48020100738523C534.92225803833,312.05890000738526,534.5735580383301,311.7178000073853,534.1475580383301,311.5045000073853C533.72155803833,311.29120020738526,533.2395580383301,311.21640010738525,532.7689580383301,311.29050020738526C532.2983580383301,311.36470000738524,531.8627580383301,311.58410000738525,531.5229580383301,311.9180000073853C531.18315803833,312.25190000738525,530.9562580383301,312.68370100738525,530.8739580383301,313.1530010073852L530.87195803833,313.15400100738526L530.8708580383301,313.17280100738526C530.86565803833,313.20630100738526,530.8593580383301,313.23970100738524,530.85515803833,313.2742010073853L529.14289803833,313.2742010073853C529.1386980383301,313.23970100738524,529.13249803833,313.20630100738526,529.1271980383301,313.17280100738526L529.1261980383301,313.15400100738526L529.1240980383301,313.1530010073852C529.0417980383301,312.68370100738525,528.81489803833,312.25190000738525,528.4751980383301,311.9180000073853C528.1353980383301,311.58410000738525,527.6996980383301,311.36470000738524,527.2290980383301,311.29050020738526C526.7584980383301,311.21640010738525,526.27649803833,311.29120020738526,525.8504980383301,311.5045000073853C525.4244980383301,311.7178000073853,525.07589803833,312.05890000738526,524.8532980383301,312.48020100738523L524.07079803833,313.62940100738524C522.41589803833,314.6761010073852,520.5311980383301,317.80820100738526,519.8093000383301,319.98950100738523C519.6286000383301,320.45210100738524,519.5262999383301,320.94160100738526,519.50659989833,321.43778100738524L519.5064997683301,321.44068100738525C519.45499993833,322.45228100738524,519.70850003833,323.4561810073852,520.2341000383301,324.32208100738524C520.7597980383301,325.1880810073853,521.53329803833,325.8762810073853,522.4545980383301,326.2974810073853C523.05949803833,326.5691810073853,523.7123980383301,326.7179810073853,524.3752980383301,326.73528100738525C525.03819803833,326.75248100738526,525.6978980383301,326.63778100738523,526.3160980383301,326.39788100738525C526.9342980383301,326.1579810073853,527.4986980383301,325.7976810073853,527.9763980383301,325.3377810073853C528.4541980383301,324.87788100738527,528.83579803833,324.3275810073853,529.09899803833,323.71898100738525C529.38249803833,323.8445810073853,529.6890580383301,323.90948100738524,529.9990580383301,323.90948100738524C530.30905803833,323.90948100738524,530.61565803833,323.8445810073853,530.89905803833,323.71898100738525C531.36645803833,324.79848100738525,532.19895803833,325.67898100738523,533.2506580383301,326.20588100738524C534.30225803833,326.73288100738523,535.50595803833,326.87278100738524,536.65045803833,326.6008810073853C537.7948580383301,326.32908100738524,538.8070580383301,325.66298100738527,539.5094580383301,324.71938100738527C540.2118580383301,323.77578100738526,540.5595580383301,322.61498100738527,540.49155803833,321.44068100738525ZM527.37199803833,322.7129810073853C527.16239803833,323.32218100738527,526.76419803833,323.84868100738527,526.23519803833,324.2163810073853C525.7061980383301,324.58398100738526,525.0738980383301,324.77358100738525,524.4298980383301,324.7575810073852C523.7858980383301,324.74168100738524,523.16369803833,324.5209810073853,522.6535980383301,324.12758100738523C522.1433980383301,323.7342810073853,521.7717980383301,323.18868100738524,521.59259803833,322.5698810073853C521.41599803833,321.95748100738524,521.4368980383301,321.30498100738527,521.6522980383301,320.7051010073853C521.8676980383301,320.10530100738526,522.2667980383301,319.58860100738525,522.7926980383301,319.22840100738523C523.3184980383301,318.86830100738524,523.9445980383301,318.68310100738523,524.58169803833,318.6992010073852C525.21889803833,318.71520100738525,525.8347980383301,318.93170100738524,526.3418980383301,319.31780100738524C526.84569803833,319.70610100738526,527.2156980383301,320.24190100738525,527.4003980383301,320.8505010073853C527.5849980383301,321.45918100738527,527.5750980383301,322.11028100738525,527.37199803833,322.7129810073853ZM529.9989580383301,322.81228100738525C529.8002580383301,322.80988100738523,529.60605803833,322.75208100738524,529.4382980383301,322.64538100738525C529.27059803833,322.53868100738526,529.1358980383301,322.3873810073853,529.0493980383301,322.20838100738524C528.96299803833,322.02938100738527,528.9280980383301,321.82978100738524,528.9487980383301,321.63208100738524C528.9694980383301,321.43438100738524,529.0448980383301,321.24640100738526,529.1664980383301,321.08910100738524C529.28819803833,320.93190100738525,529.45129803833,320.81170100738524,529.6374580383301,320.74210100738526C529.8236580383301,320.67240100738525,530.0255580383301,320.65610100738525,530.2205580383301,320.6949010073852C530.41545803833,320.73360100738523,530.5957580383301,320.82600100738523,530.7411580383301,320.96160100738524C530.8865580383301,321.09720100738525,530.9911580383301,321.27068100738524,531.0434580383301,321.46248100738524C531.0831580383301,321.62188100738524,531.0862580383301,321.7881810073853,531.0524580383301,321.94888100738524C531.01865803833,322.10958100738526,530.9488580383301,322.26058100738527,530.84835803833,322.39048100738523C530.74785803833,322.52038100738525,530.61925803833,322.6257810073852,530.47205803833,322.69888100738524C530.3249580383301,322.7718810073853,530.1632580383301,322.81068100738526,529.9989580383301,322.81228100738525ZM538.40545803833,322.5698810073853C538.2277580383301,323.18588100738526,537.8594580383301,323.72968100738524,537.3532580383301,324.12318100738526C536.8471580383301,324.51658100738524,536.22925803833,324.7394810073853,535.58845803833,324.75978100738524C534.9476580383301,324.78008100738526,534.3169580383301,324.59668100738526,533.7869580383301,324.2358810073853C533.25695803833,323.87518100738527,532.8549580383301,323.35578100738525,532.63875803833,322.7521810073853C532.4225580383301,322.1486810073853,532.40315803833,321.49208100738525,532.5835580383301,320.87690100738524C532.7639580383301,320.2617010073852,533.13465803833,319.71950100738525,533.6425580383301,319.3283010073853C534.1503580383301,318.9370010073853,534.7692580383301,318.71680100738524,535.4100580383301,318.69940100738523C536.0509580383301,318.68190100738525,536.68085803833,318.86800100738526,537.2092580383301,319.23110100738523C537.7303580383301,319.59470100738525,538.1254580383301,320.11150100738524,538.33985803833,320.70970100738526C538.5541580383301,321.3078810073853,538.57705803833,321.95798100738523,538.40545803833,322.5698810073853Z" fill="#FFFFFF" fill-opacity="1"/></g><g><g filter="url(#master_svg5_60_16394)"><rect x="9" y="6" width="126" height="36" rx="18" fill="#FFFFFF" fill-opacity="1"/></g><path d="M9,21C9,12.7157,15.7157,6,24,6C32.2843,6,39,12.7157,39,21C39,29.2843,32.2843,36,24,36C15.7157,36,9,29.2843,9,21Z" fill-rule="evenodd" fill="#6E7FFC" fill-opacity="1"/><path d="M34.491558038330076,23.440681007385255L34.49145803833008,23.437781007385254C34.47175803833008,22.941601007385252,34.36945803833008,22.452101007385252,34.18875803833008,21.989501007385254C33.466858038330074,19.808201007385254,31.58215803833008,16.676101007385252,29.927258038330077,15.629401007385255L29.144758038330078,14.480201007385254C28.922258038330078,14.058900007385255,28.573558038330077,13.717800007385254,28.14755803833008,13.504500007385253C27.72155803833008,13.291200207385254,27.239558038330077,13.216400107385255,26.768958038330076,13.290500207385254C26.29835803833008,13.364700007385254,25.862758038330078,13.584100007385254,25.522958038330078,13.918000007385254C25.183158038330077,14.251900007385254,24.956258038330077,14.683701007385254,24.87395803833008,15.153001007385253L24.871958038330078,15.154001007385254L24.870858038330077,15.172801007385253C24.86565803833008,15.206301007385253,24.85935803833008,15.239701007385253,24.855158038330078,15.274201007385255L23.142898038330078,15.274201007385255C23.138698038330077,15.239701007385253,23.132498038330077,15.206301007385253,23.12719803833008,15.172801007385253L23.126198038330077,15.154001007385254L23.12409803833008,15.153001007385253C23.04179803833008,14.683701007385254,22.814898038330078,14.251900007385254,22.475198038330078,13.918000007385254C22.135398038330077,13.584100007385254,21.699698038330077,13.364700007385254,21.22909803833008,13.290500207385254C20.758498038330078,13.216400107385255,20.27649803833008,13.291200207385254,19.850498038330077,13.504500007385253C19.42449803833008,13.717800007385254,19.075898038330077,14.058900007385255,18.853298038330077,14.480201007385254L18.07079803833008,15.629401007385255C16.415898038330077,16.676101007385252,14.531198038330079,19.808201007385254,13.809300038330079,21.989501007385254C13.628600038330077,22.452101007385252,13.526299938330078,22.941601007385252,13.506599898330078,23.437781007385254L13.506499768330078,23.440681007385255C13.454999938330078,24.452281007385253,13.708500038330078,25.456181007385254,14.234100038330078,26.322081007385254C14.759798038330079,27.188081007385254,15.533298038330077,27.876281007385252,16.45459803833008,28.297481007385255C17.059498038330076,28.569181007385254,17.71239803833008,28.717981007385255,18.37529803833008,28.735281007385254C19.03819803833008,28.752481007385256,19.697898038330077,28.637781007385254,20.31609803833008,28.39788100738525C20.934298038330077,28.157981007385253,21.498698038330076,27.797681007385254,21.97639803833008,27.337781007385253C22.454198038330077,26.877881007385255,22.835798038330076,26.327581007385255,23.09899803833008,25.718981007385253C23.382498038330077,25.84458100738525,23.689058038330078,25.909481007385253,23.999058038330077,25.909481007385253C24.30905803833008,25.909481007385253,24.61565803833008,25.84458100738525,24.89905803833008,25.718981007385253C25.36645803833008,26.798481007385256,26.198958038330076,27.678981007385254,27.25065803833008,28.20588100738525C28.30225803833008,28.732881007385252,29.50595803833008,28.872781007385253,30.65045803833008,28.600881007385254C31.794858038330077,28.329081007385255,32.80705803833008,27.662981007385255,33.50945803833008,26.719381007385252C34.21185803833008,25.775781007385255,34.55955803833008,24.614981007385254,34.491558038330076,23.440681007385255ZM21.371998038330076,24.712981007385252C21.16239803833008,25.322181007385254,20.76419803833008,25.848681007385252,20.23519803833008,26.21638100738525C19.70619803833008,26.583981007385255,19.07389803833008,26.773581007385253,18.42989803833008,26.757581007385255C17.785898038330078,26.741681007385253,17.16369803833008,26.520981007385252,16.653598038330077,26.127581007385253C16.143398038330076,25.734281007385256,15.771798038330079,25.188681007385256,15.592598038330078,24.569881007385256C15.415998038330079,23.957481007385255,15.436898038330078,23.30498100738525,15.652298038330079,22.705101007385252C15.867698038330078,22.105301007385254,16.26679803833008,21.588601007385254,16.792698038330077,21.228401007385255C17.318498038330077,20.868301007385256,17.944598038330078,20.683101007385254,18.581698038330078,20.699201007385255C19.218898038330078,20.715201007385254,19.834798038330078,20.931701007385254,20.34189803833008,21.317801007385256C20.845698038330077,21.706101007385254,21.21569803833008,22.241901007385252,21.400398038330078,22.850501007385255C21.584998038330077,23.459181007385254,21.575098038330076,24.110281007385254,21.371998038330076,24.712981007385252ZM23.99895803833008,24.812281007385252C23.800258038330078,24.809881007385254,23.606058038330076,24.752081007385254,23.43829803833008,24.645381007385254C23.27059803833008,24.538681007385254,23.135898038330076,24.387381007385255,23.04939803833008,24.208381007385256C22.962998038330078,24.029381007385254,22.928098038330077,23.829781007385254,22.94879803833008,23.632081007385253C22.96949803833008,23.434381007385255,23.04489803833008,23.246401007385252,23.166498038330076,23.089101007385253C23.28819803833008,22.931901007385253,23.45129803833008,22.811701007385253,23.637458038330077,22.74210100738525C23.82365803833008,22.672401007385254,24.02555803833008,22.656101007385253,24.220558038330076,22.694901007385255C24.41545803833008,22.733601007385253,24.59575803833008,22.82600100738525,24.741158038330077,22.961601007385255C24.88655803833008,23.09720100738525,24.991158038330077,23.270681007385253,25.04345803833008,23.462481007385254C25.083158038330076,23.621881007385255,25.08625803833008,23.788181007385255,25.05245803833008,23.948881007385253C25.01865803833008,24.109581007385252,24.94885803833008,24.260581007385255,24.848358038330076,24.390481007385254C24.74785803833008,24.520381007385254,24.61925803833008,24.625781007385253,24.472058038330076,24.698881007385253C24.324958038330077,24.771881007385254,24.163258038330078,24.810681007385256,23.99895803833008,24.812281007385252ZM32.40545803833008,24.569881007385256C32.22775803833008,25.185881007385255,31.85945803833008,25.729681007385253,31.35325803833008,26.123181007385256C30.84715803833008,26.516581007385255,30.229258038330077,26.739481007385255,29.588458038330078,26.759781007385254C28.947658038330076,26.780081007385256,28.31695803833008,26.596681007385254,27.786958038330077,26.235881007385252C27.256958038330076,25.875181007385255,26.85495803833008,25.355781007385254,26.638758038330078,24.752181007385254C26.422558038330077,24.148681007385253,26.403158038330076,23.492081007385252,26.58355803833008,22.876901007385253C26.763958038330077,22.261701007385255,27.13465803833008,21.719501007385254,27.64255803833008,21.328301007385253C28.150358038330076,20.937001007385255,28.76925803833008,20.716801007385254,29.410058038330078,20.699401007385255C30.050958038330077,20.681901007385253,30.68085803833008,20.868001007385253,31.209258038330077,21.231101007385256C31.730358038330078,21.594701007385254,32.12545803833008,22.111501007385254,32.33985803833008,22.709701007385256C32.55415803833008,23.307881007385255,32.57705803833008,23.957981007385253,32.40545803833008,24.569881007385256Z" fill="#FFFFFF" fill-opacity="1"/></g><g><g filter="url(#master_svg6_60_16409)"><rect x="0" y="169" width="126" height="36" rx="18" fill="#FFFFFF" fill-opacity="1"/></g><path d="M0,184C0,175.7157,6.7157,169,15,169C23.2843,169,30,175.7157,30,184C30,192.2843,23.2843,199,15,199C6.7157,199,0,192.2843,0,184Z" fill-rule="evenodd" fill="#6E7FFC" fill-opacity="1"/><path d="M25.491558038330076,186.44068100738525L25.491458038330077,186.43778100738524C25.47175803833008,185.94160100738526,25.369458038330077,185.45210100738527,25.18875803833008,184.98950100738526C24.466858038330077,182.80820100738526,22.58215803833008,179.67610100738526,20.927258038330077,178.62940100738524L20.144758038330078,177.48020100738526C19.922258038330078,177.05890000738526,19.573558038330077,176.71780000738525,19.14755803833008,176.50450000738525C18.72155803833008,176.29120020738526,18.239558038330077,176.21640010738525,17.768958038330076,176.29050020738526C17.29835803833008,176.36470000738527,16.862758038330078,176.58410000738525,16.522958038330078,176.91800000738525C16.183158038330077,177.25190000738525,15.956258038330079,177.68370100738525,15.873958038330079,178.15300100738526L15.871958038330078,178.15400100738526L15.870858038330079,178.17280100738526C15.865658038330078,178.20630100738526,15.859358038330079,178.23970100738526,15.855158038330078,178.27420100738524L14.142898038330078,178.27420100738524C14.138698038330078,178.23970100738526,14.132498038330079,178.20630100738526,14.127198038330079,178.17280100738526L14.126198038330077,178.15400100738526L14.124098038330079,178.15300100738526C14.041798038330079,177.68370100738525,13.814898038330078,177.25190000738525,13.475198038330078,176.91800000738525C13.135398038330077,176.58410000738525,12.699698038330078,176.36470000738527,12.22909803833008,176.29050020738526C11.758498038330078,176.21640010738525,11.276498038330079,176.29120020738526,10.850498038330077,176.50450000738525C10.424498038330078,176.71780000738525,10.075898038330077,177.05890000738526,9.853298038330077,177.48020100738526L9.070798038330079,178.62940100738524C7.415898038330078,179.67610100738526,5.5311980383300785,182.80820100738526,4.809300038330078,184.98950100738526C4.628600038330078,185.45210100738527,4.526299938330078,185.94160100738526,4.506599898330078,186.43778100738524L4.5064997683300785,186.44068100738525C4.4549999383300785,187.45228100738527,4.708500038330078,188.45618100738525,5.234100038330078,189.32208100738526C5.759798038330079,190.18808100738525,6.533298038330078,190.87628100738524,7.454598038330078,191.29748100738524C8.059498038330078,191.56918100738525,8.712398038330079,191.71798100738525,9.375298038330078,191.73528100738525C10.038198038330078,191.75248100738526,10.697898038330077,191.63778100738526,11.316098038330079,191.39788100738525C11.934298038330077,191.15798100738525,12.498698038330078,190.79768100738525,12.976398038330078,190.33778100738525C13.454198038330079,189.87788100738524,13.835798038330077,189.32758100738525,14.098998038330079,188.71898100738525C14.382498038330079,188.84458100738524,14.689058038330078,188.90948100738527,14.999058038330078,188.90948100738527C15.309058038330079,188.90948100738527,15.615658038330078,188.84458100738524,15.899058038330079,188.71898100738525C16.36645803833008,189.79848100738525,17.198958038330076,190.67898100738526,18.25065803833008,191.20588100738524C19.30225803833008,191.73288100738526,20.50595803833008,191.87278100738524,21.65045803833008,191.60088100738525C22.794858038330077,191.32908100738524,23.807058038330076,190.66298100738524,24.509458038330077,189.71938100738527C25.211858038330078,188.77578100738526,25.559558038330078,187.61498100738527,25.491558038330076,186.44068100738525ZM12.371998038330078,187.71298100738525C12.162398038330078,188.32218100738527,11.764198038330079,188.84868100738527,11.23519803833008,189.21638100738525C10.70619803833008,189.58398100738526,10.073898038330078,189.77358100738525,9.429898038330078,189.75758100738526C8.785898038330078,189.74168100738524,8.163698038330079,189.52098100738525,7.653598038330078,189.12758100738526C7.143398038330078,188.73428100738525,6.771798038330078,188.18868100738524,6.5925980383300775,187.56988100738525C6.415998038330078,186.95748100738524,6.436898038330078,186.30498100738527,6.652298038330079,185.70510100738525C6.867698038330078,185.10530100738526,7.266798038330078,184.58860100738525,7.792698038330078,184.22840100738526C8.318498038330079,183.86830100738524,8.944598038330078,183.68310100738526,9.581698038330078,183.69920100738526C10.218898038330078,183.71520100738525,10.834798038330078,183.93170100738524,11.34189803833008,184.31780100738524C11.845698038330077,184.70610100738526,12.215698038330078,185.24190100738525,12.400398038330078,185.85050100738525C12.584998038330077,186.45918100738527,12.575098038330077,187.11028100738525,12.371998038330078,187.71298100738525ZM14.998958038330079,187.81228100738525C14.800258038330078,187.80988100738526,14.606058038330078,187.75208100738524,14.438298038330078,187.64538100738525C14.270598038330078,187.53868100738526,14.135898038330078,187.38738100738524,14.049398038330079,187.20838100738524C13.962998038330078,187.02938100738527,13.928098038330079,186.82978100738526,13.948798038330079,186.63208100738527C13.969498038330078,186.43438100738524,14.044898038330079,186.24640100738526,14.166498038330078,186.08910100738527C14.288198038330078,185.93190100738525,14.451298038330078,185.81170100738527,14.637458038330077,185.74210100738526C14.823658038330079,185.67240100738525,15.025558038330079,185.65610100738525,15.220558038330077,185.69490100738525C15.415458038330078,185.73360100738526,15.595758038330079,185.82600100738526,15.741158038330077,185.96160100738524C15.886558038330078,186.09720100738525,15.991158038330077,186.27068100738526,16.04345803833008,186.46248100738526C16.083158038330076,186.62188100738524,16.08625803833008,186.78818100738525,16.05245803833008,186.94888100738524C16.01865803833008,187.10958100738526,15.948858038330078,187.26058100738524,15.848358038330078,187.39048100738526C15.747858038330078,187.52038100738525,15.619258038330079,187.62578100738526,15.472058038330077,187.69888100738524C15.324958038330077,187.77188100738525,15.163258038330078,187.81068100738526,14.998958038330079,187.81228100738525ZM23.405458038330078,187.56988100738525C23.227758038330077,188.18588100738526,22.85945803833008,188.72968100738527,22.35325803833008,189.12318100738526C21.84715803833008,189.51658100738524,21.229258038330077,189.73948100738525,20.588458038330078,189.75978100738524C19.947658038330076,189.78008100738526,19.31695803833008,189.59668100738526,18.786958038330077,189.23588100738525C18.256958038330076,188.87518100738527,17.85495803833008,188.35578100738525,17.638758038330078,187.75218100738525C17.422558038330077,187.14868100738525,17.403158038330076,186.49208100738525,17.58355803833008,185.87690100738524C17.763958038330077,185.26170100738526,18.13465803833008,184.71950100738525,18.64255803833008,184.32830100738525C19.150358038330076,183.93700100738525,19.76925803833008,183.71680100738524,20.410058038330078,183.69940100738526C21.050958038330077,183.68190100738525,21.68085803833008,183.86800100738526,22.209258038330077,184.23110100738526C22.730358038330078,184.59470100738525,23.125458038330077,185.11150100738524,23.339858038330078,185.70970100738526C23.55415803833008,186.30788100738525,23.57705803833008,186.95798100738526,23.405458038330078,187.56988100738525Z" fill="#FFFFFF" fill-opacity="1"/></g></g></g></g><g style="mix-blend-mode:passthrough"><g><path d="M38.551,24.6286C36.5475,32.6642,28.4077,37.5547,20.3701,35.551C12.33579,33.5475,7.44482,25.4081,9.449277,17.3729C11.451979999999999,9.336269999999999,19.5918,4.4454899999999995,27.627,6.448852C35.6639,8.452210000000001,40.5547,16.5925,38.551,24.6287L38.551,24.6286Z" fill="#F3BA2F" fill-opacity="1"/><path d="M24.001651700592042,15.519995708465576L20.117081700592042,19.404135708465574L20.11715170059204,19.403985708465576L17.85698170059204,17.143985708465575L24.001651700592042,10.999995708465576L30.14835170059204,17.145835708465576L27.88805170059204,19.405835708465574L24.001651700592042,15.519995708465576ZM16.26087170059204,18.739585708465576L14.000551700592041,20.999985708465577L16.26072170059204,23.259595708465575L18.52105170059204,20.999515708465577L16.26087170059204,18.739585708465576ZM20.117081700592042,22.596095708465576L24.001651700592042,26.479995708465577L27.88805170059204,22.594195708465577L30.149451700592042,24.852995708465578L30.14835170059204,24.854195708465575L24.001651700592042,30.999995708465576L17.85698170059204,24.855995708465578L17.85378170059204,24.852795708465578L20.117081700592042,22.596095708465576ZM31.742551700592042,18.740865708465577L29.48225170059204,21.000895708465578L31.742551700592042,23.260895708465576L34.00275170059204,21.000795708465574L31.742551700592042,18.740865708465577Z" fill-rule="evenodd" fill="#FFFFFF" fill-opacity="1"/></g></g><g style="mix-blend-mode:passthrough"><g><path d="M151.551,325.6286C149.5475,333.6642,141.4077,338.5547,133.3701,336.551C125.33579,334.5475,120.44481999999999,326.4081,122.449277,318.3729C124.45198,310.33627,132.5918,305.44549,140.627,307.448852C148.6639,309.45221,153.5547,317.5925,151.551,325.6287L151.551,325.6286Z" fill="#F3BA2F" fill-opacity="1"/><path d="M137.00165170059205,316.51999570846556L133.11708170059205,320.40413570846556L133.11715170059205,320.4039857084656L130.85698170059203,318.14398570846555L137.00165170059205,311.9999957084656L143.14835170059203,318.1458357084656L140.88805170059203,320.4058357084656L137.00165170059205,316.51999570846556ZM129.26087170059205,319.7395857084656L127.00055170059204,321.9999857084656L129.26072170059203,324.25959570846555L131.52105170059204,321.9995157084656L129.26087170059205,319.7395857084656ZM133.11708170059205,323.59609570846555L137.00165170059205,327.4799957084656L140.88805170059203,323.5941957084656L143.14945170059204,325.8529957084656L143.14835170059203,325.85419570846557L137.00165170059205,331.9999957084656L130.85698170059203,325.85599570846557L130.85378170059204,325.8527957084656L133.11708170059205,323.59609570846555ZM144.74255170059203,319.74086570846555L142.48225170059203,322.0008957084656L144.74255170059203,324.26089570846557L147.00275170059203,322.0007957084656L144.74255170059203,319.74086570846555Z" fill-rule="evenodd" fill="#FFFFFF" fill-opacity="1"/></g></g><g style="mix-blend-mode:passthrough"><g><path d="M544.551,322.6286C542.5475,330.6642,534.4077,335.5547,526.3701,333.551C518.33579,331.5475,513.44482,323.4081,515.449277,315.3729C517.45198,307.33627,525.5918,302.44549,533.627,304.448852C541.6639,306.45221,546.5547,314.5925,544.551,322.6287L544.551,322.6286Z" fill="#F3BA2F" fill-opacity="1"/><path d="M530.001651700592,313.51999570846556L526.117081700592,317.40413570846556L526.117151700592,317.4039857084656L523.8569817005921,315.14398570846555L530.001651700592,308.9999957084656L536.148351700592,315.1458357084656L533.8880517005921,317.4058357084656L530.001651700592,313.51999570846556ZM522.260871700592,316.7395857084656L520.000551700592,318.9999857084656L522.2607217005921,321.25959570846555L524.521051700592,318.9995157084656L522.260871700592,316.7395857084656ZM526.117081700592,320.59609570846555L530.001651700592,324.4799957084656L533.8880517005921,320.5941957084656L536.1494517005921,322.8529957084656L536.148351700592,322.85419570846557L530.001651700592,328.9999957084656L523.8569817005921,322.85599570846557L523.8537817005921,322.8527957084656L526.117081700592,320.59609570846555ZM537.742551700592,316.74086570846555L535.4822517005921,319.0008957084656L537.742551700592,321.26089570846557L540.0027517005921,319.0007957084656L537.742551700592,316.74086570846555Z" fill-rule="evenodd" fill="#FFFFFF" fill-opacity="1"/></g></g><g style="mix-blend-mode:passthrough"><g><path d="M701.551,184.6286C699.5475,192.6642,691.4077,197.5547,683.3701,195.551C675.33579,193.5475,670.44482,185.4081,672.449277,177.3729C674.45198,169.33627,682.5918,164.44549,690.627,166.448852C698.6639,168.45221,703.5547,176.5925,701.551,184.6287L701.551,184.6286Z" fill="#F3BA2F" fill-opacity="1"/><path d="M687.001651700592,175.5199957084656L683.117081700592,179.4041357084656L683.117151700592,179.40398570846557L680.8569817005921,177.14398570846558L687.001651700592,170.99999570846558L693.148351700592,177.14583570846557L690.8880517005921,179.4058357084656L687.001651700592,175.5199957084656ZM679.260871700592,178.73958570846557L677.000551700592,180.99998570846557L679.2607217005921,183.25959570846558L681.521051700592,180.99951570846557L679.260871700592,178.73958570846557ZM683.117081700592,182.59609570846558L687.001651700592,186.47999570846557L690.8880517005921,182.59419570846558L693.1494517005921,184.85299570846558L693.148351700592,184.85419570846557L687.001651700592,190.99999570846558L680.8569817005921,184.85599570846557L680.8537817005921,184.85279570846558L683.117081700592,182.59609570846558ZM694.742551700592,178.74086570846558L692.4822517005921,181.00089570846558L694.742551700592,183.26089570846557L697.0027517005921,181.00079570846557L694.742551700592,178.74086570846558Z" fill-rule="evenodd" fill="#FFFFFF" fill-opacity="1"/></g></g><g style="mix-blend-mode:passthrough"><g><path d="M717.551,43.6286C715.5475,51.6642,707.4077,56.5547,699.3701,54.551C691.33579,52.5475,686.44482,44.408100000000005,688.449277,36.3729C690.45198,28.33627,698.5918,23.44549,706.627,25.448852C714.6639,27.45221,719.5547,35.5925,717.551,43.628699999999995L717.551,43.6286Z" fill="#F3BA2F" fill-opacity="1"/><path d="M703.001651700592,34.51999570846557L699.117081700592,38.404135708465574L699.117151700592,38.40398570846558L696.8569817005921,36.14398570846558L703.001651700592,29.999995708465576L709.148351700592,36.145835708465576L706.8880517005921,38.405835708465574L703.001651700592,34.51999570846557ZM695.260871700592,37.739585708465576L693.000551700592,39.99998570846557L695.2607217005921,42.259595708465575L697.521051700592,39.99951570846558L695.260871700592,37.739585708465576ZM699.117081700592,41.596095708465576L703.001651700592,45.47999570846558L706.8880517005921,41.59419570846558L709.1494517005921,43.85299570846558L709.148351700592,43.854195708465575L703.001651700592,49.999995708465576L696.8569817005921,43.85599570846558L696.8537817005921,43.85279570846558L699.117081700592,41.596095708465576ZM710.742551700592,37.74086570846558L708.4822517005921,40.00089570846558L710.742551700592,42.260895708465576L713.0027517005921,40.000795708465574L710.742551700592,37.74086570846558Z" fill-rule="evenodd" fill="#FFFFFF" fill-opacity="1"/></g></g><g style="mix-blend-mode:passthrough"><g><path d="M358.551,18.6286C356.5475,26.6642,348.4077,31.5547,340.3701,29.551C332.33579,27.5475,327.44482,19.4081,329.449277,11.3729C331.45198,3.33627,339.5918,-1.55451,347.627,0.448852C355.6639,2.45221,360.5547,10.5925,358.551,18.6287L358.551,18.6286Z" fill="url(#master_svg7_60_16702)" fill-opacity="1"/><path d="M350.61497982559206,12.862915309753419C350.913579825592,10.86674530975342,349.39357982559204,9.793725309753418,347.31527982559203,9.077925309753418L347.989479825592,6.373925309753417L346.34327982559205,5.963775309753418L345.68696982559203,8.596575309753419C345.25418982559205,8.488645309753418,344.809769825592,8.386975309753417,344.36804982559204,8.286145309753419L345.029169825592,5.635975309753418L343.38398982559204,5.225825309753418L342.70938982559204,7.928945309753418C342.35126982559206,7.847395309753418,341.99950982559204,7.766825309753418,341.65824982559207,7.681925309753418L341.66014982559204,7.6734253097534175L339.39004982559203,7.106595309753418L338.95211982559204,8.864625309753418Q340.17345982559203,9.144575309753417,340.147729825592,9.161795309753419C340.81432982559204,9.328145309753417,340.93488982559205,9.769375309753418,340.91485982559203,10.119125309753418L340.146849825592,13.199595309753418C340.19272982559204,13.21124530975342,340.252289825592,13.228115309753418,340.31799982559204,13.254515309753417L340.27023982559206,13.242595309753417C340.22955982559205,13.232415309753417,340.18732982559203,13.221845309753418,340.14397982559206,13.211465309753418L339.06745982559204,17.52682530975342C338.98599982559205,17.72932530975342,338.77922982559204,18.03322530975342,338.31314982559206,17.917825309753418Q338.329649825592,17.941725309753416,337.11669482559205,17.619225309753418L336.29937982559204,19.503325309753418L338.44163982559206,20.03732530975342C338.67621982559206,20.096225309753418,338.908019825592,20.156625309753416,339.13746982559206,20.21642530975342L339.137939825592,20.21652530975342C339.29815982559205,20.258325309753417,339.45722982559204,20.29972530975342,339.61529982559205,20.340125309753418L338.93409982559206,23.075125309753417L340.57837982559204,23.485325309753417L341.25297982559204,20.779325309753418C341.70217982559205,20.901225309753418,342.13809982559206,21.01372530975342,342.56486982559204,21.11972530975342L341.89251982559205,23.812925309753417L343.53877982559203,24.223125309753417L344.21992982559203,21.493225309753416C347.02697982559204,22.02442530975342,349.13767982559204,21.810225309753417,350.02617982559207,19.271525309753418C350.74207982559204,17.227525309753418,349.99047982559205,16.04862530975342,348.513679825592,15.279825309753418C349.58937982559206,15.031745309753418,350.399579825592,14.324365309753418,350.615579825592,12.863145309753417L350.61507982559203,12.862765309753417L350.61497982559206,12.862915309753419ZM346.853779825592,18.13642530975342C346.387079825592,20.011725309753416,343.45138982559206,19.236425309753418,342.10824982559205,18.88172530975342C341.98740982559207,18.84982530975342,341.879469825592,18.82132530975342,341.787389825592,18.79842530975342L342.69135982559203,15.175015309753418C342.803599825592,15.203045309753419,342.94073982559206,15.233825309753417,343.09609982559203,15.268625309753418C344.48547982559205,15.580425309753418,347.33197982559204,16.21922530975342,346.85387982559206,18.13642530975342L346.853779825592,18.13642530975342ZM343.374809825592,13.586995309753418C344.494629825592,13.885815309753418,346.93747982559205,14.537695309753419,347.362879825592,12.833295309753417L347.363079825592,12.833295309753417C347.79747982559206,11.090115309753418,345.42345982559203,10.564575309753419,344.26395982559205,10.307895309753418C344.13351982559203,10.279025309753418,344.01845982559206,10.253545309753418,343.924499825592,10.230125309753419L343.104909825592,13.516315309753418C343.182289825592,13.535615309753418,343.27309982559206,13.559845309753419,343.374809825592,13.586995309753418Z" fill-rule="evenodd" fill="#FFFFFF" fill-opacity="1"/></g></g><g style="mix-blend-mode:passthrough"><g><path d="M29.551,187.6286C27.5475,195.6642,19.4077,200.5547,11.3701,198.551C3.33579,196.5475,-1.55518,188.4081,0.449277,180.3729C2.45198,172.33627,10.5918,167.44549,18.627,169.448852C26.6639,171.45221,31.5547,179.5925,29.551,187.6287L29.551,187.6286Z" fill="#50AF95" fill-opacity="1"/><path d="M16.899974478149414,185.70053350738525C16.793874478149412,185.70848350738527,16.245774478149414,185.74118350738524,15.023304478149415,185.74118350738524C14.050944478149415,185.74118350738524,13.360574478149413,185.71203350738526,13.118374478149414,185.70053350738525C9.360654478149414,185.53526350738525,6.555847478149414,184.88118350738526,6.555847478149414,184.09808350738524C6.555847478149414,183.31498350738525,9.360654478149414,182.66181350738526,13.118374478149414,182.49388350738525L13.118374478149414,185.04913350738525C13.364124478149414,185.06681350738526,14.067754478149414,185.10836350738526,15.040104478149415,185.10836350738526C16.206974478149412,185.10836350738526,16.791274478149415,185.05973350738526,16.89637447814941,185.05001350738524L16.89637447814941,182.49566350738525C20.646174478149412,182.66271350738526,23.444774478149412,183.31676350738525,23.444774478149412,184.09808350738524C23.444774478149412,184.87943350738524,20.647074478149413,185.53348350738526,16.89637447814941,185.69966350738525L16.899974478149414,185.70053350738525ZM16.899974478149414,182.23138350738526L16.899974478149414,179.94481350738525L22.132974478149414,179.94481350738525L22.132974478149414,176.45799350738525L7.885314478149414,176.45799350738525L7.885314478149414,179.94481350738525L13.117494478149414,179.94481350738525L13.117494478149414,182.23048350738526C8.864754478149415,182.42583350738525,5.666574478149414,183.26813350738524,5.666574478149414,184.27751350738527C5.666574478149414,185.28688350738526,8.864754478149415,186.12833350738526,13.117494478149414,186.32453350738524L13.117494478149414,193.65179350738526L16.899074478149416,193.65179350738526L16.899074478149416,186.32188350738525C21.142074478149414,186.12656350738524,24.334974478149412,185.28511350738526,24.334974478149412,184.27663350738524C24.334974478149412,183.26813350738524,21.144774478149415,182.42671350738524,16.899074478149416,182.23048350738526L16.899974478149414,182.23138350738526Z" fill-rule="evenodd" fill="#FFFFFF" fill-opacity="1"/></g></g><g style="mix-blend-mode:passthrough"><path d="M52.16016,19.473L49.96387,19.473L49.96387,17.3063L47.96224,17.3063L47.96224,19.473L45.753255,19.473L45.753255,21.3731L47.96224,21.3731L47.96224,23.5186L49.96387,23.5186L49.96387,21.3731L52.16016,21.3731L52.16016,19.473ZM57.3102,25.4313C59.625,25.4313,61.3177,23.7048,61.3177,20.5563C61.3177,17.412100000000002,59.625,15.68133,57.3102,15.68133C54.982749999999996,15.68133,53.29427,17.412100000000002,53.29427,20.5563C53.29427,23.7048,54.982749999999996,25.4313,57.3102,25.4313ZM57.3102,23.3281C56.4808,23.3281,55.8799,22.5749,55.8799,20.5563C55.8799,18.542,56.4808,17.788800000000002,57.3102,17.788800000000002C58.1312,17.788800000000002,58.7279,18.542,58.7279,20.5563C58.7279,22.5749,58.1312,23.3281,57.3102,23.3281ZM63.623999999999995,25.4313C64.4661,25.4313,65.1051,24.822,65.1051,23.9629C65.1051,23.0785,64.4661,22.5072,63.623999999999995,22.5072C62.790400000000005,22.5072,62.1387,23.0785,62.1387,23.9629C62.1387,24.822,62.790400000000005,25.4313,63.623999999999995,25.4313ZM65.65950000000001,15.95217L65.65950000000001,17.9453L67.348,17.9453L67.348,25.1605L69.9251,25.1605L69.9251,15.95217L65.65950000000001,15.95217ZM82.4216,20.332C83.20439999999999,19.925800000000002,83.6445,19.223300000000002,83.6445,18.338900000000002C83.6445,16.9297,82.47659999999999,15.95217,80.0814,15.95217L75.4307,15.95217L75.4307,25.1605L80.3438,25.1605C82.7855,25.1605,84.0889,24.238,84.0889,22.6384C84.0889,21.4789,83.4499,20.695999999999998,82.4216,20.332ZM79.7471,17.8141C80.6019,17.8141,81.0462,18.1146,81.0462,18.6944C81.0462,19.2868,80.6019,19.5915,79.7471,19.5915L77.9782,19.5915L77.9782,17.8141L79.7471,17.8141ZM80.13640000000001,23.3028L77.9782,23.3028L77.9782,21.3688L80.13640000000001,21.3688C81.02080000000001,21.3688,81.4863,21.682000000000002,81.4863,22.3379C81.4863,22.9896,81.02080000000001,23.3028,80.13640000000001,23.3028ZM91.58760000000001,15.95217L91.58760000000001,20.861L87.56739999999999,15.95217L85.45150000000001,15.95217L85.45150000000001,25.1605L87.9736,25.1605L87.9736,20.2559L91.9896,25.1605L94.1097,25.1605L94.1097,15.95217L91.58760000000001,15.95217ZM103.00489999999999,20.332C103.7878,19.925800000000002,104.2279,19.223300000000002,104.2279,18.338900000000002C104.2279,16.9297,103.0599,15.95217,100.66470000000001,15.95217L96.01400000000001,15.95217L96.01400000000001,25.1605L100.9271,25.1605C103.3688,25.1605,104.6722,24.238,104.6722,22.6384C104.6722,21.4789,104.0332,20.695999999999998,103.00489999999999,20.332ZM100.3304,17.8141C101.18520000000001,17.8141,101.62960000000001,18.1146,101.62960000000001,18.6944C101.62960000000001,19.2868,101.18520000000001,19.5915,100.3304,19.5915L98.5615,19.5915L98.5615,17.8141L100.3304,17.8141ZM100.7197,23.3028L98.5615,23.3028L98.5615,21.3688L100.7197,21.3688C101.60419999999999,21.3688,102.0697,21.682000000000002,102.0697,22.3379C102.0697,22.9896,101.60419999999999,23.3028,100.7197,23.3028Z" fill="#3D3D3D" fill-opacity="1"/></g><g style="mix-blend-mode:passthrough"><path d="M733.16016,38.473L730.96387,38.473L730.96387,36.3063L728.96224,36.3063L728.96224,38.473L726.753255,38.473L726.753255,40.3731L728.96224,40.3731L728.96224,42.5186L730.96387,42.5186L730.96387,40.3731L733.16016,40.3731L733.16016,38.473ZM738.3102,44.4313C740.625,44.4313,742.3177,42.7048,742.3177,39.5563C742.3177,36.4121,740.625,34.68133,738.3102,34.68133C735.98275,34.68133,734.29427,36.4121,734.29427,39.5563C734.29427,42.7048,735.98275,44.4313,738.3102,44.4313ZM738.3102,42.3281C737.4808,42.3281,736.8799,41.5749,736.8799,39.5563C736.8799,37.542,737.4808,36.7888,738.3102,36.7888C739.1312,36.7888,739.7279,37.542,739.7279,39.5563C739.7279,41.5749,739.1312,42.3281,738.3102,42.3281ZM744.624,44.4313C745.4661,44.4313,746.1051,43.822,746.1051,42.962900000000005C746.1051,42.0785,745.4661,41.5072,744.624,41.5072C743.7904,41.5072,743.1387,42.0785,743.1387,42.962900000000005C743.1387,43.822,743.7904,44.4313,744.624,44.4313ZM746.6595,34.95217L746.6595,36.9453L748.348,36.9453L748.348,44.1605L750.9251,44.1605L750.9251,34.95217L746.6595,34.95217ZM763.4216,39.332C764.2044,38.9258,764.6445,38.2233,764.6445,37.3389C764.6445,35.9297,763.4766,34.95217,761.0814,34.95217L756.4307,34.95217L756.4307,44.1605L761.3438,44.1605C763.7855,44.1605,765.0889,43.238,765.0889,41.638400000000004C765.0889,40.478899999999996,764.4499,39.696,763.4216,39.332ZM760.7471,36.814099999999996C761.6019,36.814099999999996,762.0462,37.114599999999996,762.0462,37.6944C762.0462,38.2868,761.6019,38.591499999999996,760.7471,38.591499999999996L758.9782,38.591499999999996L758.9782,36.814099999999996L760.7471,36.814099999999996ZM761.1364,42.302800000000005L758.9782,42.302800000000005L758.9782,40.3688L761.1364,40.3688C762.0208,40.3688,762.4863,40.682,762.4863,41.337900000000005C762.4863,41.989599999999996,762.0208,42.302800000000005,761.1364,42.302800000000005ZM772.5876,34.95217L772.5876,39.861000000000004L768.5674,34.95217L766.4515,34.95217L766.4515,44.1605L768.9736,44.1605L768.9736,39.2559L772.9896,44.1605L775.1097,44.1605L775.1097,34.95217L772.5876,34.95217ZM784.0049,39.332C784.7878,38.9258,785.2279,38.2233,785.2279,37.3389C785.2279,35.9297,784.0599,34.95217,781.6647,34.95217L777.014,34.95217L777.014,44.1605L781.9271,44.1605C784.3688,44.1605,785.6722,43.238,785.6722,41.638400000000004C785.6722,40.478899999999996,785.0332,39.696,784.0049,39.332ZM781.3304,36.814099999999996C782.1852,36.814099999999996,782.6296,37.114599999999996,782.6296,37.6944C782.6296,38.2868,782.1852,38.591499999999996,781.3304,38.591499999999996L779.5615,38.591499999999996L779.5615,36.814099999999996L781.3304,36.814099999999996ZM781.7197,42.302800000000005L779.5615,42.302800000000005L779.5615,40.3688L781.7197,40.3688C782.6042,40.3688,783.0697,40.682,783.0697,41.337900000000005C783.0697,41.989599999999996,782.6042,42.302800000000005,781.7197,42.302800000000005Z" fill="#3D3D3D" fill-opacity="1"/></g><g style="mix-blend-mode:passthrough"><path d="M374.16016,14.473L371.96387,14.473L371.96387,12.3063L369.96224,12.3063L369.96224,14.473L367.753255,14.473L367.753255,16.3731L369.96224,16.3731L369.96224,18.5186L371.96387,18.5186L371.96387,16.3731L374.16016,16.3731L374.16016,14.473ZM379.3102,20.4313C381.625,20.4313,383.3177,18.7048,383.3177,15.5563C383.3177,12.4121,381.625,10.68133,379.3102,10.68133C376.98275,10.68133,375.29427,12.4121,375.29427,15.5563C375.29427,18.7048,376.98275,20.4313,379.3102,20.4313ZM379.3102,18.3281C378.4808,18.3281,377.8799,17.5749,377.8799,15.5563C377.8799,13.542,378.4808,12.7888,379.3102,12.7888C380.1312,12.7888,380.7279,13.542,380.7279,15.5563C380.7279,17.5749,380.1312,18.3281,379.3102,18.3281ZM385.624,20.4313C386.4661,20.4313,387.1051,19.822,387.1051,18.9629C387.1051,18.0785,386.4661,17.5072,385.624,17.5072C384.7904,17.5072,384.1387,18.0785,384.1387,18.9629C384.1387,19.822,384.7904,20.4313,385.624,20.4313ZM392.0394,20.4313C394.3542,20.4313,396.0469,18.7048,396.0469,15.5563C396.0469,12.4121,394.3542,10.68133,392.0394,10.68133C389.7119,10.68133,388.0234,12.4121,388.0234,15.5563C388.0234,18.7048,389.7119,20.4313,392.0394,20.4313ZM392.0394,18.3281C391.21,18.3281,390.6091,17.5749,390.6091,15.5563C390.6091,13.542,391.21,12.7888,392.0394,12.7888C392.8604,12.7888,393.457,13.542,393.457,15.5563C393.457,17.5749,392.8604,18.3281,392.0394,18.3281ZM400.9769,20.4313C403.2917,20.4313,404.9844,18.7048,404.9844,15.5563C404.9844,12.4121,403.2917,10.68133,400.9769,10.68133C398.6494,10.68133,396.9609,12.4121,396.9609,15.5563C396.9609,18.7048,398.6494,20.4313,400.9769,20.4313ZM400.9769,18.3281C400.1475,18.3281,399.5466,17.5749,399.5466,15.5563C399.5466,13.542,400.1475,12.7888,400.9769,12.7888C401.7979,12.7888,402.3945,13.542,402.3945,15.5563C402.3945,17.5749,401.7979,18.3281,400.9769,18.3281ZM409.9144,20.4313C412.2292,20.4313,413.9219,18.7048,413.9219,15.5563C413.9219,12.4121,412.2292,10.68133,409.9144,10.68133C407.5869,10.68133,405.8984,12.4121,405.8984,15.5563C405.8984,18.7048,407.5869,20.4313,409.9144,20.4313ZM409.9144,18.3281C409.085,18.3281,408.4841,17.5749,408.4841,15.5563C408.4841,13.542,409.085,12.7888,409.9144,12.7888C410.7354,12.7888,411.332,13.542,411.332,15.5563C411.332,17.5749,410.7354,18.3281,409.9144,18.3281ZM418.361,18.1208L420.0749,16.474600000000002C421.374,15.2347,421.6237,14.3968,421.6237,13.4785C421.6237,11.7604,420.1807,10.68133,418.0859,10.68133C416.2917,10.68133,415.0052,11.4388,414.3154,12.5814L416.2282,13.6817C416.5921,13.0723,417.1888,12.7634,417.8532,12.7634C418.6318,12.7634,419.0212,13.1273,419.0212,13.7367C419.0212,14.126,418.9196,14.5576,418.19169999999997,15.2601L414.78520000000003,18.5524L414.78520000000003,20.1605L421.8691,20.1605L421.8691,18.1208L418.361,18.1208ZM433.9424,15.332C434.7253,14.9258,435.1654,14.2233,435.1654,13.3389C435.1654,11.9297,433.99739999999997,10.95217,431.6022,10.95217L426.9515,10.95217L426.9515,20.1605L431.8646,20.1605C434.30629999999996,20.1605,435.6097,19.238,435.6097,17.6384C435.6097,16.4789,434.97069999999997,15.696,433.9424,15.332ZM431.2679,12.8141C432.1227,12.8141,432.5671,13.1146,432.5671,13.6944C432.5671,14.2868,432.1227,14.5915,431.2679,14.5915L429.499,14.5915L429.499,12.8141L431.2679,12.8141ZM431.6572,18.3028L429.499,18.3028L429.499,16.3688L431.6572,16.3688C432.5417,16.3688,433.0072,16.682000000000002,433.0072,17.3379C433.0072,17.9896,432.5417,18.3028,431.6572,18.3028ZM438.9063,20.1605L441.4834,20.1605L441.4834,12.9961L444.2637,12.9961L444.2637,10.95217L436.1133,10.95217L436.1133,12.9961L438.9063,12.9961L438.9063,20.1605ZM449.6338,20.4313C451.3096,20.4313,452.6637,19.822,453.5482,18.7175L451.9063,17.1771C451.335,17.905,450.6325,18.3028,449.765,18.3028C448.2669,18.3028,447.2259,17.2025,447.2259,15.5563C447.2259,13.9102,448.2669,12.8141,449.765,12.8141C450.6325,12.8141,451.335,13.2119,451.9063,13.9398L453.5482,12.5772C452.6637,11.2949,451.3096,10.68133,449.6338,10.68133C446.7477,10.68133,444.62760000000003,12.6449,444.62760000000003,15.5563C444.62760000000003,18.472,446.7477,20.4313,449.6338,20.4313Z" fill="#3D3D3D" fill-opacity="1"/></g><g style="mix-blend-mode:passthrough"><path d="M41.16016,181.473L38.96387,181.473L38.96387,179.3063L36.96224,179.3063L36.96224,181.473L34.753255,181.473L34.753255,183.3731L36.96224,183.3731L36.96224,185.5186L38.96387,185.5186L38.96387,183.3731L41.16016,183.3731L41.16016,181.473ZM41.93034,177.95217L41.93034,179.9453L43.61882,179.9453L43.61882,187.1605L46.196,187.1605L46.196,177.95217L41.93034,177.95217ZM48.8324,187.4313C49.6745,187.4313,50.313500000000005,186.822,50.313500000000005,185.9629C50.313500000000005,185.0785,49.6745,184.5072,48.8324,184.5072C47.9987,184.5072,47.347,185.0785,47.347,185.9629C47.347,186.822,47.9987,187.4313,48.8324,187.4313ZM51.087900000000005,177.95217L51.087900000000005,181.4222L53.2842,181.4222L53.2842,179.9961L55.6794,179.9961L52.6113,187.1605L55.417,187.1605L58.6289,179.5645L58.6289,177.95217L51.087900000000005,177.95217ZM67.8161,187.4313C70.5075,187.4313,72.09440000000001,185.9121,72.09440000000001,183.1361L72.09440000000001,177.95217L69.5596,177.95217L69.5596,183.0557C69.5596,184.6595,68.9079,185.3028,67.8415,185.3028C66.7624,185.3028,66.11070000000001,184.6595,66.11070000000001,183.0557L66.11070000000001,177.95217L63.537800000000004,177.95217L63.537800000000004,183.1361C63.537800000000004,185.9121,65.1247,187.4313,67.8161,187.4313ZM77.1048,187.4313C79.8089,187.4313,81.1377,186.0814,81.1377,184.4649C81.1377,181.0075,75.97489999999999,182.1289,75.97489999999999,180.6139C75.97489999999999,180.0977,76.3643,179.6872,77.4434,179.6872C78.2389,179.6872,79.0938,179.9496,79.96549999999999,180.4785L80.7611,178.4769C79.8639,177.9564,78.6409,177.68133,77.45609999999999,177.68133C74.75200000000001,177.68133,73.4274,179.0101,73.4274,180.7578C73.4274,184.266,78.6029,183.1953,78.6029,184.668C78.6029,185.125,78.1839,185.4297,77.1175,185.4297C76.068,185.4297,74.9212,185.0573,74.1172,184.5072L73.27080000000001,186.4326C74.12989999999999,187.0293,75.61099999999999,187.4313,77.1048,187.4313ZM82.3057,187.1605L86.6051,187.1605C89.6224,187.1605,91.6917,185.4085,91.6917,182.5563C91.6917,179.7084,89.6224,177.95217,86.6051,177.95217L82.3057,177.95217L82.3057,187.1605ZM84.8786,185.1081L84.8786,180.0088L86.5036,180.0088C88.0524,180.0088,89.0892,180.9525,89.0892,182.5563C89.0892,184.1644,88.0524,185.1081,86.5036,185.1081L84.8786,185.1081ZM95.0729,187.1605L97.65010000000001,187.1605L97.65010000000001,179.9961L100.4303,179.9961L100.4303,177.95217L92.28,177.95217L92.28,179.9961L95.0729,179.9961L95.0729,187.1605Z" fill="#3D3D3D" fill-opacity="1"/></g><g style="mix-blend-mode:passthrough"><path d="M167.16016,322.473L164.96387,322.473L164.96387,320.3063L162.96224,320.3063L162.96224,322.473L160.753255,322.473L160.753255,324.3731L162.96224,324.3731L162.96224,326.5186L164.96387,326.5186L164.96387,324.3731L167.16016,324.3731L167.16016,322.473ZM172.3102,328.4313C174.625,328.4313,176.3177,326.7048,176.3177,323.5563C176.3177,320.4121,174.625,318.68133,172.3102,318.68133C169.98275,318.68133,168.29427,320.4121,168.29427,323.5563C168.29427,326.7048,169.98275,328.4313,172.3102,328.4313ZM172.3102,326.3281C171.4808,326.3281,170.8799,325.5749,170.8799,323.5563C170.8799,321.542,171.4808,320.7888,172.3102,320.7888C173.1312,320.7888,173.7279,321.542,173.7279,323.5563C173.7279,325.5749,173.1312,326.3281,172.3102,326.3281ZM178.624,328.4313C179.4661,328.4313,180.1051,327.822,180.1051,326.9629C180.1051,326.0785,179.4661,325.5072,178.624,325.5072C177.7904,325.5072,177.1387,326.0785,177.1387,326.9629C177.1387,327.822,177.7904,328.4313,178.624,328.4313ZM180.6595,318.95217L180.6595,320.9453L182.348,320.9453L182.348,328.1605L184.9251,328.1605L184.9251,318.95217L180.6595,318.95217ZM197.4216,323.332C198.2044,322.9258,198.6445,322.2233,198.6445,321.3389C198.6445,319.9297,197.4766,318.95217,195.0814,318.95217L190.4307,318.95217L190.4307,328.1605L195.3438,328.1605C197.7855,328.1605,199.0889,327.238,199.0889,325.6384C199.0889,324.4789,198.4499,323.696,197.4216,323.332ZM194.7471,320.8141C195.6019,320.8141,196.0462,321.1146,196.0462,321.6944C196.0462,322.28679999999997,195.6019,322.5915,194.7471,322.5915L192.97820000000002,322.5915L192.97820000000002,320.8141L194.7471,320.8141ZM195.1364,326.3028L192.97820000000002,326.3028L192.97820000000002,324.3688L195.1364,324.3688C196.0208,324.3688,196.4863,324.682,196.4863,325.3379C196.4863,325.9896,196.0208,326.3028,195.1364,326.3028ZM206.5876,318.95217L206.5876,323.861L202.5674,318.95217L200.4515,318.95217L200.4515,328.1605L202.9736,328.1605L202.9736,323.2559L206.9896,328.1605L209.1097,328.1605L209.1097,318.95217L206.5876,318.95217ZM218.0049,323.332C218.7878,322.9258,219.2279,322.2233,219.2279,321.3389C219.2279,319.9297,218.0599,318.95217,215.6647,318.95217L211.014,318.95217L211.014,328.1605L215.9271,328.1605C218.3688,328.1605,219.6722,327.238,219.6722,325.6384C219.6722,324.4789,219.0332,323.696,218.0049,323.332ZM215.3304,320.8141C216.1852,320.8141,216.6296,321.1146,216.6296,321.6944C216.6296,322.28679999999997,216.1852,322.5915,215.3304,322.5915L213.5615,322.5915L213.5615,320.8141L215.3304,320.8141ZM215.7197,326.3028L213.5615,326.3028L213.5615,324.3688L215.7197,324.3688C216.6042,324.3688,217.0697,324.682,217.0697,325.3379C217.0697,325.9896,216.6042,326.3028,215.7197,326.3028Z" fill="#3D3D3D" fill-opacity="1"/></g><g style="mix-blend-mode:passthrough"><path d="M560.16016,317.473L557.96387,317.473L557.96387,315.3063L555.96224,315.3063L555.96224,317.473L553.753255,317.473L553.753255,319.3731L555.96224,319.3731L555.96224,321.5186L557.96387,321.5186L557.96387,319.3731L560.16016,319.3731L560.16016,317.473ZM565.3102,323.4313C567.625,323.4313,569.3177,321.7048,569.3177,318.5563C569.3177,315.4121,567.625,313.68133,565.3102,313.68133C562.98275,313.68133,561.29427,315.4121,561.29427,318.5563C561.29427,321.7048,562.98275,323.4313,565.3102,323.4313ZM565.3102,321.3281C564.4808,321.3281,563.8799,320.5749,563.8799,318.5563C563.8799,316.542,564.4808,315.7888,565.3102,315.7888C566.1312,315.7888,566.7279,316.542,566.7279,318.5563C566.7279,320.5749,566.1312,321.3281,565.3102,321.3281ZM571.624,323.4313C572.4661,323.4313,573.1051,322.822,573.1051,321.9629C573.1051,321.0785,572.4661,320.5072,571.624,320.5072C570.7904,320.5072,570.1387,321.0785,570.1387,321.9629C570.1387,322.822,570.7904,323.4313,571.624,323.4313ZM577.5485,321.1208L579.2624,319.4746C580.5615,318.2347,580.8112,317.3968,580.8112,316.4785C580.8112,314.7604,579.3682,313.68133,577.2734,313.68133C575.4792,313.68133,574.1927,314.4388,573.5029,315.5814L575.4157,316.6817C575.7796,316.0723,576.3763,315.7634,577.0407,315.7634C577.8193,315.7634,578.2087,316.1273,578.2087,316.7367C578.2087,317.126,578.1071,317.5576,577.3792,318.2601L573.9727,321.5524L573.9727,323.1605L581.0566,323.1605L581.0566,321.1208L577.5485,321.1208ZM593.1299,318.332C593.9128,317.9258,594.3529,317.2233,594.3529,316.3389C594.3529,314.9297,593.1849,313.95217,590.7897,313.95217L586.139,313.95217L586.139,323.1605L591.0521,323.1605C593.4938,323.1605,594.7972,322.238,594.7972,320.6384C594.7972,319.4789,594.1582,318.696,593.1299,318.332ZM590.4554,315.8141C591.3102,315.8141,591.7546,316.1146,591.7546,316.6944C591.7546,317.28679999999997,591.3102,317.5915,590.4554,317.5915L588.6865,317.5915L588.6865,315.8141L590.4554,315.8141ZM590.8447,321.3028L588.6865,321.3028L588.6865,319.3688L590.8447,319.3688C591.7292,319.3688,592.1947,319.682,592.1947,320.3379C592.1947,320.9896,591.7292,321.3028,590.8447,321.3028ZM602.2959,313.95217L602.2959,318.861L598.2757,313.95217L596.1598,313.95217L596.1598,323.1605L598.682,323.1605L598.682,318.2559L602.6979,323.1605L604.818,323.1605L604.818,313.95217L602.2959,313.95217ZM613.7132,318.332C614.4961,317.9258,614.9362,317.2233,614.9362,316.3389C614.9362,314.9297,613.7682,313.95217,611.373,313.95217L606.7223,313.95217L606.7223,323.1605L611.6354,323.1605C614.0771,323.1605,615.3805,322.238,615.3805,320.6384C615.3805,319.4789,614.7415,318.696,613.7132,318.332ZM611.0387,315.8141C611.8936,315.8141,612.3379,316.1146,612.3379,316.6944C612.3379,317.28679999999997,611.8936,317.5915,611.0387,317.5915L609.2699,317.5915L609.2699,315.8141L611.0387,315.8141ZM611.4281,321.3028L609.2699,321.3028L609.2699,319.3688L611.4281,319.3688C612.3125,319.3688,612.778,319.682,612.778,320.3379C612.778,320.9896,612.3125,321.3028,611.4281,321.3028Z" fill="#3D3D3D" fill-opacity="1"/></g><g style="mix-blend-mode:passthrough"><path d="M720.16016,179.473L717.96387,179.473L717.96387,177.3063L715.96224,177.3063L715.96224,179.473L713.753255,179.473L713.753255,181.3731L715.96224,181.3731L715.96224,183.5186L717.96387,183.5186L717.96387,181.3731L720.16016,181.3731L720.16016,179.473ZM725.3102,185.4313C727.625,185.4313,729.3177,183.7048,729.3177,180.5563C729.3177,177.4121,727.625,175.68133,725.3102,175.68133C722.98275,175.68133,721.29427,177.4121,721.29427,180.5563C721.29427,183.7048,722.98275,185.4313,725.3102,185.4313ZM725.3102,183.3281C724.4808,183.3281,723.8799,182.5749,723.8799,180.5563C723.8799,178.542,724.4808,177.7888,725.3102,177.7888C726.1312,177.7888,726.7279,178.542,726.7279,180.5563C726.7279,182.5749,726.1312,183.3281,725.3102,183.3281ZM731.624,185.4313C732.4661,185.4313,733.1051,184.822,733.1051,183.9629C733.1051,183.0785,732.4661,182.5072,731.624,182.5072C730.7904,182.5072,730.1387,183.0785,730.1387,183.9629C730.1387,184.822,730.7904,185.4313,731.624,185.4313ZM737.5485,183.1208L739.2624,181.4746C740.5615,180.2347,740.8112,179.3968,740.8112,178.4785C740.8112,176.7604,739.3682,175.68133,737.2734,175.68133C735.4792,175.68133,734.1927,176.43880000000001,733.5029,177.5814L735.4157,178.6817C735.7796,178.0723,736.3763,177.7634,737.0407,177.7634C737.8193,177.7634,738.2087,178.1273,738.2087,178.7367C738.2087,179.126,738.1071,179.5576,737.3792,180.2601L733.9727,183.5524L733.9727,185.1605L741.0566,185.1605L741.0566,183.1208L737.5485,183.1208ZM753.1299,180.332C753.9128,179.9258,754.3529,179.2233,754.3529,178.3389C754.3529,176.9297,753.1849,175.95217,750.7897,175.95217L746.139,175.95217L746.139,185.1605L751.0521,185.1605C753.4938,185.1605,754.7972,184.238,754.7972,182.6384C754.7972,181.4789,754.1582,180.696,753.1299,180.332ZM750.4554,177.8141C751.3102,177.8141,751.7546,178.1146,751.7546,178.6944C751.7546,179.2868,751.3102,179.5915,750.4554,179.5915L748.6865,179.5915L748.6865,177.8141L750.4554,177.8141ZM750.8447,183.3028L748.6865,183.3028L748.6865,181.3688L750.8447,181.3688C751.7292,181.3688,752.1947,181.682,752.1947,182.3379C752.1947,182.9896,751.7292,183.3028,750.8447,183.3028ZM762.2959,175.95217L762.2959,180.861L758.2757,175.95217L756.1598,175.95217L756.1598,185.1605L758.682,185.1605L758.682,180.2559L762.6979,185.1605L764.818,185.1605L764.818,175.95217L762.2959,175.95217ZM773.7132,180.332C774.4961,179.9258,774.9362,179.2233,774.9362,178.3389C774.9362,176.9297,773.7682,175.95217,771.373,175.95217L766.7223,175.95217L766.7223,185.1605L771.6354,185.1605C774.0771,185.1605,775.3805,184.238,775.3805,182.6384C775.3805,181.4789,774.7415,180.696,773.7132,180.332ZM771.0387,177.8141C771.8936,177.8141,772.3379,178.1146,772.3379,178.6944C772.3379,179.2868,771.8936,179.5915,771.0387,179.5915L769.2699,179.5915L769.2699,177.8141L771.0387,177.8141ZM771.4281,183.3028L769.2699,183.3028L769.2699,181.3688L771.4281,181.3688C772.3125,181.3688,772.778,181.682,772.778,182.3379C772.778,182.9896,772.3125,183.3028,771.4281,183.3028Z" fill="#3D3D3D" fill-opacity="1"/></g></g></g></svg>