<?xml version="1.0" encoding="UTF-8"?>
<svg width="25px" height="42px" viewBox="0 0 25 42" version="1.1" xmlns="http://www.w3.org/2000/svg" xmlns:xlink="http://www.w3.org/1999/xlink">
    <!-- Generator: Sketch 52.6 (67491) - http://www.bohemiancoding.com/sketch -->
    <title>Path</title>
    <desc>Created with Sketch.</desc>
    <g id="Page-1" stroke="none" stroke-width="1" fill="none" fill-rule="evenodd">
        <g id="Group-1189" fill="#C0C5E0">
            <path d="M24.31,39.279 C24.31,39.279 23.4378,38.9875 22.5696,38.7082 C22.1384,38.5694 21.7014,38.4248 21.3678,38.3244 C21.0672,38.1766 20.8543,38.0763 20.8543,38.0763 C21.2241,34.66 20.3871,32.8651 19.5564,31.7275 C19.0793,31.2109 17.6725,30.2139 17.6725,30.2139 C17.4923,31.236 17.1871,32.5184 17.312,33.8371 C17.5017,35.0473 18.0084,36.5295 19.5397,37.4891 C19.4469,37.6439 14.9502,34.9609 15.0499,34.8168 C15.6774,33.212 15.893,31.939 15.9034,30.9279 C15.9754,29.858 15.8253,29.0615 15.5698,28.4721 C15.2813,27.8721 14.3277,26.5839 14.3277,26.5839 C13.8253,27.4605 13.1644,28.5432 12.8523,29.8373 C12.6658,30.5118 12.72,31.1175 12.8649,31.8198 C13.0429,32.4971 13.2994,33.294 13.9115,33.9538 C13.8837,33.9762 12.9304,33.0537 12.0125,32.1046 C11.5133,31.6476 11.1307,31.1061 10.8407,30.7077 C10.5487,30.2906 10.3561,30.0288 10.3561,30.0288 C12.3965,27.4126 13.2795,25.5267 12.7873,22.8097 C12.6515,22.4419 12.481,22.2332 12.481,22.2332 C11,23.3751 8.2935,25.3746 9.5435,28.8501 C9.5435,28.8501 8.9566,27.6873 8.3767,26.5312 C8.0922,25.9476 7.9736,25.2971 7.8161,24.8478 C7.671,24.3788 7.5764,24.0681 7.5764,24.0681 C10.3978,22.3454 11.6633,21.0058 12.1146,19.7041 C12.5895,18.4379 12.4189,17.3008 12.4189,17.3008 C10.5152,18.0551 7.3688,19.0521 7.2474,22.6841 C7.2474,22.6841 7.1905,22.3651 7.1349,21.8873 C7.0899,21.4115 7.0405,20.7589 7.0232,20.103 C6.99618,18.8016 7.121,17.4941 7.121,17.4941 C10.472,16.8456 11.9873,15.5862 12.8278,14.4637 C13.6293,13.3376 13.7457,12.2408 13.7457,12.2408 C11.7069,12.4223 8.4532,12.5927 7.2928,16.0708 C7.2928,16.0708 7.4788,14.7838 7.8107,13.5128 C8.1177,12.2362 8.5835,11.0216 8.5835,11.0216 C12.0105,11.2766 13.7733,10.494 14.8388,9.7938 C15.3389,9.4025 16.2251,8.2606 16.2251,8.2606 C15.2561,7.8988 14.0602,7.5133 12.7759,7.574 C11.5062,7.6298 10.1323,8.1877 9.1269,9.6966 C9.1269,9.6966 9.2035,9.4788 9.3645,9.1689 C9.5204,8.8731 9.727,8.4784 9.9337,8.0838 C10.3849,7.297 10.862,6.55239 10.862,6.55239 C11.584,6.44232 12.6097,6.1457 13.5228,5.45066 C14.49,4.75424 15.0932,3.57753 16.2767,1.22147 C16.2784,1.21154 16.2852,1.20388 16.2905,1.20481 L16.2799,1.20294 L16.284,1.17979 L16.2601,1.19944 C13.5254,0.45327 11.512,1.74419 10.6824,2.92121 C9.7665,4.15804 9.8841,5.44478 9.9794,6.08026 C9.9794,6.08026 9.4517,6.87534 9.0046,7.7051 C8.7837,8.1265 8.5639,8.5564 8.3946,8.8744 C8.2663,9.2079 8.1606,9.4239 8.1606,9.4239 C8.6817,7.5827 8.6705,6.05274 8.4667,4.55845 C8.2906,3.08541 7.8932,1.67567 7.8539,0.37818 C7.8539,0.37818 7.4491,0.68947 6.89754,1.25659 C6.44156,1.85421 5.74867,2.70063 5.41264,3.76687 C4.59964,5.87858 4.89025,8.6521 7.659,10.6751 C7.659,10.6751 7.1589,11.9757 6.82688,13.34 C6.48292,14.6989 6.29458,16.0804 6.29458,16.0804 C6.33231,12.3074 4.2741,10.1117 3.13093,7.829 C3.13093,7.829 2.08426,9.409 2.02798,11.5232 C1.93025,13.6287 2.91683,16.1805 6.12273,17.4109 C6.12273,17.4109 5.99595,18.8107 6.0205,20.2073 C6.05315,21.612 6.28025,23.0088 6.28025,23.0088 C5.25701,19.338 2.73699,17.7381 1.00901,15.8823 C1.00901,15.8823 0.43182,17.6277 0.92581,19.7236 C1.41232,21.7691 3.0208,24.2833 6.61369,24.3131 C6.61369,24.3131 6.71717,24.6547 6.87285,25.1528 C7.05,25.6567 7.1567,26.359 7.4953,26.9883 C8.126,28.2468 8.7527,29.5012 8.7527,29.5012 C6.4911,26.5016 3.58861,25.8329 1.20147,24.4891 C1.20147,24.4891 1.24808,24.9714 1.44076,25.7045 C1.6229,26.4433 1.97245,27.4435 2.53881,28.4056 C3.91139,30.2151 6.19777,31.7976 9.5447,30.5958 C9.5447,30.5958 9.7542,30.8893 10.0627,31.325 C10.3587,31.7666 10.7975,32.3454 11.33,32.8267 C11.8268,33.3358 12.3432,33.8389 12.7073,34.2223 C13.0343,34.5535 13.307,34.736 13.3711,34.7827 C12.5214,34.3369 11.8499,33.8781 11.0688,33.6694 C10.3256,33.3972 9.4973,33.3364 8.8195,33.1998 C7.3883,32.9645 5.95415,33.0091 4.66441,32.8226 C4.66441,32.8226 4.87048,33.2477 5.282,33.8578 C5.72383,34.4507 6.28434,35.3414 7.2226,35.908 C8.1383,36.5101 9.2554,36.9908 10.4727,37.054 C11.737,37.06 13.1085,36.6436 14.4621,35.6245 C14.371,35.766 18.2683,38.0732 19.1023,38.4147 C18.2201,38.2032 17.4554,38.0683 16.7159,38.0225 C15.939,37.9913 15.1709,38.0803 14.437,38.2346 C13.0134,38.4863 11.7103,38.925 10.4615,39.172 C10.4615,39.172 10.7717,39.5092 11.3122,39.968 C11.8626,40.4286 12.671,40.9777 13.6948,41.2565 C15.6821,41.9588 18.3764,41.6768 20.4804,39.0015 C20.4804,39.0015 20.7016,39.093 21.0209,39.2516 C21.3538,39.3478 21.8028,39.5054 22.2532,39.6476 C23.1577,39.9415 24.0532,40.2324 24.0532,40.2324 L24.0555,40.2191 C24.0687,40.2215 24.0836,40.2377 24.0896,40.2388 C24.3509,40.2849 24.6157,40.114 24.6638,39.8407 C24.7099,39.5835 24.5537,39.3473 24.31,39.279 Z" id="Path"></path>
        </g>
    </g>
</svg>