<?xml version="1.0" standalone="no"?>
<!DOCTYPE svg PUBLIC "-//W3C//DTD SVG 20010904//EN"
        "http://www.w3.org/TR/2001/REC-SVG-20010904/DTD/svg10.dtd">
<svg version="1.0" xmlns="http://www.w3.org/2000/svg"
     width="300.000000pt" height="300.000000pt" viewBox="0 0 300.000000 300.000000"
     preserveAspectRatio="xMidYMid meet">
    <metadata>
        Created by potrace 1.11, written by Peter Selinger 2001-2013
    </metadata>
    <g transform="translate(0.000000,300.000000) scale(0.100000,-0.100000)"
       fill="#000000" stroke="none">
        <path d="M0 1500 l0 -1500 1500 0 1500 0 0 1500 0 1500 -1500 0 -1500 0 0
-1500z m1569 769 c41 -23 82 -72 100 -121 12 -31 10 -33 -41 -42 -35 -6 -39
-5 -62 32 -16 26 -38 45 -67 56 -40 16 -46 16 -148 -5 -94 -20 -110 -26 -138
-56 -24 -25 -33 -44 -33 -67 0 -40 -12 -52 -64 -62 l-39 -7 5 61 c12 126 72
183 232 219 122 27 197 25 255 -8z m587 -164 c58 -34 92 -87 105 -164 l12 -63
-114 -114 c-63 -63 -118 -114 -124 -114 -9 0 -136 125 -255 253 l-44 47 83 84
c77 77 87 84 139 94 81 15 146 7 198 -23z m-406 -33 c0 -4 -94 -102 -210 -217
l-210 -210 -140 140 c-77 77 -140 145 -140 152 0 13 -4 12 380 87 285 56 320
61 320 48z m-643 -304 c90 -90 163 -168 163 -173 0 -18 -287 -297 -302 -293
-7 1 -93 85 -192 185 l-179 183 7 46 c7 57 36 106 84 142 32 24 80 38 252 71
3 1 78 -72 167 -161z m731 -27 c78 -82 142 -153 142 -159 0 -5 -68 -74 -152
-153 l-151 -144 -149 155 -148 154 147 148 c81 81 153 148 159 148 6 0 75 -67
152 -149z m457 17 c23 -95 82 -434 76 -440 -4 -4 -69 55 -146 132 l-140 140
95 95 c52 52 98 95 102 95 4 0 10 -10 13 -22z m-66 -412 l182 -184 -6 -38
c-10 -56 -51 -121 -93 -148 -23 -15 -78 -32 -146 -46 l-109 -22 -158 158 c-88
88 -159 163 -159 169 0 13 282 295 295 295 6 0 93 -83 194 -184z m-1439 29
l134 -136 -94 -94 c-52 -52 -99 -94 -104 -92 -9 3 -33 116 -91 425 -4 23 -2
32 8 32 7 0 73 -61 147 -135z m592 -82 c36 -32 25 -110 -17 -127 -69 -26 -123
15 -115 89 6 58 84 81 132 38z m-215 -305 c165 -165 211 -218 189 -218 -3 0
-86 -16 -186 -35 -100 -19 -196 -35 -214 -35 -50 0 -137 49 -168 95 -16 22
-34 66 -40 98 l-12 57 114 115 c63 63 117 115 120 115 3 0 91 -87 197 -192z
m652 58 c74 -74 131 -140 129 -147 -3 -9 -87 -29 -244 -60 l-239 -46 -45 44
-45 43 150 150 c82 83 152 150 155 150 3 0 65 -60 139 -134z"/>
    </g>
</svg>
