<svg width="80" height="80" viewBox="0 0 80 80" fill="none" xmlns="http://www.w3.org/2000/svg">
<rect width="80" height="80" rx="20" fill="#00BDFF"/>
<path fill-rule="evenodd" clip-rule="evenodd" d="M56.2739 36.411C56.2739 36.412 56.2739 36.4128 56.274 36.4137C56.2305 36.7535 55.9308 36.9267 55.6186 36.7941C55.4236 36.7121 55.2275 36.6307 55.0317 36.5495L55.0299 36.5487L55.0295 36.5486L54.7793 36.4447L54.3086 36.2492C53.7947 36.0357 53.2807 35.8222 52.7647 35.6093L50.3284 34.5964L49.7886 34.3721C49.2672 34.1553 48.7448 33.9382 48.2221 33.7224C48.1081 33.6749 47.9926 33.6292 47.877 33.5834C47.6495 33.4934 47.4214 33.4031 47.202 33.2983C47.2009 33.2975 47.1995 33.2968 47.198 33.2962L47.195 33.295C47.1924 33.2941 47.1898 33.2931 47.188 33.2917C46.8759 33.163 46.9304 32.7008 47.1982 32.5462L49.4859 31.2253C49.1322 30.6604 48.7542 30.1116 48.3501 29.5796C48.2401 29.4538 48.136 29.3219 48.0317 29.1897L48.0317 29.1897L48.0317 29.1897C47.9295 29.0602 47.8272 28.9305 47.7189 28.8061C47.501 28.5523 47.2771 28.3059 47.0448 28.0662C46.6298 27.639 46.1915 27.2331 45.7263 26.8603C45.5408 26.7135 45.355 26.5704 45.1618 26.4339C44.9616 26.2938 44.7553 26.1591 44.547 26.0315C44.1768 25.8056 43.7912 25.6024 43.3923 25.4274C43.2432 25.3631 43.0953 25.3029 42.9501 25.2481C42.7872 25.1867 42.623 25.132 42.4566 25.0825C42.1741 24.9977 41.8832 24.9267 41.5899 24.8747C41.3992 24.8407 41.2069 24.8139 41.0129 24.8046C40.7991 24.79 40.5563 24.7742 40.3434 24.8076C39.916 24.8661 39.7474 24.1893 40.1299 24.0103C41.2153 23.5049 42.4247 23.2358 43.603 23.0909C44.7264 22.9517 45.8582 22.972 46.9651 23.1542C48.2914 23.3719 49.5693 23.8537 50.6953 24.553C52.1566 25.462 53.3544 26.7061 54.3166 28.1077C54.3696 28.1853 54.4227 28.2649 54.4733 28.3438L56.8053 26.9974C57.0708 26.8441 57.5002 27.026 57.4561 27.3613C57.4296 27.5717 57.4019 27.7827 57.3743 27.9934L57.3742 27.9947L57.3391 28.2629L57.2733 28.7662L57.2725 28.7721L57.2723 28.7738C57.2005 29.3237 57.1287 29.8738 57.0553 30.4253L56.7143 33.0417L56.6386 33.6216C56.5656 34.1814 56.4925 34.7422 56.4181 35.3027L56.3782 35.6117L56.3782 35.612L56.3782 35.6121C56.3445 35.8738 56.3107 36.1365 56.2752 36.3982C56.2756 36.4005 56.2751 36.4032 56.2746 36.4059C56.2743 36.4077 56.274 36.4094 56.2739 36.411ZM24.2847 44.5941C24.2852 44.5914 24.2857 44.5887 24.2854 44.5864C24.3289 44.2465 24.6286 44.0734 24.9407 44.2059C25.1365 44.2883 25.3333 44.3699 25.5299 44.4515L25.7801 44.5554L26.2507 44.7508L26.2519 44.7514C26.7654 44.9647 27.279 45.178 27.7947 45.3908L30.231 46.4037L30.7715 46.6283L30.7724 46.6287L30.7746 46.6296C31.2947 46.8458 31.8158 47.0624 32.3372 47.2777C32.4511 47.3251 32.5665 47.3707 32.6819 47.4164L32.6822 47.4166L32.6824 47.4166C32.9099 47.5067 33.1379 47.5969 33.3574 47.7017C33.3592 47.7031 33.3618 47.7041 33.3644 47.705C33.366 47.7056 33.3676 47.7062 33.369 47.7069L33.3714 47.7084C33.6834 47.8371 33.6289 48.2993 33.3611 48.4539L31.0734 49.7747C31.4271 50.3396 31.8052 50.8885 32.2092 51.4204C32.3193 51.5462 32.4234 51.6782 32.5277 51.8103C32.6298 51.9398 32.7322 52.0696 32.8405 52.1939C33.0584 52.4477 33.2823 52.6942 33.5145 52.9339C33.9295 53.3611 34.3679 53.767 34.833 54.1397C35.0185 54.2865 35.2044 54.4297 35.3975 54.5662C35.5978 54.7063 35.804 54.841 36.0124 54.9685C36.3825 55.1945 36.7682 55.3977 37.167 55.5726C37.3162 55.637 37.4641 55.6972 37.6093 55.752C37.7722 55.8133 37.9364 55.868 38.1027 55.9176C38.3853 56.0023 38.6762 56.0733 38.9694 56.1253C39.1602 56.1594 39.3525 56.1862 39.5465 56.1954C39.7603 56.21 40.0031 56.2258 40.216 56.1925C40.6434 56.134 40.812 56.8108 40.4295 56.9898C39.3441 57.4952 38.1347 57.7642 36.9563 57.9092C35.833 58.0483 34.7012 58.028 33.5942 57.8459C32.2679 57.6282 30.99 57.1464 29.864 56.4471C28.4027 55.5381 27.205 54.294 26.2427 52.8923C26.1897 52.8147 26.1367 52.7352 26.086 52.6563L23.754 54.0026C23.4885 54.1559 23.0591 53.9741 23.1032 53.6388C23.1298 53.4279 23.1575 53.2165 23.1852 53.0054L23.2203 52.7372L23.2863 52.2318C23.3584 51.6801 23.4305 51.1281 23.5041 50.5748L23.8451 47.9584L23.9207 47.3789C23.9937 46.8189 24.0668 46.258 24.1413 45.6974L24.1812 45.3877L24.1812 45.3876C24.2149 45.126 24.2487 44.8634 24.2841 44.6019C24.2838 44.5996 24.2843 44.5969 24.2847 44.5941ZM29.942 23.7751C25.0035 23.7751 21 27.7785 21 32.7171C21 37.6556 25.0035 41.6591 29.942 41.6591C34.8806 41.6591 38.8841 37.6556 38.8841 32.7171C38.8841 27.7785 34.8806 23.7751 29.942 23.7751ZM30.2301 37.9031C30.2301 38.1632 30.0246 38.3687 29.7645 38.3687C29.518 38.3687 29.3125 38.1632 29.3125 37.9031V37.4922C27.8883 37.4101 26.8476 36.8486 26.3546 35.9585C26.2176 35.712 26.2176 35.397 26.3683 35.1505C26.5052 34.8903 26.7791 34.7397 27.0667 34.7397C27.0735 34.7397 27.0769 34.7397 27.0787 34.7414C27.0804 34.7431 27.0804 34.7465 27.0804 34.7534C27.3953 34.7534 27.6829 34.9314 27.8199 35.219C28.039 35.7257 28.573 36.068 29.3125 36.1502V33.2333L28.6689 33.069C27.1214 32.6992 26.2724 31.7817 26.2724 30.4533C26.2724 28.8785 27.409 27.8377 29.3125 27.6734V27.2078C29.3125 26.9613 29.518 26.7559 29.7645 26.7559C30.0246 26.7559 30.2301 26.9613 30.2301 27.2078V27.6734C31.5173 27.783 32.4759 28.3718 32.9415 29.2346C33.0785 29.481 33.0648 29.7823 32.9278 30.0288C32.7772 30.2616 32.517 30.4123 32.2431 30.4123H32.2294C31.9282 30.4123 31.6543 30.2205 31.531 29.9467C31.3393 29.4674 30.86 29.125 30.2301 29.0428V31.8091L30.8874 31.9597C32.5718 32.3569 33.4071 33.2059 33.4071 34.6164C33.4071 36.2871 32.2568 37.3279 30.2301 37.4785V37.9031ZM30.2301 36.1639C31.2161 36.1091 31.7775 35.6024 31.7775 34.7944C31.7775 34.055 31.2982 33.6167 30.2301 33.4113V36.1639ZM29.3125 29.0291C28.5046 29.0839 27.9294 29.6043 27.9294 30.3164C27.9294 30.9874 28.4087 31.4393 29.3125 31.6174V29.0291ZM41.439 48.0464C41.439 43.1079 45.4424 39.1044 50.381 39.1044C55.3195 39.1044 59.323 43.1079 59.323 48.0464C59.323 52.985 55.3195 56.9884 50.381 56.9884C45.4424 56.9884 41.439 52.985 41.439 48.0464ZM52.0837 49.3892C52.2089 49.3892 52.348 49.3352 52.4454 49.2407C52.5428 49.1463 52.5845 49.0248 52.5845 48.8898C52.5845 48.7548 52.5428 48.6333 52.4454 48.5388C52.348 48.4443 52.2089 48.3903 52.0837 48.3903H48.7035C48.6896 48.2283 48.6757 48.0528 48.6757 47.8638C48.6757 47.6748 48.6757 47.4993 48.7035 47.3238H52.0837C52.2089 47.3238 52.348 47.2833 52.4454 47.1889C52.5428 47.0944 52.5845 46.9729 52.5845 46.8379C52.5845 46.7029 52.5428 46.5814 52.4454 46.4869C52.348 46.3924 52.2089 46.3384 52.0837 46.3384H48.94C49.4407 45.0695 50.6092 44.3945 52.0837 44.3945C52.2645 44.3945 52.4593 44.408 52.6401 44.4215C52.8488 44.435 53.0435 44.3675 53.1965 44.219C53.3496 44.084 53.433 43.895 53.433 43.6925V43.679C53.433 43.3146 53.1548 43.0176 52.7931 42.9636H52.7931C52.5427 42.9501 52.2924 42.9366 52.0559 42.9366C49.5798 42.9366 47.6741 44.1245 47.0899 46.3384H46.2831C46.0049 46.3384 45.7823 46.5679 45.7823 46.8379C45.7823 46.9729 45.838 47.0944 45.9214 47.1889C46.0188 47.2833 46.1579 47.3238 46.2831 47.3238H46.923C46.9091 47.4993 46.9091 47.6748 46.9091 47.8638C46.9091 48.0528 46.9091 48.2283 46.923 48.3903H46.2831C46.1579 48.3903 46.0188 48.4443 45.9214 48.5388C45.838 48.6333 45.7823 48.7548 45.7823 48.8898C45.7823 49.1598 46.0049 49.3892 46.2831 49.3892H47.0899C47.6741 51.6031 49.5798 52.7911 52.0559 52.7911C52.3063 52.7911 52.5567 52.7776 52.7792 52.7641C53.1687 52.7236 53.4469 52.4131 53.4469 52.0351C53.4469 51.8326 53.3635 51.6436 53.2105 51.5086C53.0574 51.3736 52.8627 51.2926 52.654 51.3061L52.654 51.3061C52.4592 51.3196 52.2645 51.3331 52.0698 51.3331C50.5953 51.3331 49.4407 50.6447 48.94 49.3892H52.0837Z" fill="white"/>
</svg>
