<svg width="81" height="80" viewBox="0 0 81 80" fill="none" xmlns="http://www.w3.org/2000/svg">
<rect x="0.5" width="80" height="80" rx="20" fill="#7622FF"/>
<path fill-rule="evenodd" clip-rule="evenodd" d="M40.1017 23.0001L40.1386 23.0034C40.1874 23.0077 40.2118 23.0099 40.2733 23.0248C40.386 23.052 40.4933 23.1005 40.5883 23.1673C40.6571 23.2156 40.6705 23.2292 40.7364 23.2962L40.7385 23.2983C41.0916 23.6567 41.4613 23.9994 41.8352 24.3363C43.173 25.5412 44.592 26.6508 46.0937 27.6345C47.2363 28.383 48.4291 29.0576 49.6809 29.6024C51.102 30.2207 52.6086 30.6793 54.1544 30.7696C54.3302 30.7798 54.5063 30.7851 54.6824 30.7852L54.7735 30.7897L54.8036 30.7939C54.8237 30.7965 54.8438 30.7992 54.8637 30.8032C55.1023 30.8511 55.3196 30.9972 55.4547 31.2009C55.5391 31.3281 55.5918 31.4762 55.6067 31.6284C55.6112 31.6752 55.6112 31.703 55.6111 31.742L55.6111 31.752C55.61 33.4371 55.5211 35.1416 55.3223 36.8265C54.9658 39.8481 54.2511 42.8386 53.0631 45.6248C52.1889 47.6752 51.0526 49.6203 49.6549 51.3555C47.9924 53.4196 45.9614 55.187 43.6705 56.4947C42.8281 56.9756 41.9508 57.3984 41.0386 57.7301C40.7926 57.8196 40.5448 57.9048 40.2914 57.9712L40.2872 57.9722C40.159 57.9996 40.0267 58.0103 39.8981 57.9879C39.8264 57.9755 39.7563 57.9542 39.6862 57.933L39.6629 57.926C39.0642 57.7455 38.4851 57.5081 37.9184 57.2461C36.8244 56.7405 35.7828 56.1259 34.8013 55.4284C32.5922 53.8585 30.6935 51.8534 29.1931 49.5814C28.0609 47.8669 27.1551 46.0063 26.4598 44.0666C25.4505 41.2508 24.885 38.2805 24.6432 35.2935C24.5548 34.201 24.5093 33.105 24.5013 32.0079C24.5005 31.9007 24.5001 31.7934 24.5001 31.6863L24.5 31.6773C24.4999 31.6377 24.4998 31.6097 24.5044 31.5627C24.5312 31.2889 24.6837 31.0312 24.9126 30.8772C25.039 30.7922 25.1862 30.7391 25.3376 30.724C25.383 30.7194 25.4286 30.7194 25.4741 30.7193L25.5043 30.7192C26.7505 30.7078 27.9851 30.4404 29.1687 30.0358C30.4655 29.5926 31.7019 28.9874 32.8837 28.2966C34.5558 27.3192 36.1263 26.1684 37.603 24.9138C38.2182 24.3912 38.8251 23.8542 39.3907 23.2812L39.3946 23.2772L39.4584 23.218L39.4885 23.1947C39.5268 23.1648 39.5462 23.1496 39.6011 23.1187C39.7021 23.0616 39.8136 23.0238 39.9284 23.0078C39.9857 22.9998 40.0438 22.9999 40.1017 23.0001ZM39.5731 26.0051C39.585 26.0071 39.5968 26.0085 39.6086 26.01C39.627 26.0123 39.6451 26.0145 39.6626 26.0187C39.9026 26.0644 40.1206 26.2086 40.2574 26.4103C40.445 26.6884 40.4687 27.07 40.3115 27.3701C40.2828 27.4243 40.249 27.4752 40.2118 27.5244C40.1509 27.6001 40.0797 27.6674 40.0087 27.7346C39.989 27.7532 39.9693 27.7718 39.9499 27.7906C39.1118 28.6045 38.2246 29.3557 37.3037 30.0611C35.793 31.2175 34.1793 32.2485 32.4473 33.0183C31.1766 33.5829 29.8383 34.0035 28.456 34.1442H28.451C28.4898 35.7652 28.6351 37.371 28.9224 38.9649C29.2232 40.6385 29.6811 42.2833 30.3401 43.8603C31.1191 45.7238 32.1769 47.4703 33.5254 48.976C34.8417 50.4462 36.4216 51.6857 38.2044 52.5539C38.6843 52.7896 39.1794 53.0049 39.6914 53.1524C39.7049 53.1575 39.7235 53.1626 39.7235 53.1626L39.757 53.1727C39.8091 53.1883 39.8332 53.1955 39.8941 53.2253C40.1679 53.3593 40.3673 53.634 40.4095 53.9392C40.4467 54.2105 40.3588 54.4971 40.1713 54.7006C39.9651 54.9244 39.6457 55.038 39.3433 54.9888C39.2301 54.9716 39.1194 54.9348 39.0091 54.8982L38.9495 54.8786C38.01 54.57 37.1111 54.1291 36.2543 53.6204C34.105 52.3453 32.2462 50.5835 30.8014 48.5386C29.4124 46.575 28.4036 44.3571 27.7311 42.0341C27.2546 40.391 26.9454 38.7072 26.7679 36.9929C26.6412 35.7517 26.5837 34.5037 26.5821 33.2574L26.5871 33.1658C26.5892 33.1539 26.5907 33.1416 26.5923 33.1292C26.5945 33.1117 26.5967 33.0938 26.6006 33.0759C26.6649 32.747 26.9166 32.4621 27.2411 32.3638C27.3002 32.3451 27.3594 32.3333 27.4202 32.3282C27.4793 32.3222 27.5376 32.3221 27.5957 32.322C27.6206 32.3219 27.6454 32.3219 27.6703 32.3214C28.7821 32.2976 29.8788 32.0229 30.9248 31.6262C32.1059 31.1802 33.2263 30.5766 34.2908 29.8966C35.5683 29.0827 36.7748 28.1535 37.9086 27.1429C38.2196 26.8648 38.5271 26.5833 38.8194 26.2866C38.8228 26.2849 38.8262 26.2798 38.8262 26.2798L38.8938 26.2187L38.9236 26.1957C38.9651 26.1635 38.9857 26.1475 39.0442 26.1153C39.1523 26.056 39.2706 26.0187 39.3906 26.0068C39.4427 26.001 39.4949 26.0026 39.547 26.0043L39.5731 26.0051ZM45.104 36.0325C45.089 36.0299 45.074 36.0274 45.0596 36.0242L44.9688 36.018C44.9592 36.018 44.9504 36.018 44.9423 36.018C44.8825 36.0178 44.8581 36.0177 44.7872 36.0305C44.6675 36.0491 44.5519 36.0947 44.4467 36.1589C44.3857 36.1978 44.3678 36.2135 44.3203 36.2549C44.3147 36.2598 44.3087 36.265 44.3022 36.2707L44.2403 36.3369L38.6828 42.7234L35.7895 40.11C35.7794 40.1018 35.7705 40.0945 35.7624 40.0879C35.7196 40.053 35.7003 40.0372 35.643 40.0023C35.5625 39.9547 35.4779 39.9195 35.3892 39.8988C35.123 39.8325 34.8299 39.8926 34.6112 40.0582C34.3904 40.2239 34.2521 40.489 34.2397 40.7644C34.2294 41.0088 34.3181 41.2552 34.4832 41.4374C34.4936 41.4488 34.5044 41.4592 34.5152 41.4695C34.5261 41.4799 34.5369 41.4902 34.5472 41.5016L38.1421 44.7466C38.1648 44.7673 38.1875 44.788 38.2123 44.8046C38.2618 44.8419 38.3155 44.873 38.3712 44.8999C38.7097 45.0573 39.1306 44.9848 39.3969 44.7342C39.4106 44.7216 39.4236 44.7076 39.4363 44.6938C39.4446 44.6849 39.4527 44.6761 39.4608 44.6679L45.6395 37.567C45.6581 37.5442 45.6766 37.5194 45.6952 37.4945C45.8562 37.2709 45.9078 36.9748 45.8376 36.7097C45.7489 36.3804 45.4744 36.1174 45.1483 36.0408C45.1339 36.0377 45.1189 36.0351 45.104 36.0325Z" fill="white"/>
</svg>
