<svg width="24" height="27" viewBox="0 0 24 27" fill="none" xmlns="http://www.w3.org/2000/svg">
<path d="M3.20564 9.14064C1.17666 12.6616 2.46652 18.0047 4.71025 21.2445C5.83022 22.8642 6.96412 24.3182 8.5172 24.3182C8.54647 24.3182 8.57582 24.3176 8.60588 24.3164C9.33556 24.2873 9.86285 24.0627 10.3727 23.8456C10.9451 23.6016 11.537 23.3494 12.4656 23.3494C13.3489 23.3494 13.9126 23.5934 14.4578 23.8293C14.9951 24.0618 15.5485 24.3023 16.3662 24.2869C18.1156 24.2543 19.1897 22.6854 20.1374 21.3014C21.1262 19.8563 21.6223 18.4532 21.7897 17.917L21.7964 17.8957C21.8283 17.8004 21.7833 17.6964 21.6919 17.6544C21.6894 17.6532 21.6801 17.6494 21.6775 17.6483C21.3695 17.5223 18.6672 16.3235 18.6387 13.056C18.6124 10.4014 20.666 8.99561 21.0779 8.74082L21.0971 8.72886C21.1417 8.70014 21.1728 8.65458 21.1833 8.60248C21.1938 8.55047 21.1828 8.49633 21.1529 8.45258C19.7354 6.3782 17.5628 6.06557 16.6881 6.02795C16.5612 6.01528 16.4302 6.00891 16.2986 6.00891C15.2713 6.00891 14.2871 6.39692 13.4965 6.70869C12.9507 6.9239 12.4792 7.10976 12.1541 7.10976C11.7888 7.10976 11.3147 6.92162 10.7656 6.70381C10.0315 6.41243 9.19935 6.08225 8.31843 6.08225C8.29742 6.08225 8.27673 6.08249 8.25635 6.08288C6.20808 6.11302 4.27266 7.28485 3.20564 9.14064Z" fill="#181C2A"/>
<path d="M16.69 0.318327C15.4496 0.368845 13.9617 1.13236 13.0724 2.17404C12.3166 3.04961 11.5782 4.50944 11.7728 5.98091C11.785 6.07298 11.8599 6.14403 11.9525 6.15119C12.0362 6.15772 12.1217 6.16103 12.2068 6.16111C13.4196 6.16111 14.728 5.49013 15.6215 4.40974C16.5619 3.26891 17.0374 1.80483 16.8936 0.493409C16.8822 0.390642 16.7918 0.314314 16.69 0.318327Z" fill="#181C2A"/>
</svg>
