<?xml version="1.0" encoding="UTF-8"?>
<svg width="240px" height="240px" viewBox="0 0 240 240" version="1.1" xmlns="http://www.w3.org/2000/svg" xmlns:xlink="http://www.w3.org/1999/xlink">
    <!-- Generator: Sketch 52.6 (67491) - http://www.bohemiancoding.com/sketch -->
    <title>Group 540</title>
    <desc>Created with Sketch.</desc>
    <g id="Page-1" stroke="none" stroke-width="1" fill="none" fill-rule="evenodd">
        <g id="Group-540" transform="translate(25.000000, 25.000000)" stroke-width="50">
            <path d="M190,95 C190,110.279 186.315,125.333 179.256,138.885 C172.198,152.436 161.976,164.085 149.456,172.843 C136.936,181.602 122.488,187.211 107.338,189.195 C92.188,191.18 76.783,189.481 62.4296,184.242 C48.0763,179.004 35.1983,170.381 24.8882,159.104 C14.578,147.828 7.1398,134.231 3.2047,119.467 C-0.7304,104.703 -1.0464,89.208 2.2836,74.2956 C5.6136,59.3835 12.4913,45.4947 22.3333,33.8073" id="Path" stroke="#004DE0"></path>
            <path d="M133.027,7.9427 C150.012,15.3619 164.456,27.5879 174.579,43.1144 C184.703,58.6408 190.063,76.789 189.999567,95.324" id="Path" stroke="#27DC8F"></path>
            <path d="M190,95 C190,97.664 189.888,100.326 189.664,102.98" id="Path" stroke="#BECFE2"></path>
            <path d="M86.186,0.4097 C102.32,-1.0936 118.571,1.5549 133.392,8.1034" id="Path" stroke="#A822E8"></path>
            <path d="M42.9784,15.5094 C56.0295,6.9683 70.983,1.772 86.518,0.3794" id="Path" stroke="#FD5B70"></path>
            <path d="M22.1685,34.0035 C28.1837,26.8212 35.2283,20.5681 43.0735,15.4473" id="Path" stroke="#FFB13D"></path>
        </g>
    </g>
</svg>