<svg xmlns="http://www.w3.org/2000/svg" xmlns:xlink="http://www.w3.org/1999/xlink" fill="none" version="1.1" width="916.0685424804688" height="968.9100341796875" viewBox="0 0 916.0685424804688 968.9100341796875"><defs><filter id="master_svg0_0_73" filterUnits="userSpaceOnUse" color-interpolation-filters="sRGB" x="-20" y="-20" width="976.0685424804688" height="1028.9100341796875"><feFlood flood-opacity="0" result="BackgroundImageFix"/><feColorMatrix in="SourceAlpha" type="matrix" values="0 0 0 0 0 0 0 0 0 0 0 0 0 0 0 0 0 0 127 0"/><feOffset dy="10" dx="10"/><feGaussianBlur stdDeviation="15"/><feColorMatrix type="matrix" values="0 0 0 0 0 0 0 0 0 0 0 0 0 0 0 0 0 0 0.25 0"/><feBlend mode="normal" in2="BackgroundImageFix" result="effect1_dropShadow"/><feBlend mode="normal" in="SourceGraphic" in2="effect1_dropShadow" result="shape"/></filter><mask id="master_svg1_0_681"><g style="mix-blend-mode:passthrough"><ellipse cx="475.7587890625" cy="493.4996337890625" rx="201.5" ry="201.5" fill="#FFFFFF" fill-opacity="1"/></g></mask><filter id="master_svg2_0_686" filterUnits="userSpaceOnUse" color-interpolation-filters="sRGB" x="341.483154296875" y="345.3632507324219" width="375.97161865234375" height="375.97161865234375"><feFlood flood-opacity="0" result="BackgroundImageFix"/><feBlend mode="normal" in="SourceGraphic" in2="BackgroundImageFix" result="shape"/><feGaussianBlur stdDeviation="43.31470489501953" result="effect1_foregroundBlur"/></filter><filter id="master_svg3_0_689" filterUnits="userSpaceOnUse" color-interpolation-filters="sRGB" x="86.62937927246094" y="191.28995859666338" width="651.0559136024767" height="634.4113268109677"><feFlood flood-opacity="0" result="BackgroundImageFix"/><feBlend mode="normal" in="SourceGraphic" in2="BackgroundImageFix" result="shape"/><feGaussianBlur stdDeviation="43.31470489501953" result="effect1_foregroundBlur"/></filter><filter id="master_svg4_0_692" filterUnits="userSpaceOnUse" color-interpolation-filters="sRGB" x="297.1171329900758" y="223.37022399902344" width="414.24226768516155" height="392.3333311047518"><feFlood flood-opacity="0" result="BackgroundImageFix"/><feBlend mode="normal" in="SourceGraphic" in2="BackgroundImageFix" result="shape"/><feGaussianBlur stdDeviation="43.31470489501953" result="effect1_foregroundBlur"/></filter><filter id="master_svg5_0_695" filterUnits="userSpaceOnUse" color-interpolation-filters="sRGB" x="152.63112258911133" y="302.69988418435923" width="471.48951275268246" height="462.2011542425248"><feFlood flood-opacity="0" result="BackgroundImageFix"/><feBlend mode="normal" in="SourceGraphic" in2="BackgroundImageFix" result="shape"/><feGaussianBlur stdDeviation="43.31470489501953" result="effect1_foregroundBlur"/></filter><filter id="master_svg6_0_698" filterUnits="userSpaceOnUse" color-interpolation-filters="sRGB" x="397.5895233154297" y="245.36344146728516" width="418.47935485839844" height="557.7794494628906"><feFlood flood-opacity="0" result="BackgroundImageFix"/><feBlend mode="normal" in="SourceGraphic" in2="BackgroundImageFix" result="shape"/><feGaussianBlur stdDeviation="50" result="effect1_foregroundBlur"/></filter><filter id="master_svg7_0_701" filterUnits="userSpaceOnUse" color-interpolation-filters="sRGB" x="281.2587890625" y="270.9996337890625" width="274" height="274"><feFlood flood-opacity="0" result="BackgroundImageFix"/><feBlend mode="normal" in="SourceGraphic" in2="BackgroundImageFix" result="shape"/><feGaussianBlur stdDeviation="35" result="effect1_foregroundBlur"/></filter><filter id="master_svg8_0_704" filterUnits="userSpaceOnUse" color-interpolation-filters="sRGB" x="-40.3247260330827" y="-176.74296599595982" width="552.1779711843119" height="591.3929904100223"><feFlood flood-opacity="0" result="BackgroundImageFix"/><feBlend mode="normal" in="SourceGraphic" in2="BackgroundImageFix" result="shape"/><feGaussianBlur stdDeviation="50" result="effect1_foregroundBlur"/></filter><filter id="master_svg9_0_707" filterUnits="userSpaceOnUse" color-interpolation-filters="sRGB" x="365.2587890625" y="412.8995361328125" width="198.355370759964" height="181.67055320739746"><feFlood flood-opacity="0" result="BackgroundImageFix"/><feBlend mode="normal" in="SourceGraphic" in2="BackgroundImageFix" result="shape"/><feColorMatrix in="SourceAlpha" type="matrix" result="hardAlpha" values="0 0 0 0 0 0 0 0 0 0 0 0 0 0 0 0 0 0 127 0"/><feOffset dy="5.1977643966674805" dx="1.7325880527496338"/><feGaussianBlur stdDeviation="2.5988821983337402"/><feComposite in2="hardAlpha" operator="arithmetic" k2="-1" k3="1"/><feColorMatrix type="matrix" values="0 0 0 0 0 0 0 0 0 0 0 0 0 0 0 0 0 0 0.25 0"/><feBlend mode="normal" in2="shape" result="effect1_innerShadow"/></filter></defs><g filter="url(#master_svg0_0_73)" style="mix-blend-mode:passthrough"><g mask="url(#master_svg1_0_681)"><g style="mix-blend-mode:passthrough"><ellipse cx="475.7587890625" cy="493.4996337890625" rx="201.5" ry="201.5" fill="#27A6E5" fill-opacity="1"/></g><g filter="url(#master_svg2_0_686)" style="mix-blend-mode:passthrough"><ellipse cx="529.4689636230469" cy="533.3490600585938" rx="101.35639953613281" ry="101.35639953613281" fill="#6DB9FF" fill-opacity="1"/></g><g filter="url(#master_svg3_0_689)" style="mix-blend-mode:passthrough"><ellipse cx="250.8780288696289" cy="724.8541870117188" rx="77.6192398071289" ry="204.09600830078125" transform="matrix(0.6734404563903809,-0.7392414212226868,0.7392414212226868,0.6734404563903809,-328.38670506100607,298.13862663670443)" fill="#2BB0F2" fill-opacity="1"/></g><g filter="url(#master_svg4_0_692)" style="mix-blend-mode:passthrough"><ellipse cx="597.2152786254883" cy="352.7079277038574" rx="76.84027862548828" ry="42.70829391479492" transform="matrix(0.849129319190979,0.5281849503517151,-0.5281849503517151,0.849129319190979,242.24647170792014,-228.0843877389707)" fill="#27A6E5" fill-opacity="1"/></g><g filter="url(#master_svg5_0_695)" style="mix-blend-mode:passthrough"><ellipse cx="282.57523345947266" cy="695.3433303833008" rx="43.314701080322266" ry="113.8938980102539" transform="matrix(0.6734404563903809,-0.7392414212226868,0.7392414212226868,0.6734404563903809,-351.6986944990458,366.7491572662741)" fill="#5AC8FF" fill-opacity="1"/></g><g filter="url(#master_svg6_0_698)" style="mix-blend-mode:passthrough"><path d="M523.6732233154297,643.3084414672851C488.5345433154297,643.3084414672851,489.2572733154297,676.7714414672852,523.6732233154297,703.1424414672852C523.6732233154297,703.1424414672852,618.4155233154297,689.3474414672851,618.4155233154297,689.3474414672851C618.4155233154297,689.3474414672851,691.6725233154297,624.9424414672851,691.6725233154297,624.9424414672851C691.6725233154297,624.9424414672851,716.0685233154297,542.0894414672852,716.0685233154297,542.0894414672852C716.0685233154297,542.0894414672852,708.3065233154297,428.21674146728515,708.3065233154297,428.21674146728515C708.3065233154297,428.21674146728515,656.5345233154296,345.36344146728516,656.5345233154296,345.36344146728516C656.5345233154296,345.36344146728516,618.4155233154297,361.5259414672852,618.4155233154297,361.5259414672852C618.4155233154297,361.5259414672852,605.7325233154297,420.1355414672852,605.7325233154297,420.1355414672852C605.7325233154297,420.1355414672852,656.5345233154296,527.1514414672852,656.5345233154296,527.1514414672852C658.5675233154298,554.8544414672851,649.0885233154297,571.5334414672851,626.2475233154297,601.9234414672851C587.3892233154297,637.6114414672852,564.7079233154296,643.0394414672851,523.6732233154297,643.3084414672851C523.6732233154297,643.3084414672851,523.6732233154297,643.3084414672851,523.6732233154297,643.3084414672851Z" fill="#1A6A91" fill-opacity="1"/></g><g filter="url(#master_svg7_0_701)" style="mix-blend-mode:passthrough"><ellipse cx="418.2587890625" cy="407.9996337890625" rx="67" ry="67" fill="#FFFFFF" fill-opacity="1"/></g><g filter="url(#master_svg8_0_704)" style="mix-blend-mode:passthrough"><path d="M368.0301171875,752.9240244140625C343.31325718749997,752.9240244140625,343.8216271875,776.4530244140625,368.0301171875,794.9960244140625C368.0301171875,794.9960244140625,427.0968171875,756.5220244140626,427.0968171875,756.5220244140626C427.0968171875,756.5220244140626,478.62661718749996,711.2350244140625,478.62661718749996,711.2350244140625C478.62661718749996,711.2350244140625,495.78661718750004,652.9770244140625,495.78661718750004,652.9770244140625C495.78661718750004,652.9770244140625,490.3266171875,572.9081244140625,490.3266171875,572.9081244140625C490.3266171875,572.9081244140625,453.9096171875,514.6500244140625,453.9096171875,514.6500244140625C453.9096171875,514.6500244140625,427.0968171875,526.0146244140625,427.0968171875,526.0146244140625C427.0968171875,526.0146244140625,430.8074171875,561.8676244140624,430.8074171875,561.8676244140624C430.8074171875,561.8676244140624,444.6374171875,641.6680244140625,444.6374171875,641.6680244140625C446.0674171875,661.1470244140626,441.0112171875,671.1730244140625,424.94451718749997,692.5420244140626C397.6114171875,717.6360244140625,388.13201718749997,739.8300244140626,368.0301171875,752.9240244140625C368.0301171875,752.9240244140625,368.0301171875,752.9240244140625,368.0301171875,752.9240244140625Z" transform="matrix(-0.8379184603691101,-0.5457954406738281,0.5457954406738281,-0.8379184603691101,361.7945005312213,1136.7399586438478)" fill="#004D95" fill-opacity="1"/></g><g filter="url(#master_svg9_0_707)" style="mix-blend-mode:passthrough"><path d="M556.6837890625,418.9669561328125C556.6837890625,418.9669561328125,526.4037890625,577.0445361328125,526.4037890625,577.0445361328125C526.4037890625,577.0445361328125,522.1677890625,588.0045361328125,510.5287890625,582.7475361328125C510.5287890625,582.7475361328125,440.6658890625,527.2765361328125,440.6658890625,527.2765361328125C440.6658890625,527.2765361328125,440.3418890625,527.1135361328124,440.3418890625,527.1135361328124C449.7788890625,518.3385361328125,522.9567890625,450.2038361328125,526.1547890625,447.1154361328125C531.1057890625,442.3322361328125,528.0327890625,439.4847361328125,522.2837890625,443.0979361328125C522.2837890625,443.0979361328125,414.1909890625,514.1835361328125,414.1909890625,514.1835361328125C414.1909890625,514.1835361328125,372.4889990625,499.65303613281253,372.4889990625,499.65303613281253C372.4889990625,499.65303613281253,365.9263320625,497.2356361328125,365.2949869625,491.9793361328125C364.6553350625,486.7143361328125,372.7049790625,483.8668361328125,372.7049790625,483.8668361328125C372.7049790625,483.8668361328125,542.7107890625,414.8031861328125,542.7107890625,414.8031861328125C542.7107890625,414.8031861328125,556.6837890625,408.4456761328125,556.6837890625,418.9669561328125C556.6837890625,418.9669561328125,556.6837890625,418.9669561328125,556.6837890625,418.9669561328125Z" fill="#FEFEFE" fill-opacity="1"/></g></g></g></svg>