<svg xmlns="http://www.w3.org/2000/svg" xmlns:xlink="http://www.w3.org/1999/xlink" fill="none" version="1.1" width="916.747802734375" height="968.85546875" viewBox="0 0 916.747802734375 968.85546875"><defs><filter id="master_svg0_0_649" filterUnits="userSpaceOnUse" color-interpolation-filters="sRGB" x="-20" y="-20" width="976.747802734375" height="1028.85546875"><feFlood flood-opacity="0" result="BackgroundImageFix"/><feColorMatrix in="SourceAlpha" type="matrix" values="0 0 0 0 0 0 0 0 0 0 0 0 0 0 0 0 0 0 127 0"/><feOffset dy="10" dx="10"/><feGaussianBlur stdDeviation="15"/><feColorMatrix type="matrix" values="0 0 0 0 0 0 0 0 0 0 0 0 0 0 0 0 0 0 0.25 0"/><feBlend mode="normal" in2="BackgroundImageFix" result="effect1_dropShadow"/><feBlend mode="normal" in="SourceGraphic" in2="effect1_dropShadow" result="shape"/></filter><mask id="master_svg1_0_651"><g style="mix-blend-mode:passthrough"><ellipse cx="476.43798828125" cy="493.4996337890625" rx="201.5" ry="201.5" fill="#FFFFFF" fill-opacity="1"/></g></mask><filter id="master_svg2_0_656" filterUnits="userSpaceOnUse" color-interpolation-filters="sRGB" x="342.162353515625" y="345.3632507324219" width="375.97161865234375" height="375.97161865234375"><feFlood flood-opacity="0" result="BackgroundImageFix"/><feBlend mode="normal" in="SourceGraphic" in2="BackgroundImageFix" result="shape"/><feGaussianBlur stdDeviation="43.31470489501953" result="effect1_foregroundBlur"/></filter><filter id="master_svg3_0_659" filterUnits="userSpaceOnUse" color-interpolation-filters="sRGB" x="86.62940979003906" y="191.23537790818682" width="651.0559136024767" height="634.4113268109677"><feFlood flood-opacity="0" result="BackgroundImageFix"/><feBlend mode="normal" in="SourceGraphic" in2="BackgroundImageFix" result="shape"/><feGaussianBlur stdDeviation="43.31470489501953" result="effect1_foregroundBlur"/></filter><filter id="master_svg4_0_662" filterUnits="userSpaceOnUse" color-interpolation-filters="sRGB" x="288.59351238460704" y="223.38915634155273" width="414.24226768516155" height="392.3333311047518"><feFlood flood-opacity="0" result="BackgroundImageFix"/><feBlend mode="normal" in="SourceGraphic" in2="BackgroundImageFix" result="shape"/><feGaussianBlur stdDeviation="43.31470489501953" result="effect1_foregroundBlur"/></filter><filter id="master_svg5_0_665" filterUnits="userSpaceOnUse" color-interpolation-filters="sRGB" x="153.31032180786133" y="302.69988418435923" width="471.48951275268246" height="462.2011542425248"><feFlood flood-opacity="0" result="BackgroundImageFix"/><feBlend mode="normal" in="SourceGraphic" in2="BackgroundImageFix" result="shape"/><feGaussianBlur stdDeviation="43.31470489501953" result="effect1_foregroundBlur"/></filter><filter id="master_svg6_0_668" filterUnits="userSpaceOnUse" color-interpolation-filters="sRGB" x="398.2687225341797" y="245.36344146728516" width="418.47935485839844" height="557.7794494628906"><feFlood flood-opacity="0" result="BackgroundImageFix"/><feBlend mode="normal" in="SourceGraphic" in2="BackgroundImageFix" result="shape"/><feGaussianBlur stdDeviation="50" result="effect1_foregroundBlur"/></filter><filter id="master_svg7_0_671" filterUnits="userSpaceOnUse" color-interpolation-filters="sRGB" x="281.93798828125" y="270.9996337890625" width="274" height="274"><feFlood flood-opacity="0" result="BackgroundImageFix"/><feBlend mode="normal" in="SourceGraphic" in2="BackgroundImageFix" result="shape"/><feGaussianBlur stdDeviation="35" result="effect1_foregroundBlur"/></filter><filter id="master_svg8_0_674" filterUnits="userSpaceOnUse" color-interpolation-filters="sRGB" x="-39.6455268143327" y="-176.74296599595982" width="552.1779711843119" height="591.3929904100223"><feFlood flood-opacity="0" result="BackgroundImageFix"/><feBlend mode="normal" in="SourceGraphic" in2="BackgroundImageFix" result="shape"/><feGaussianBlur stdDeviation="50" result="effect1_foregroundBlur"/></filter><filter id="master_svg9_0_677" filterUnits="userSpaceOnUse" color-interpolation-filters="sRGB" x="365.0323944091797" y="404.9643859863281" width="229.56792569160461" height="187.46603965759277"><feFlood flood-opacity="0" result="BackgroundImageFix"/><feBlend mode="normal" in="SourceGraphic" in2="BackgroundImageFix" result="shape"/><feColorMatrix in="SourceAlpha" type="matrix" result="hardAlpha" values="0 0 0 0 0 0 0 0 0 0 0 0 0 0 0 0 0 0 127 0"/><feOffset dy="5.1977643966674805" dx="1.7325880527496338"/><feGaussianBlur stdDeviation="2.5988821983337402"/><feComposite in2="hardAlpha" operator="arithmetic" k2="-1" k3="1"/><feColorMatrix type="matrix" values="0 0 0 0 0 0 0 0 0 0 0 0 0 0 0 0 0 0 0.25 0"/><feBlend mode="normal" in2="shape" result="effect1_innerShadow"/></filter></defs><g filter="url(#master_svg0_0_649)" style="mix-blend-mode:passthrough"><g mask="url(#master_svg1_0_651)"><g style="mix-blend-mode:passthrough"><ellipse cx="476.43798828125" cy="493.4996337890625" rx="201.5" ry="201.5" fill="#59BDFE" fill-opacity="1"/></g><g filter="url(#master_svg2_0_656)" style="mix-blend-mode:passthrough"><ellipse cx="530.1481628417969" cy="533.3490600585938" rx="101.35639953613281" ry="101.35639953613281" fill="#72A2FD" fill-opacity="1"/></g><g filter="url(#master_svg3_0_659)" style="mix-blend-mode:passthrough"><ellipse cx="250.87805938720703" cy="724.7996063232422" rx="77.6192398071289" ry="204.09600830078125" transform="matrix(0.6734404563903809,-0.7392414212226868,0.7392414212226868,0.6734404563903809,-328.34634678947896,298.12082535184345)" fill="#38C6FE" fill-opacity="1"/></g><g filter="url(#master_svg4_0_662)" style="mix-blend-mode:passthrough"><ellipse cx="588.6916580200195" cy="352.7268600463867" rx="76.84027862548828" ry="42.70829391479492" transform="matrix(0.849129319190979,0.5281849503517151,-0.5281849503517151,0.849129319190979,240.97050704261414,-223.57948327724762)" fill="#2D77FB" fill-opacity="1"/></g><g filter="url(#master_svg5_0_665)" style="mix-blend-mode:passthrough"><ellipse cx="283.25443267822266" cy="695.3433303833008" rx="43.314701080322266" ry="113.8938980102539" transform="matrix(0.6734404563903809,-0.7392414212226868,0.7392414212226868,0.6734404563903809,-351.4768955121508,367.2512494620362)" fill="#80E3FF" fill-opacity="1"/></g><g filter="url(#master_svg6_0_668)" style="mix-blend-mode:passthrough"><path d="M524.3524225341797,643.3084414672851C489.2137425341797,643.3084414672851,489.9364725341797,676.7714414672852,524.3524225341797,703.1424414672852C524.3524225341797,703.1424414672852,619.0947225341797,689.3474414672851,619.0947225341797,689.3474414672851C619.0947225341797,689.3474414672851,692.3517225341797,624.9424414672851,692.3517225341797,624.9424414672851C692.3517225341797,624.9424414672851,716.7477225341797,542.0894414672852,716.7477225341797,542.0894414672852C716.7477225341797,542.0894414672852,708.9857225341797,428.21674146728515,708.9857225341797,428.21674146728515C708.9857225341797,428.21674146728515,657.2137225341796,345.36344146728516,657.2137225341796,345.36344146728516C657.2137225341796,345.36344146728516,619.0947225341797,361.5259414672852,619.0947225341797,361.5259414672852C619.0947225341797,361.5259414672852,606.4117225341797,420.1355414672852,606.4117225341797,420.1355414672852C606.4117225341797,420.1355414672852,657.2137225341796,527.1514414672852,657.2137225341796,527.1514414672852C659.2467225341798,554.8544414672851,649.7677225341797,571.5334414672851,626.9267225341797,601.9234414672851C588.0684225341797,637.6114414672852,565.3871225341796,643.0394414672851,524.3524225341797,643.3084414672851C524.3524225341797,643.3084414672851,524.3524225341797,643.3084414672851,524.3524225341797,643.3084414672851Z" fill="#2153AD" fill-opacity="1"/></g><g filter="url(#master_svg7_0_671)" style="mix-blend-mode:passthrough"><ellipse cx="418.93798828125" cy="407.9996337890625" rx="67" ry="67" fill="#FFFFFF" fill-opacity="1"/></g><g filter="url(#master_svg8_0_674)" style="mix-blend-mode:passthrough"><path d="M368.70931640625,752.9240244140625C343.99245640624997,752.9240244140625,344.50082640625,776.4530244140625,368.70931640625,794.9960244140625C368.70931640625,794.9960244140625,427.77601640625,756.5220244140626,427.77601640625,756.5220244140626C427.77601640625,756.5220244140626,479.30581640624996,711.2350244140625,479.30581640624996,711.2350244140625C479.30581640624996,711.2350244140625,496.46581640625004,652.9770244140625,496.46581640625004,652.9770244140625C496.46581640625004,652.9770244140625,491.00581640625,572.9081244140625,491.00581640625,572.9081244140625C491.00581640625,572.9081244140625,454.58881640625,514.6500244140625,454.58881640625,514.6500244140625C454.58881640625,514.6500244140625,427.77601640625,526.0146244140625,427.77601640625,526.0146244140625C427.77601640625,526.0146244140625,431.48661640625,561.8676244140624,431.48661640625,561.8676244140624C431.48661640625,561.8676244140624,445.31661640625,641.6680244140625,445.31661640625,641.6680244140625C446.74661640625,661.1470244140626,441.69041640625,671.1730244140625,425.62371640624997,692.5420244140626C398.29061640625,717.6360244140625,388.81121640624997,739.8300244140626,368.70931640625,752.9240244140625C368.70931640625,752.9240244140625,368.70931640625,752.9240244140625,368.70931640625,752.9240244140625Z" transform="matrix(-0.8379184603691101,-0.5457954406738281,0.5457954406738281,-0.8379184603691101,363.0428133136302,1137.1106624807508)" fill="#003595" fill-opacity="1"/></g><g filter="url(#master_svg9_0_677)" style="mix-blend-mode:passthrough"><path d="M587.6703944091797,426.5305859863281C579.7183944091797,429.93578598632814,570.6313944091796,432.20598598632813,561.5443944091796,433.34108598632815C570.6313944091796,427.6656859863281,578.5823944091796,418.5851859863281,581.9903944091797,408.3696259863281C572.9033944091797,414.04495598632815,563.8163944091797,417.4501859863281,552.4573944091796,419.7202859863281C544.5053944091796,410.6397559863281,532.0103944091798,404.9643859863281,519.5153944091796,404.9643859863281C494.5253944091797,404.9643859863281,474.0793944091797,425.3955859863281,474.0793944091797,450.3670859863281C474.0793944091797,453.77228598632814,474.0793944091797,457.17738598632815,475.2153944091797,460.5825859863281C437.73039440917967,458.3124859863281,403.6531944091797,440.15138598632814,380.9349944091797,412.9098159863281C377.52729440917966,419.72018598632815,375.2554944091797,427.6656859863281,375.2554944091797,435.6111859863281C375.2554944091797,451.5020859863281,383.2068944091797,465.12288598632813,395.7017944091797,473.0683859863281C387.7504944091797,473.0683859863281,380.9349944091797,470.7982859863281,375.2554944091797,467.3930859863281C375.2554944091797,488.95928598632815,391.1580944091797,508.2553859863281,411.60449440917967,511.66038598632815C408.1966944091797,512.7953859863281,403.6531944091797,512.7953859863281,399.1095944091797,512.7953859863281C395.70189440917966,512.7953859863281,393.4299944091797,512.7953859863281,390.02229440917966,511.66038598632815C395.7017944091797,529.8213859863281,412.7404944091797,543.4423859863282,433.1867944091797,543.4423859863282C417.2840944091797,555.9283859863281,397.9736944091797,562.7383859863281,376.3914944091797,562.7383859863281C372.9837444091797,562.7383859863281,369.5760244091797,562.7383859863281,365.0323944091797,561.6033859863281C385.4786944091797,574.0893859863281,409.3326944091797,582.0353859863282,435.4585944091797,582.0353859863282C519.5153944091796,582.0353859863282,564.9513944091797,512.7953859863281,564.9513944091797,452.6371859863281C564.9513944091797,452.6371859863281,564.9513944091797,446.9617859863281,564.9513944091797,446.9617859863281C574.0393944091797,443.5565859863281,581.9903944091797,435.61108598632813,587.6703944091797,426.5305859863281C587.6703944091797,426.5305859863281,587.6703944091797,426.5305859863281,587.6703944091797,426.5305859863281Z" fill="#FFFFFF" fill-opacity="1"/></g></g></g></svg>