<?xml version="1.0" encoding="UTF-8"?>
<svg width="690px" height="1185px" viewBox="0 0 690 1185" version="1.1" xmlns="http://www.w3.org/2000/svg" xmlns:xlink="http://www.w3.org/1999/xlink">
    <!-- Generator: Sketch 52.6 (67491) - http://www.bohemiancoding.com/sketch -->
    <title>what-line</title>
    <desc>Created with Sketch.</desc>
    <g id="Page-1" stroke="none" stroke-width="1" fill="none" fill-rule="evenodd">
        <g id="what-line" transform="translate(1.000000, 1.000000)">
            <path d="M461.5,0 L70.5,0 C37.3629,0 10.5,26.8629 10.5,60 L10.5,157.933 C10.5,302.62 10.5,515.5 10.5,626 C10.5,668.142 44.3,702 111.5,702 L210,702 C235,703.167 285,731.8 285,789 L285,831.5 C283.5,851.833 299.9,892.5 377.5,892.5 L618.5,892.5 C638.167,893.167 677.5,905.9 677.5,951.5 C677.5,997.1 677.5,1084.5 677.5,1131.5 C676.333,1145.33 666.4,1183 636,1183 C605.6,1183 612,1183 584,1183" id="Path" stroke="#999CB8" stroke-linecap="round" stroke-dasharray="3,16"></path>
            <path d="M7.47723217,145.399646 L7.47723217,140.792746 L1.26264217,136.406046 C0.74375217,136.134486 0.33698217,135.680646 0.13570217,135.121966 C-0.0773478304,134.530606 -0.0379578304,133.881536 0.24275217,133.320146 L0.25274217,133.300166 L0.26361217,133.280656 L0.58394217,132.705726 L1.00022217,131.958606 L1.80286217,132.253976 L7.47723217,134.342146 L7.47723217,132.714486 C7.30862217,132.614666 7.13869217,132.511636 6.97137217,132.406036 C6.49490217,132.105336 6.00415217,131.762206 5.58750217,131.376476 C5.17757217,130.996966 4.77832217,130.520866 4.57072217,129.939946 C4.46235217,129.636676 4.41891217,129.314196 4.44389217,128.992656 C4.46887217,128.671136 4.56155217,128.359476 4.71465217,128.076726 L4.73888217,128.031986 L4.76751217,127.989946 L5.00428217,127.642316 L5.44176217,127 L6.17220217,127.265329 L10.4707022,128.826726 L14.8244022,127.264034 L15.5530022,127.002525 L15.9888022,127.642316 L16.2255022,127.989946 L16.2410022,128.012666 L16.2552022,128.036206 C16.4169022,128.304166 16.5230022,128.602236 16.5655022,128.913316 C16.6081022,129.224436 16.5861022,129.540446 16.5011022,129.842526 C16.4161022,130.144506 16.2705022,130.424926 16.0745022,130.668246 C15.4685022,131.420536 14.6298022,132.015266 13.8592022,132.507786 C13.7904022,132.551776 13.7225022,132.594756 13.6555022,132.636826 L13.6555022,134.285636 L19.1763022,132.253976 L19.9642022,131.964036 L20.3862022,132.689826 L20.7204022,133.264756 L20.7374022,133.293926 L20.7523022,133.324166 C21.0314022,133.888576 21.0671022,134.539996 20.8493022,135.131636 C20.6442022,135.688906 20.2344022,136.139926 19.7138022,136.408046 L13.6555022,140.692346 L13.6555022,145.399646 C13.6555022,147.097646 12.2336022,148.405246 10.5664022,148.405246 C8.89910217,148.405246 7.47723217,147.097646 7.47723217,145.399646 Z" id="Path" stroke="#FFFFFF" stroke-width="2" fill="#76D462"></path>
            <path d="M7.47723217,474.399646 L7.47723217,469.792746 L1.26264217,465.406046 C0.74375217,465.134486 0.33698217,464.680646 0.13570217,464.121966 C-0.0773478304,463.530606 -0.0379578304,462.881536 0.24275217,462.320146 L0.25274217,462.300166 L0.26361217,462.280656 L0.58394217,461.705726 L1.00022217,460.958606 L1.80286217,461.253976 L7.47723217,463.342146 L7.47723217,461.714486 C7.30862217,461.614666 7.13869217,461.511636 6.97137217,461.406036 C6.49490217,461.105336 6.00415217,460.762206 5.58750217,460.376476 C5.17757217,459.996966 4.77832217,459.520866 4.57072217,458.939946 C4.46235217,458.636676 4.41891217,458.314196 4.44389217,457.992656 C4.46887217,457.671136 4.56155217,457.359476 4.71465217,457.076726 L4.73888217,457.031986 L4.76751217,456.989946 L5.00428217,456.642316 L5.44176217,456 L6.17220217,456.265329 L10.4707022,457.826726 L14.8244022,456.264034 L15.5530022,456.002525 L15.9888022,456.642316 L16.2255022,456.989946 L16.2410022,457.012666 L16.2552022,457.036206 C16.4169022,457.304166 16.5230022,457.602236 16.5655022,457.913316 C16.6081022,458.224436 16.5861022,458.540446 16.5011022,458.842526 C16.4161022,459.144506 16.2705022,459.424926 16.0745022,459.668246 C15.4685022,460.420536 14.6298022,461.015266 13.8592022,461.507786 C13.7904022,461.551776 13.7225022,461.594756 13.6555022,461.636826 L13.6555022,463.285636 L19.1763022,461.253976 L19.9642022,460.964036 L20.3862022,461.689826 L20.7204022,462.264756 L20.7374022,462.293926 L20.7523022,462.324166 C21.0314022,462.888576 21.0671022,463.539996 20.8493022,464.131636 C20.6442022,464.688906 20.2344022,465.139926 19.7138022,465.408046 L13.6555022,469.692346 L13.6555022,474.399646 C13.6555022,476.097646 12.2336022,477.405246 10.5664022,477.405246 C8.89910217,477.405246 7.47723217,476.097646 7.47723217,474.399646 Z" id="Path" stroke="#FFFFFF" stroke-width="2" fill="#76D462"></path>
            <path d="M292.023313,868.170309 L292.023313,863.563409 L285.808723,859.176709 C285.289833,858.905149 284.883063,858.451309 284.681783,857.892629 C284.468733,857.301269 284.508123,856.652199 284.788833,856.090809 L284.798823,856.070829 L284.809693,856.051319 L285.130023,855.476389 L285.546303,854.729269 L286.348943,855.024639 L292.023313,857.112809 L292.023313,855.485149 C291.854703,855.385329 291.684773,855.282299 291.517453,855.176699 C291.040983,854.875999 290.550233,854.532869 290.133583,854.147139 C289.723653,853.767629 289.324403,853.291529 289.116803,852.710609 C289.008433,852.407339 288.964993,852.084859 288.989973,851.763319 C289.014953,851.441799 289.107633,851.130139 289.260733,850.847389 L289.284963,850.802649 L289.313593,850.760609 L289.550363,850.412979 L289.987843,849.770663 L290.718283,850.035992 L295.016783,851.597389 L299.370483,850.034697 L300.099083,849.773188 L300.534883,850.412979 L300.771583,850.760609 L300.787083,850.783329 L300.801283,850.806869 C300.962983,851.074829 301.069083,851.372899 301.111583,851.683979 C301.154183,851.995099 301.132183,852.311109 301.047183,852.613189 C300.962183,852.915169 300.816583,853.195589 300.620583,853.438909 C300.014583,854.191199 299.175883,854.785929 298.405283,855.278449 C298.336483,855.322439 298.268583,855.365419 298.201583,855.407489 L298.201583,857.056299 L303.722383,855.024639 L304.510283,854.734699 L304.932283,855.460489 L305.266483,856.035419 L305.283483,856.064589 L305.298383,856.094829 C305.577483,856.659239 305.613183,857.310659 305.395383,857.902299 C305.190283,858.459569 304.780483,858.910589 304.259883,859.178709 L298.201583,863.463009 L298.201583,868.170309 C298.201583,869.868309 296.779683,871.175909 295.112483,871.175909 C293.445183,871.175909 292.023313,869.868309 292.023313,868.170309 Z" id="Path" stroke="#FFFFFF" stroke-width="2" fill="#76D462" transform="translate(295.041310, 860.473286) rotate(-36.000000) translate(-295.041310, -860.473286) "></path>
            <path d="M674.477232,1073.39965 L674.477232,1068.79275 L668.262642,1064.40605 C667.743752,1064.13449 667.336982,1063.68065 667.135702,1063.12197 C666.922652,1062.53061 666.962042,1061.88154 667.242752,1061.32015 L667.252742,1061.30017 L667.263612,1061.28066 L667.583942,1060.70573 L668.000222,1059.95861 L668.802862,1060.25398 L674.477232,1062.34215 L674.477232,1060.71449 C674.308622,1060.61467 674.138692,1060.51164 673.971372,1060.40604 C673.494902,1060.10534 673.004152,1059.76221 672.587502,1059.37648 C672.177572,1058.99697 671.778322,1058.52087 671.570722,1057.93995 C671.462352,1057.63668 671.418912,1057.3142 671.443892,1056.99266 C671.468872,1056.67114 671.561552,1056.35948 671.714652,1056.07673 L671.738882,1056.03199 L671.767512,1055.98995 L672.004282,1055.64232 L672.441762,1055 L673.172202,1055.26533 L677.470702,1056.82673 L681.824402,1055.26403 L682.553002,1055.00253 L682.988802,1055.64232 L683.225502,1055.98995 L683.241002,1056.01267 L683.255202,1056.03621 C683.416902,1056.30417 683.523002,1056.60224 683.565502,1056.91332 C683.608102,1057.22444 683.586102,1057.54045 683.501102,1057.84253 C683.416102,1058.14451 683.270502,1058.42493 683.074502,1058.66825 C682.468502,1059.42054 681.629802,1060.01527 680.859202,1060.50779 C680.790402,1060.55178 680.722502,1060.59476 680.655502,1060.63683 L680.655502,1062.28564 L686.176302,1060.25398 L686.964202,1059.96404 L687.386202,1060.68983 L687.720402,1061.26476 L687.737402,1061.29393 L687.752302,1061.32417 C688.031402,1061.88858 688.067102,1062.54 687.849302,1063.13164 C687.644202,1063.68891 687.234402,1064.13993 686.713802,1064.40805 L680.655502,1068.69235 L680.655502,1073.39965 C680.655502,1075.09765 679.233602,1076.40525 677.566402,1076.40525 C675.899102,1076.40525 674.477232,1075.09765 674.477232,1073.39965 Z" id="Path" stroke="#FFFFFF" stroke-width="2" fill="#76D462"></path>
        </g>
    </g>
</svg>