<svg width="80" height="80" viewBox="0 0 80 80" fill="none" xmlns="http://www.w3.org/2000/svg">
<rect width="80" height="80" rx="20" fill="#8685D1"/>
<path fill-rule="evenodd" clip-rule="evenodd" d="M40.4444 35.9924H40.454C40.6562 35.9924 40.8571 35.9979 41.0567 36.0088L41.0614 36.009L41.0718 36.0097L41.0815 36.0101L41.0847 36.0103L41.106 36.0116L41.1118 36.012L41.1158 36.0122L41.1203 36.0125C41.1303 36.0131 41.1404 36.0137 41.1504 36.0144C41.1615 36.015 41.1724 36.0157 41.1833 36.0165C46.8328 36.3921 51.3054 41.0998 51.3054 46.8437C51.3054 50.0795 49.8859 52.9865 47.6362 54.9753H54.8958C54.9543 54.9787 55.0128 54.9821 55.0713 54.9856C55.2251 55.0127 55.2658 55.0129 55.413 55.0665C56.0161 55.286 56.4437 55.9205 56.4055 56.5755C56.3748 57.1024 56.0471 57.6018 55.5746 57.839C55.4172 57.918 55.2462 57.9693 55.0713 57.9898C55.0133 57.9966 54.9543 57.9966 54.8958 58H25.9209C25.8624 57.9966 25.8036 57.9966 25.7454 57.9898C25.1647 57.9219 24.6423 57.4895 24.4721 56.9214C24.2877 56.3052 24.5417 55.5846 25.0899 55.224C25.237 55.1273 25.4009 55.0567 25.5722 55.0161C25.7247 54.98 25.7652 54.9845 25.9209 54.9753H33.2718C31.0221 52.9865 29.6027 50.0795 29.6027 46.8437C29.6027 43.0792 31.5237 39.7601 34.438 37.8136L34.441 37.8114C34.4505 37.805 34.4606 37.7984 34.4702 37.792L34.4907 37.7786L34.494 37.7764L34.4974 37.7741L34.5045 37.7694L34.5113 37.7649L34.5161 37.7619C36.2162 36.6474 38.2476 35.9971 40.4294 35.9924H40.4365H40.4444ZM40.4429 54.9049C40.7023 54.9049 40.875 54.7407 40.875 54.4556V53.4014C43.3636 53.2545 45.1521 51.9325 45.1521 49.7464C45.1521 47.8539 43.9166 46.9036 41.549 46.3678L40.875 46.2209V43.1793C41.7045 43.2916 42.2489 43.7152 42.5858 44.4236C42.8623 44.9247 43.234 45.1753 43.7697 45.1753C44.4264 45.1753 44.8583 44.8038 44.8583 44.2336C44.8583 44.0521 44.8239 43.8792 44.7721 43.7064C44.3572 42.3757 42.9314 41.3648 40.875 41.2266V40.1465C40.875 39.8613 40.7023 39.6971 40.4429 39.6971C40.1837 39.6971 40.011 39.8613 40.011 40.1465V41.2266C37.6001 41.3475 35.872 42.6955 35.872 44.778C35.872 46.6442 37.1075 47.6554 39.3715 48.165L40.011 48.3121V51.4572C38.9221 51.3622 38.3779 50.8697 38.1014 50.1956C37.8593 49.6945 37.4965 49.4181 36.9606 49.4181C36.2522 49.4181 35.8288 49.8414 35.8288 50.4636C35.8288 50.6278 35.8633 50.8092 35.9325 51.008C36.3559 52.2694 37.7903 53.2978 40.011 53.4014V54.4556C40.011 54.7407 40.1837 54.9049 40.4429 54.9049ZM42.7414 50.0142C42.7414 50.8092 42.1193 51.3622 40.875 51.4572V48.5107C42.2576 48.8563 42.7414 49.2451 42.7414 50.0142ZM38.2914 44.5532C38.2914 43.8533 38.879 43.2743 40.011 43.1708V46.0223C38.8012 45.7112 38.2914 45.2533 38.2914 44.5532ZM29.1303 40.623C25.5034 38.8659 23 35.1486 23 30.8513C23 24.8623 27.8623 20 33.8513 20C39.8404 20 44.7027 24.8623 44.7027 30.8513C44.7027 32.1116 44.4875 33.3219 44.0916 34.4477C42.9167 34.1031 41.6948 33.9233 40.4749 33.9206C40.3573 33.9204 40.2394 33.9216 40.1218 33.9246C39.591 33.9381 39.0628 33.9848 38.5403 34.0632C38.6001 33.8059 38.6311 33.5326 38.6311 33.2446C38.6311 31.3521 37.3955 30.4016 35.028 29.8659L34.354 29.7191V26.6775C35.1835 26.7899 35.7279 27.2133 36.0649 27.9218C36.3414 28.423 36.713 28.6735 37.2487 28.6735C37.9054 28.6735 38.3373 28.302 38.3373 27.7317C38.3373 27.5503 38.3029 27.3774 38.2511 27.2046C37.8362 25.8739 36.4105 24.863 34.354 24.7247V23.6446C34.354 23.3595 34.1812 23.1953 33.9219 23.1953C33.6627 23.1953 33.4899 23.3595 33.4899 23.6446V24.7247C31.0791 24.8457 29.3509 26.1936 29.3509 28.2761C29.3509 30.1424 30.5866 31.1534 32.8505 31.6632L33.4899 31.8101V34.9554C32.4011 34.8604 31.8568 34.3679 31.5803 33.6938C31.3383 33.1927 30.9754 32.9163 30.4397 32.9163C29.7312 32.9163 29.3078 33.3396 29.3078 33.9618C29.3078 34.126 29.3423 34.3074 29.4114 34.506C29.7592 35.5423 30.7891 36.4211 32.3766 36.7595C31.0579 37.821 29.9492 39.1426 29.1303 40.623ZM36.2204 33.5124C36.2204 34.3074 35.5983 34.8604 34.354 34.9554V32.0089C35.7365 32.3545 36.2204 32.7433 36.2204 33.5124ZM31.7704 28.0514C31.7704 27.3515 32.358 26.7726 33.4899 26.6689V29.5203C32.2802 29.2092 31.7704 28.7512 31.7704 28.0514Z" fill="white"/>
<path fill-rule="evenodd" clip-rule="evenodd" d="M40.4429 54.9049C40.7023 54.9049 40.875 54.7407 40.875 54.4556V53.4014C43.3636 53.2545 45.1521 51.9325 45.1521 49.7464C45.1521 47.8539 43.9166 46.9036 41.549 46.3678L40.875 46.2209V43.1793C41.7045 43.2916 42.2489 43.7152 42.5858 44.4236C42.8623 44.9247 43.234 45.1753 43.7697 45.1753C44.4264 45.1753 44.8583 44.8038 44.8583 44.2336C44.8583 44.0521 44.8239 43.8792 44.7721 43.7064C44.3572 42.3757 42.9314 41.3648 40.875 41.2266V40.1465C40.875 39.8613 40.7023 39.6971 40.4429 39.6971C40.1837 39.6971 40.011 39.8613 40.011 40.1465V41.2266C37.6001 41.3475 35.872 42.6955 35.872 44.778C35.872 46.6442 37.1075 47.6554 39.3715 48.165L40.011 48.3121V51.4572C38.9221 51.3622 38.3779 50.8697 38.1014 50.1956C37.8593 49.6945 37.4965 49.4181 36.9606 49.4181C36.2522 49.4181 35.8288 49.8414 35.8288 50.4636C35.8288 50.6278 35.8633 50.8092 35.9325 51.008C36.3559 52.2694 37.7903 53.2978 40.011 53.4014V54.4556C40.011 54.7407 40.1837 54.9049 40.4429 54.9049ZM40.875 51.4572C42.1193 51.3622 42.7414 50.8092 42.7414 50.0142C42.7414 49.2451 42.2576 48.8563 40.875 48.5107V51.4572ZM40.011 43.1708C38.879 43.2743 38.2914 43.8533 38.2914 44.5532C38.2914 45.2533 38.8012 45.7112 40.011 46.0223V43.1708Z" fill="white"/>
<path fill-rule="evenodd" clip-rule="evenodd" d="M38.5403 34.0632C38.6001 33.8059 38.6311 33.5326 38.6311 33.2446C38.6311 31.3521 37.3955 30.4016 35.028 29.8659L34.354 29.7191V26.6775C35.1835 26.7899 35.7279 27.2133 36.0649 27.9218C36.3414 28.423 36.713 28.6735 37.2487 28.6735C37.9054 28.6735 38.3373 28.302 38.3373 27.7317C38.3373 27.5503 38.3029 27.3774 38.2511 27.2046C37.8362 25.8739 36.4105 24.863 34.354 24.7247V23.6446C34.354 23.3595 34.1812 23.1953 33.9219 23.1953C33.6627 23.1953 33.4899 23.3595 33.4899 23.6446V24.7247C31.0791 24.8457 29.3509 26.1936 29.3509 28.2761C29.3509 30.1424 30.5866 31.1534 32.8505 31.6632L33.4899 31.8101V34.9554C32.4011 34.8604 31.8568 34.3679 31.5803 33.6938C31.3383 33.1927 30.9754 32.9163 30.4397 32.9163C29.7312 32.9163 29.3078 33.3396 29.3078 33.9618C29.3078 34.126 29.3423 34.3074 29.4114 34.506C29.7592 35.5423 30.7891 36.4211 32.3766 36.7595C33.576 35.9025 36.4878 34.1635 38.5403 34.0632ZM34.354 34.9554C35.5983 34.8604 36.2204 34.3074 36.2204 33.5124C36.2204 32.7433 35.7365 32.3545 34.354 32.0089V34.9554ZM33.4899 26.6689C32.358 26.7726 31.7704 27.3515 31.7704 28.0514C31.7704 28.7512 32.2802 29.2092 33.4899 29.5203V26.6689Z" fill="white"/>
</svg>
