<svg width="80" height="80" viewBox="0 0 80 80" fill="none" xmlns="http://www.w3.org/2000/svg">
<rect width="80" height="80" rx="20" fill="#5D0EC2"/>
<path fill-rule="evenodd" clip-rule="evenodd" d="M52.4737 56.25H28.5263C25.4741 56.25 23 53.7779 23 50.7282V39.6013C23.0147 40.3658 23.2345 41.0652 23.6167 41.6361C23.7497 41.8357 23.903 42.0229 24.0751 42.1948C24.7634 42.8826 25.6972 43.2689 26.6706 43.2689H36.0467V44.606C36.0467 45.834 37.0444 46.8309 38.2734 46.8309H42.7266C43.9556 46.8309 44.9533 45.834 44.9533 44.606V43.2689H54.3294C55.3028 43.2689 56.2366 42.8826 56.9249 42.1948L57.0847 42.0002C57.6791 41.3405 58 40.4876 58 39.6013V50.7282C58 53.7536 55.5651 56.2106 52.4737 56.25ZM41.4737 40.3877C42.0111 40.3877 42.4475 40.8235 42.4475 41.3606V43.3354C42.4475 43.8725 42.0111 44.3083 41.4737 44.3083H39.5263C38.9889 44.3083 38.5525 43.8725 38.5525 43.3354V41.3606C38.5525 40.8235 38.9889 40.3877 39.5263 40.3877H41.4737ZM36.0467 41.5369H28.5263C25.4741 41.5369 23 39.0646 23 36.0151V34.0436C23 30.9941 25.4741 28.5218 28.5263 28.5218H32.485L32.4854 25.7697C32.4854 24.3435 33.5717 23.1504 34.9328 23.0149L35.1911 23.002L45.8067 23C47.2882 23 48.5124 24.2544 48.5124 25.7677L48.5113 28.5218H52.4737C55.5259 28.522 58 30.9941 58 34.0436V36.0151C58 39.0646 55.5259 41.5367 52.4737 41.5369H44.9533V40.0898C44.9533 38.862 43.9556 37.8651 42.7266 37.8651H38.2734C37.0444 37.8651 36.0467 38.862 36.0467 40.0898V41.5369ZM45.8086 25.5597H35.1909C35.0892 25.5599 35.0374 25.6129 35.0374 25.7167L35.0363 28.5218H45.9618L45.962 25.7167C45.962 25.6387 45.9329 25.5894 45.8754 25.5697L45.8086 25.5597Z" fill="white"/>
</svg>
