<svg width="80" height="80" viewBox="0 0 80 80" fill="none" xmlns="http://www.w3.org/2000/svg">
<rect width="80" height="80" rx="20" fill="#FFB13D"/>
<path d="M38.0908 24.3717C39.0967 22.5428 41.7454 22.5428 42.7514 24.3717L46.7085 31.5663C47.0903 32.2604 47.7665 32.7475 48.5503 32.893L56.6739 34.4015C58.7391 34.7849 59.5576 37.2826 58.1141 38.7964L52.4361 44.7513C51.8883 45.3258 51.63 46.114 51.7326 46.8981L52.7962 55.0248C53.0665 57.0908 50.9238 58.6345 49.0257 57.7411L41.5593 54.2269C40.839 53.8878 40.0031 53.8878 39.2828 54.2269L31.8164 57.7411C29.9184 58.6345 27.7756 57.0908 28.0459 55.0248L29.1095 46.8981C29.2121 46.114 28.9538 45.3258 28.406 44.7513L22.728 38.7964C21.2845 37.2826 22.103 34.7849 24.1682 34.4015L32.2919 32.893C33.0756 32.7475 33.7518 32.2604 34.1336 31.5663L38.0908 24.3717Z" fill="white"/>
</svg>
