<svg width="80" height="80" viewBox="0 0 80 80" fill="none" xmlns="http://www.w3.org/2000/svg">
<rect width="80" height="80" rx="20" fill="#F47871"/>
<path fill-rule="evenodd" clip-rule="evenodd" d="M36.9514 57.7162L40.8235 53.6423C41.1693 53.2763 41.1597 52.6996 40.7964 52.3514C40.433 52.0037 39.8603 52.0128 39.5146 52.3788L35.642 56.4527C35.2968 56.8191 35.3058 57.3958 35.6696 57.7436C35.8423 57.9174 36.0697 58 36.2967 58C36.5332 58 36.7693 57.9083 36.9514 57.7162ZM28.6884 54.2921L32.561 50.2182C32.9067 49.8522 32.8976 49.2754 32.5338 48.9273C32.1704 48.5796 31.5977 48.5887 31.252 48.9551L27.3799 53.0286C27.0342 53.395 27.0433 53.9717 27.4071 54.3194C27.5797 54.4938 27.8067 54.5759 28.0342 54.5759C28.2707 54.5759 28.5068 54.475 28.6884 54.2921ZM57.8276 26.4264C58.6046 24.3909 56.6192 22.3909 54.5979 23.1737L30.2276 32.6134C28.8796 33.1355 28.673 34.9698 29.871 35.782L34.8586 39.1669C36.0425 39.9705 37.5885 39.986 38.7883 39.2066L40.6228 38.0152C42.2372 36.9666 44.1316 38.8744 43.0904 40.5007L41.9073 42.3478C41.1335 43.5566 41.1493 45.113 41.9472 46.3058L45.3078 51.3288C46.1147 52.5353 47.9357 52.3272 48.4545 50.9697L57.8276 26.4264ZM28.4066 39.4891C28.0428 39.1414 27.4705 39.1505 27.1248 39.5164L23.2523 43.5903C22.907 43.9563 22.9161 44.5331 23.2799 44.8812C23.4525 45.0551 23.68 45.1372 23.907 45.1372C24.1435 45.1372 24.3886 45.0459 24.5617 44.8538L28.4338 40.7799C28.7795 40.4227 28.77 39.8459 28.4066 39.4891Z" fill="white"/>
</svg>
