<svg width="80" height="80" viewBox="0 0 80 80" fill="none" xmlns="http://www.w3.org/2000/svg">
<rect width="80" height="80" rx="20" fill="#8F8ED1"/>
<path fill-rule="evenodd" clip-rule="evenodd" d="M33.3632 28.6949C34.185 28.6949 34.8511 29.3383 34.8511 30.1319V52.2663C34.8511 52.5168 34.9541 52.7571 35.1376 52.9343C35.321 53.1115 35.5698 53.211 35.8292 53.211H37.7042C37.9636 53.211 38.2124 53.1115 38.3959 52.9343C38.5793 52.7571 38.6824 52.5168 38.6824 52.2663V30.1319C38.6824 29.7508 38.8391 29.3853 39.1182 29.1158C39.3972 28.8463 39.7757 28.6949 40.1703 28.6949H50.4881C50.8827 28.6949 51.2612 28.8463 51.5403 29.1158C51.8193 29.3853 51.9761 29.7508 51.9761 30.1319V54.3221C51.9761 55.8021 50.7357 57 49.2032 57H31.7973C30.2648 57 29.0245 55.8021 29.0245 54.3221V30.1319C29.0245 29.3383 29.6906 28.6949 30.5124 28.6949H33.3632ZM46.5225 37.6056C46.2056 37.6056 45.9472 37.8551 45.9472 38.1611V52.6555C45.9472 52.9615 46.2056 53.2111 46.5225 53.2111C46.8416 53.2111 47.0977 52.9615 47.0977 52.6555V38.1611C47.0977 37.8551 46.8416 37.6056 46.5225 37.6056ZM55.5443 22.0001C56.1957 22.0001 56.8204 22.2501 57.2809 22.6949C57.7415 23.1398 58 23.7432 58 24.3723C58 25.6684 57.9995 27.3037 57.9991 28.7687L57.9988 30.1581C57.9985 31.4642 56.9021 32.5229 55.5497 32.5229H54.1695C53.5935 32.5229 53.1266 32.0719 53.1266 31.5157V28.9983C53.1266 28.7705 53.2203 28.5519 53.3871 28.3908C53.554 28.2297 53.7803 28.1392 54.0162 28.1392H54.922C55.2389 28.1392 55.4973 27.8896 55.4973 27.5836C55.4973 27.2755 55.2389 27.0281 54.922 27.0281H26.0785C25.7617 27.0281 25.5033 27.2755 25.5033 27.5836C25.5033 27.8896 25.7617 28.1392 26.0785 28.1392H26.9839C27.2199 28.1392 27.4463 28.2298 27.6131 28.391C27.7799 28.5522 27.8736 28.7708 27.8734 28.9988C27.8731 29.7224 27.8726 30.7583 27.8722 31.5205C27.8719 32.0766 27.4051 32.5272 26.8293 32.5272H25.4491C24.7995 32.5272 24.1766 32.278 23.7173 31.8344C23.2581 31.3909 23 30.7892 23 30.1619V24.3717C23 23.0618 24.0995 22 25.4557 22L55.5443 22.0001Z" fill="white"/>
</svg>
