<svg width="26" height="25" viewBox="0 0 26 25" fill="none" xmlns="http://www.w3.org/2000/svg">
<path d="M19.4941 1.95312H15.8112C15.408 0.816345 14.322 0 13.0488 0C11.7757 0 10.6896 0.816345 10.2864 1.95312H6.55469C4.93916 1.95312 3.625 3.26729 3.625 4.88281V22.0703C3.625 23.6858 4.93916 25 6.55469 25H19.4972C21.111 24.9983 22.4238 23.6841 22.4238 22.0703V4.88281C22.4238 3.26729 21.1097 1.95312 19.4941 1.95312ZM12.0723 3.90625V2.92969C12.0723 2.39124 12.5104 1.95312 13.0488 1.95312C13.5873 1.95312 14.0254 2.39124 14.0254 2.92969V3.90625H15.9785V5.81055H10.1191V3.90625H12.0723ZM20.4707 22.0703C20.4707 22.6082 20.033 23.0463 19.4962 23.0469H6.55469C6.01624 23.0469 5.57812 22.6088 5.57812 22.0703V4.88281C5.57812 4.34437 6.01624 3.90625 6.55469 3.90625H8.16602V7.76367H17.9316V3.90625H19.4941C20.0326 3.90625 20.4707 4.34437 20.4707 4.88281V22.0703ZM16.7699 11.2324L18.2143 12.5469L11.9599 19.4195L7.8288 15.4236L9.18683 14.0198L11.8707 16.6157L16.7699 11.2324Z" fill="#FF6CAC"/>
</svg>
