<svg width="26" height="27" viewBox="0 0 26 27" fill="none" xmlns="http://www.w3.org/2000/svg">
<path d="M24.7787 13.7405H20.4518V12.241C22.6287 11.8943 24.2979 10.0039 24.2979 7.73089V6.76936C24.2979 6.37112 23.975 6.04822 23.5768 6.04822C23.1785 6.04822 22.8556 6.37112 22.8556 6.76936V7.73089C22.8556 9.20579 21.8283 10.4444 20.4518 10.771V10.1347C20.4518 9.472 19.9126 8.93284 19.2499 8.93284H18.5287V6.28865C18.5287 4.77176 17.4421 3.50428 16.0064 3.22259L16.5435 2.01429C16.7052 1.65037 16.5413 1.22415 16.1773 1.06243C15.8133 0.900614 15.3872 1.06458 15.2255 1.42854L14.4543 3.1637H11.5455L10.7743 1.42845C10.6126 1.06453 10.1864 0.900565 9.82246 1.06233C9.45854 1.22405 9.29463 1.65027 9.45635 2.01419L9.99336 3.22249C8.55776 3.50423 7.47114 4.77161 7.47114 6.28855V8.93274H6.75C6.08726 8.93274 5.5481 9.4719 5.5481 10.1346V10.7709C4.17163 10.4444 3.14429 9.20569 3.14429 7.73079V6.76927C3.14429 6.37102 2.82139 6.04812 2.42314 6.04812C2.0249 6.04812 1.702 6.37102 1.702 6.76927V7.73079C1.702 10.0038 3.37119 11.8941 5.54814 12.2409V13.7404H1.22114C0.8229 13.7404 0.5 14.0633 0.5 14.4615C0.5 14.8597 0.8229 15.1826 1.22114 15.1826H5.54805V16.6821C3.37109 17.0288 1.7019 18.9192 1.7019 21.1922V22.1537C1.7019 22.552 2.0248 22.8749 2.42305 22.8749C2.82129 22.8749 3.14419 22.552 3.14419 22.1537V21.1922C3.14419 19.7173 4.17153 18.4787 5.548 18.1521V18.548C5.54805 22.6571 8.89097 26 12.9999 26C17.1088 26 20.4518 22.6571 20.4518 18.5481V18.1523C21.8282 18.4788 22.8556 19.7175 22.8556 21.1924V22.1539C22.8556 22.5521 23.1785 22.875 23.5767 22.875C23.975 22.875 24.2978 22.5521 24.2978 22.1539V21.1924C24.2978 18.9193 22.6287 17.029 20.4517 16.6822V15.1828H24.7786C25.1769 15.1828 25.4998 14.8599 25.4998 14.4616C25.4998 14.0634 25.1769 13.7405 24.7787 13.7405ZM8.91338 6.2886C8.91338 5.36077 9.66821 4.60594 10.596 4.60594H15.4037C16.3315 4.60594 17.0864 5.36077 17.0864 6.2886V8.93279H8.91338V6.2886ZM19.0095 18.5481C19.0095 21.8618 16.3136 24.5577 12.9999 24.5577C9.68623 24.5577 6.99033 21.8618 6.99033 18.5481V10.3751H12.2788V17.3462C12.2788 17.7445 12.6017 18.0674 12.9999 18.0674C13.3981 18.0674 13.721 17.7445 13.721 17.3462V10.3751H19.0095V18.5481Z" fill="#EF4FA6" stroke="#EF4FA6" stroke-width="0.5"/>
</svg>
