<svg width="26" height="26" viewBox="0 0 26 26" fill="none" xmlns="http://www.w3.org/2000/svg">
<g clip-path="url(#clip0)">
<path d="M24.3632 5.72971H4.37932L8.12122 1.98774C8.565 1.54403 8.565 0.82448 8.12122 0.380693C7.6775 -0.0630954 6.95796 -0.0630954 6.51417 0.380693L0.832353 6.06251C0.388565 6.50622 0.388565 7.22577 0.832353 7.66956L6.51417 13.3514C6.73606 13.5733 7.0269 13.6843 7.31773 13.6843C7.60856 13.6843 7.8994 13.5733 8.12122 13.3514C8.565 12.9077 8.565 12.1881 8.12122 11.7443L4.37932 8.00244H24.3632C24.9908 8.00244 25.4995 7.49365 25.4995 6.86607C25.4995 6.2385 24.9908 5.72971 24.3632 5.72971Z" fill="#F2765B"/>
<path d="M19.4853 11.7459C19.0416 11.3022 18.322 11.3022 17.8783 11.7459C17.4345 12.1896 17.4345 12.9091 17.8783 13.3529L21.6202 17.0949H1.63636C1.00879 17.0949 0.5 17.6037 0.5 18.2312C0.5 18.8588 1.00879 19.3676 1.63636 19.3676H21.6202L17.8783 23.1096C17.4345 23.5533 17.4345 24.2728 17.8783 24.7166C18.1002 24.9384 18.391 25.0494 18.6818 25.0494C18.9727 25.0494 19.2635 24.9384 19.4853 24.7165L25.1671 19.0347C25.6109 18.591 25.6109 17.8715 25.1671 17.4277L19.4853 11.7459Z" fill="#F2765B"/>
</g>
<defs>
<clipPath id="clip0">
<rect width="25" height="25" fill="white" transform="translate(0.5 0.0488281)"/>
</clipPath>
</defs>
</svg>
