<svg width="26" height="27" viewBox="0 0 26 27" fill="none" xmlns="http://www.w3.org/2000/svg">
<path d="M13 1.04883C6.08793 1.04883 0.5 6.63676 0.5 13.5488C0.5 20.4609 6.08793 26.0488 13 26.0488C19.9121 26.0488 25.5 20.4609 25.5 13.5488C25.5 6.63676 19.9121 1.04883 13 1.04883ZM9.22699 2.75128C8.56748 3.67664 8.00511 4.65312 7.53477 5.67562H4.69734C5.93456 4.36682 7.48364 3.35455 9.22699 2.75128ZM3.80266 6.73901H7.08487C6.31288 8.72777 5.88855 10.8494 5.8272 13.0171H1.57873C1.68609 10.6705 2.49386 8.50793 3.80266 6.73901ZM3.80266 20.3586C2.49386 18.5897 1.68609 16.4272 1.57873 14.0805H5.8272C5.88855 16.2482 6.32822 18.3699 7.10532 20.3586H3.80266ZM4.69734 21.422H7.56033C8.03579 22.4445 8.59816 23.4312 9.24744 24.3566C7.49898 23.7533 5.93967 22.7359 4.69734 21.422ZM12.4683 24.9752C11.9366 24.9496 11.41 24.8883 10.8988 24.7963C10.0501 23.7482 9.32413 22.6184 8.7362 21.4272H12.4683V24.9752ZM12.4683 20.3586H8.25051C7.4274 18.375 6.95706 16.2533 6.89059 14.0805H12.4683V20.3586ZM12.4683 13.0171H6.89059C6.95706 10.8494 7.42229 8.72265 8.24029 6.73901H12.4683V13.0171ZM12.4734 5.67562H12.4683H8.72597C9.31902 4.47419 10.045 3.34433 10.8988 2.3065C11.41 2.20936 11.9366 2.15312 12.4734 2.12756V5.67562ZM22.1973 6.73901C23.5061 8.50793 24.319 10.6654 24.4213 13.0171H20.1728C20.1115 10.8494 19.6718 8.72777 18.8947 6.73901H22.1973ZM21.3027 5.67562H18.4397C17.9642 4.65312 17.4018 3.66641 16.7474 2.74106C18.501 3.34433 20.0603 4.36171 21.3027 5.67562ZM13.5317 2.12756C14.0634 2.15312 14.59 2.21447 15.1012 2.3065C15.9499 3.35455 16.6759 4.48441 17.2638 5.67562H13.5317V2.12756ZM13.5317 6.73901H17.7495C18.5726 8.71754 19.0429 10.8443 19.1094 13.0171H13.5317V6.73901ZM13.5317 14.0805H19.1094C19.0429 16.2482 18.5777 18.375 17.7597 20.3586H13.5317V14.0805ZM13.5266 24.9701V21.422H13.5317H17.274C16.681 22.6235 15.955 23.7533 15.1012 24.7912C14.59 24.8883 14.0634 24.9445 13.5266 24.9701ZM16.7474 24.3566C17.3967 23.4312 17.9591 22.4445 18.4294 21.422H21.3078C20.0603 22.7359 18.501 23.7533 16.7474 24.3566ZM18.8793 20.3586C19.6462 18.3699 20.0808 16.2482 20.1677 14.0805H24.4264C24.319 16.4272 23.5112 18.5897 22.2025 20.3586H18.8793Z" fill="#4690FF" stroke="#4690FF" stroke-width="0.5"/>
</svg>
