<svg width="26" height="26" viewBox="0 0 26 26" fill="none" xmlns="http://www.w3.org/2000/svg">
<g clip-path="url(#clip0)">
<path d="M24.7685 11.0319H18.7303C18.3998 8.43169 16.3335 6.36587 13.7333 6.0353V4.65171H17.708C18.1124 4.65171 18.4404 4.32378 18.4404 3.91929V0.78125C18.4404 0.376758 18.1124 0.0488281 17.708 0.0488281H13.0009C12.5964 0.0488281 12.2685 0.376758 12.2685 0.78125V6.0353C9.66831 6.36587 7.60205 8.43169 7.27153 11.0319H1.2334C0.828906 11.0319 0.500977 11.3598 0.500977 11.7643V24.3164C0.500977 24.7209 0.828906 25.0488 1.2334 25.0488H24.7685C25.173 25.0488 25.5009 24.7209 25.5009 24.3164V11.7643C25.5009 11.3598 25.1729 11.0319 24.7685 11.0319ZM13.7334 1.51367H16.9755V3.18687H13.7334V1.51367ZM7.22529 23.584H1.96582V12.4967H7.22529V23.584ZM13.001 7.45356C15.1284 7.45356 16.9008 9.00244 17.2495 11.0319H8.75244C9.10112 9.00244 10.8735 7.45356 13.001 7.45356ZM10.5875 23.584H8.69019V12.4967H10.5875V23.584ZM13.9495 23.584H12.0522V12.4967H13.9495V23.584ZM17.3119 23.584H15.4146V12.4967H17.3119V23.584ZM24.036 23.584H18.7766V12.4967H24.036V23.584Z" fill="#DB3A65"/>
<path d="M4.59424 17.2038C4.99873 17.2038 5.32666 16.8758 5.32666 16.4713V14.9023C5.32666 14.4979 4.99873 14.1699 4.59424 14.1699C4.18975 14.1699 3.86182 14.4979 3.86182 14.9023V16.4713C3.86182 16.8759 4.18975 17.2038 4.59424 17.2038Z" fill="#DB3A65"/>
<path d="M4.59424 21.9108C4.99873 21.9108 5.32666 21.5829 5.32666 21.1784V19.6094C5.32666 19.2049 4.99873 18.877 4.59424 18.877C4.18975 18.877 3.86182 19.2049 3.86182 19.6094V21.1784C3.86182 21.5829 4.18975 21.9108 4.59424 21.9108Z" fill="#DB3A65"/>
<path d="M21.4058 17.2038C21.8103 17.2038 22.1382 16.8758 22.1382 16.4713V14.9023C22.1382 14.4979 21.8103 14.1699 21.4058 14.1699C21.0013 14.1699 20.6733 14.4979 20.6733 14.9023V16.4713C20.6733 16.8759 21.0013 17.2038 21.4058 17.2038Z" fill="#DB3A65"/>
<path d="M21.4058 21.9108C21.8103 21.9108 22.1382 21.5829 22.1382 21.1784V19.6094C22.1382 19.2049 21.8103 18.877 21.4058 18.877C21.0013 18.877 20.6733 19.2049 20.6733 19.6094V21.1784C20.6733 21.5829 21.0013 21.9108 21.4058 21.9108Z" fill="#DB3A65"/>
</g>
<defs>
<clipPath id="clip0">
<rect width="25" height="25" fill="white" transform="translate(0.5 0.0488281)"/>
</clipPath>
</defs>
</svg>
