<svg width="26" height="27" viewBox="0 0 26 27" fill="none" xmlns="http://www.w3.org/2000/svg">
<path d="M12.0357 17.9895C12.2266 17.7982 12.2266 17.4886 12.0357 17.2973C11.8446 17.1066 11.535 17.1066 11.3437 17.2973C11.153 17.4886 11.153 17.7982 11.3437 17.9895C11.535 18.1803 11.8446 18.1803 12.0357 17.9895Z" fill="#F7CB48" stroke="#F7CB48" stroke-width="0.5"/>
<path d="M9.71973 6.38008C9.71973 9.34665 12.1332 11.7603 15.0998 11.7603C18.0664 11.7603 20.4799 9.34665 20.4799 6.38008C20.4799 3.4135 18.0664 1 15.0998 1C12.1332 1 9.71973 3.4135 9.71973 6.38008ZM19.5018 6.38008C19.5018 8.80734 17.5271 10.7821 15.0998 10.7821C12.6725 10.7821 10.6978 8.80734 10.6978 6.38008C10.6978 3.953 12.6725 1.97828 15.0998 1.97828C17.5271 1.97828 19.5018 3.953 19.5018 6.38008Z" fill="#F7CB48" stroke="#F7CB48" stroke-width="0.5"/>
<path d="M6.15804 25.9045C6.34762 26.0956 6.65626 26.0977 6.84833 25.9085L9.21959 23.5724C9.62245 23.1696 9.74495 22.5731 9.56779 22.0546L10.0779 21.5627C10.3525 21.2975 10.7141 21.1513 11.0963 21.1513H17.5983C18.7519 21.1513 19.8421 20.7083 20.6687 19.9039C20.7027 19.8708 20.4105 20.215 25.1045 14.6049C25.8007 13.7812 25.6966 12.5443 24.8721 11.8474C24.0528 11.1569 22.8255 11.2561 22.1274 12.0656L19.2413 15.032C18.8769 14.5835 18.3211 14.3039 17.7207 14.3039H12.2666C11.4905 13.9792 10.667 13.8148 9.81738 13.8148C7.46216 13.8148 5.40565 14.9026 4.302 16.9421C3.83704 16.854 3.34665 16.9947 2.99387 17.3475L0.667124 19.6811C0.477163 19.8716 0.476781 20.1799 0.66636 20.371L6.15804 25.9045ZM9.81719 14.7929C10.5663 14.7929 11.2906 14.9437 11.9704 15.2411C12.0323 15.2682 12.099 15.2821 12.1665 15.2821H17.7207C18.251 15.2821 18.6989 15.7146 18.6989 16.2602C18.6989 16.7997 18.2602 17.2385 17.7207 17.2385H13.7301C13.4601 17.2385 13.2411 17.4575 13.2411 17.7276C13.2411 17.9978 13.4601 18.2166 13.7301 18.2166H17.7207C18.7995 18.2166 19.677 17.339 19.677 16.2602C19.677 16.1742 19.6709 16.089 19.6598 16.0045C22.4517 13.1347 22.8454 12.7314 22.8622 12.7114C23.2108 12.2999 23.8296 12.2477 24.2413 12.5948C24.6533 12.9432 24.7055 13.5616 24.3559 13.9754L19.969 19.2197C19.3285 19.8347 18.4874 20.1732 17.5983 20.1732H11.0963C10.4591 20.1732 9.85599 20.4168 9.39847 20.8589L8.98281 21.26L5.15109 17.4285C6.04663 15.7485 7.72704 14.7929 9.81719 14.7929ZM3.68606 18.0387C3.84735 17.8774 4.09503 17.8483 4.29168 17.9699C4.37634 18.0215 4.13325 17.8002 8.52798 22.1888C8.72348 22.3843 8.71297 22.6958 8.53065 22.8781L6.50911 24.8697L1.70331 20.0272L3.68606 18.0387Z" fill="#F7CB48" stroke="#F7CB48" stroke-width="0.5"/>
<path d="M14.513 3.44529V4.01842C13.9437 4.22023 13.5347 4.76394 13.5347 5.40167C13.5347 6.21063 14.1929 6.86899 15.002 6.86899C15.2717 6.86899 15.4911 7.08839 15.4911 7.35804C15.4911 7.62769 15.2717 7.84708 15.002 7.84708C14.7931 7.84708 14.5674 7.71579 14.367 7.4771C14.1931 7.27032 13.8846 7.24376 13.6778 7.41747C13.471 7.59138 13.4443 7.89983 13.6182 8.10661C13.8796 8.41754 14.1871 8.63426 14.513 8.74357V9.31441C14.513 9.58464 14.732 9.80346 15.002 9.80346C15.2721 9.80346 15.4911 9.58464 15.4911 9.31441V8.74128C16.0604 8.53928 16.4693 7.99558 16.4693 7.35804C16.4693 6.54889 15.8112 5.89071 15.002 5.89071C14.7324 5.89071 14.513 5.67132 14.513 5.40167C14.513 5.13201 14.7324 4.91243 15.002 4.91243C15.1753 4.91243 15.3582 5.00091 15.531 5.16813C15.7252 5.35599 16.0348 5.35083 16.2226 5.15686C16.4105 4.96269 16.4053 4.65309 16.2113 4.46524C15.9631 4.22501 15.7147 4.08913 15.4911 4.01498V3.44529C15.4911 3.17506 15.2721 2.95605 15.002 2.95605C14.732 2.95605 14.513 3.17506 14.513 3.44529Z" fill="#F7CB48" stroke="#F7CB48" stroke-width="0.5"/>
</svg>
