<svg width="26" height="25" viewBox="0 0 26 25" fill="none" xmlns="http://www.w3.org/2000/svg">
<path d="M24.9565 4.34766H1.04348C0.74361 4.34766 0.5 4.59127 0.5 4.89113V20.1085C0.5 20.4092 0.74361 20.652 1.04348 20.652H24.9565C25.2564 20.652 25.5 20.4092 25.5 20.1085V4.89113C25.5 4.59127 25.2564 4.34766 24.9565 4.34766ZM14.6304 5.43461V10.3259C14.6304 10.6258 14.874 10.8694 15.1739 10.8694H20.0652V14.1303H15.1739C14.874 14.1303 14.6304 14.3731 14.6304 14.6737V19.565H11.3696V14.6737C11.3696 14.3731 11.126 14.1303 10.8261 14.1303H5.93478V10.8694H10.8261C11.126 10.8694 11.3696 10.6258 11.3696 10.3259V5.43461H14.6304ZM1.58696 5.43461H10.2826V9.78244H5.3913C5.09144 9.78244 4.84783 10.026 4.84783 10.3259V14.6737C4.84783 14.9744 5.09144 15.2172 5.3913 15.2172H10.2826V19.565H1.58696V5.43461ZM24.413 19.565H15.7174V15.2172H20.6087C20.9086 15.2172 21.1522 14.9744 21.1522 14.6737V10.3259C21.1522 10.026 20.9086 9.78244 20.6087 9.78244H15.7174V5.43461H24.413V19.565Z" fill="#CB282B" stroke="#CB282B"/>
</svg>
