<svg width="26" height="25" viewBox="0 0 26 25" fill="none" xmlns="http://www.w3.org/2000/svg">
<g clip-path="url(#clip0)">
<path d="M22.9448 4.04814L13.3745 0.0746521C13.1347 -0.0248596 12.8652 -0.0249084 12.6255 0.0746521L3.05522 4.04814C2.69072 4.19951 2.45312 4.55537 2.45312 4.95004V9.78036C2.45312 16.4314 6.4731 22.4142 12.631 24.9276C12.8675 25.0241 13.1325 25.0241 13.369 24.9276C19.5268 22.4142 23.5469 16.4314 23.5469 9.78036V4.95004C23.5469 4.55537 23.3093 4.19951 22.9448 4.04814ZM21.5938 9.78036C21.5938 15.4344 18.2734 20.6393 13 22.9627C7.86748 20.7014 4.40625 15.5876 4.40625 9.78036V5.602L13 2.03393L21.5938 5.602V9.78036ZM11.9206 13.0721L16.1181 8.87465C16.4994 8.49331 17.1177 8.49326 17.4991 8.87465C17.8805 9.25605 17.8805 9.87436 17.4991 10.2557L12.6111 15.1436C12.2297 15.5251 11.6114 15.5249 11.2301 15.1436L8.50088 12.4144C8.11948 12.0331 8.11948 11.4147 8.50088 11.0334C8.88228 10.652 9.50059 10.652 9.88193 11.0334L11.9206 13.0721Z" fill="#F99954" stroke="#F99954" stroke-width="0.5"/>
</g>
<defs>
<clipPath id="clip0">
<rect width="25" height="25" fill="white" transform="translate(0.5)"/>
</clipPath>
</defs>
</svg>
