<svg width="26" height="25" viewBox="0 0 26 25" fill="none" xmlns="http://www.w3.org/2000/svg">
<path d="M21.8942 2.16406H4.10576C2.11753 2.16406 0.5 3.78159 0.5 5.76982V19.2313C0.5 21.2196 2.11753 22.8371 4.10576 22.8371H21.8942C23.8825 22.8371 25.5 21.2196 25.5 19.2313V5.76982C25.5 3.78159 23.8825 2.16406 21.8942 2.16406ZM24.0577 14.6641H18.7692C17.5763 14.6641 16.6058 13.6936 16.6058 12.5006C16.6058 11.3076 17.5763 10.3371 18.7692 10.3371H24.0577V14.6641ZM24.0577 8.89482H18.7692C16.781 8.89482 15.1635 10.5124 15.1635 12.5006C15.1635 14.4888 16.781 16.1063 18.7692 16.1063H24.0577V19.2313C24.0577 20.4243 23.0872 21.3948 21.8942 21.3948H4.10576C2.91284 21.3948 1.94229 20.4243 1.94229 19.2313V5.76982C1.94229 4.5769 2.91279 3.60635 4.10576 3.60635H21.8942C23.0872 3.60635 24.0577 4.57686 24.0577 5.76982V8.89482Z" fill="#6E7FFC" stroke="#6E7FFC" stroke-width="0.5"/>
<path d="M19.7305 11.7783H18.769C18.3707 11.7783 18.0479 12.1012 18.0479 12.4995C18.0479 12.8977 18.3708 13.2206 18.769 13.2206H19.7305C20.1288 13.2206 20.4517 12.8977 20.4517 12.4995C20.4517 12.1012 20.1288 11.7783 19.7305 11.7783Z" fill="#6E7FFC"/>
</svg>
