<svg width="50" height="50" viewBox="0 0 50 50" fill="none" xmlns="http://www.w3.org/2000/svg">
<rect width="50" height="50" rx="25" fill="#6E7FFC"/>
<path fill-rule="evenodd" clip-rule="evenodd" d="M34 15.5C35.6569 15.5 37 16.8431 37 18.5V18.8636C37 19.4159 36.5523 19.8636 36 19.8636L14 19.8636C13.4477 19.8636 13 19.4159 13 18.8636V18.5C13 16.8431 14.3431 15.5 16 15.5H34ZM16 35.1364C14.3431 35.1364 13 33.7933 13 32.1364V24.1364C13 23.5841 13.4477 23.1364 14 23.1364H36C36.5523 23.1364 37 23.5841 37 24.1364V32.1364C37 33.7933 35.6569 35.1364 34 35.1364H16Z" fill="white"/>
</svg>
