<svg width="50" height="50" viewBox="0 0 50 50" fill="none" xmlns="http://www.w3.org/2000/svg">
<rect width="50" height="50" rx="25" fill="#7A61ED"/>
<path d="M36.3135 24.3511C36.0808 29.4693 32.5621 33.0753 27.7928 34.1803C26.2516 34.5293 25.5827 36.3614 26.5133 37.6409C26.5133 37.6409 26.5133 37.67 26.5424 37.67C18.8942 37.67 12.7 31.4758 12.7 23.8276C12.7 16.8483 18.7488 11.2648 25.9026 12.0791C27.6474 12.2826 29.276 12.8352 30.6718 13.7076C30.5555 14.2019 30.4973 14.6963 30.4973 15.1907C30.4973 15.5687 30.5264 15.9177 30.5846 16.2667C31.0499 18.9712 33.2891 21.0941 36.0808 21.3558C36.2844 22.3445 36.3716 23.3333 36.3135 24.3511Z" stroke="white" stroke-width="2" stroke-miterlimit="10" stroke-linecap="round" stroke-linejoin="round"/>
<path d="M39.0508 15.6754C39.0508 17.1294 37.9167 18.2927 36.4627 18.3508C36.4336 18.3508 36.4045 18.3508 36.3754 18.3508C35.0668 18.3508 33.9617 17.3912 33.7291 16.1407C33.7 15.9953 33.7 15.8208 33.7 15.6754C33.7 14.1923 34.8923 13 36.3754 13C37.8585 13 39.0508 14.2214 39.0508 15.6754Z" fill="white"/>
<path d="M22.0059 20.8323H27.0078" stroke="white" stroke-width="2" stroke-miterlimit="10" stroke-linecap="round" stroke-linejoin="round"/>
<path d="M20.6971 25.6888H28.3453" stroke="white" stroke-width="2" stroke-miterlimit="10" stroke-linecap="round" stroke-linejoin="round"/>
</svg>
