<svg width="40" height="40" viewBox="0 0 40 40" fill="none" xmlns="http://www.w3.org/2000/svg">
<path d="M0 20C0 8.95431 8.95431 0 20 0C31.0457 0 40 8.95431 40 20C40 31.0457 31.0457 40 20 40C8.95431 40 0 31.0457 0 20Z" fill="#27DC8F"/>
<path d="M20 32C26.6248 32 32 26.6248 32 20C32 13.3752 26.6248 8 20 8C13.3752 8 8 13.3752 8 20C8 26.6248 13.3752 32 20 32ZM18.6051 13.811C18.6051 13.3457 18.9831 12.9689 19.4473 12.9689C19.9126 12.9689 20.2894 13.3468 20.2894 13.811V20.1735L23.8056 22.8179C24.1836 23.1085 24.2414 23.6317 23.9804 24.0096C23.8056 24.2423 23.5741 24.3581 23.3119 24.3581C23.1371 24.3581 22.9635 24.3002 22.8182 24.1833L18.9536 21.2778C18.7504 21.1325 18.6052 20.8715 18.6052 20.6093L18.6051 13.811Z" fill="white"/>
</svg>
