<svg width="40" height="40" viewBox="0 0 40 40" fill="none" xmlns="http://www.w3.org/2000/svg">
<path d="M0 20C0 8.95431 8.95431 0 20 0C31.0457 0 40 8.95431 40 20C40 31.0457 31.0457 40 20 40C8.95431 40 0 31.0457 0 20Z" fill="#8643AF"/>
<path fill-rule="evenodd" clip-rule="evenodd" d="M13.2144 17.2502C11.7153 17.2502 10.5 18.4654 10.5 19.9645V25.5716C10.5 28.5697 12.9305 31.0002 15.9286 31.0002H24.0714C27.0695 31.0002 29.5 28.5697 29.5 25.5716V19.9645C29.5 18.4654 28.2848 17.2502 26.7858 17.2502V15.7857C26.7858 12.0381 23.7477 9 20.0001 9C16.2524 9 13.2144 12.0381 13.2144 15.7857V17.2502ZM15.9286 17.2502H24.0715L24.0715 15.7857C24.0715 13.5371 22.2487 11.7143 20.0001 11.7143C17.7515 11.7143 15.9286 13.5371 15.9286 15.7857V17.2502ZM20.0001 22.75C19.2506 22.75 18.6429 23.3576 18.6429 24.1072V24.1429C18.6429 24.6455 18.9162 25.0844 19.3223 25.3189C19.3217 25.3304 19.3214 25.3419 19.3214 25.3535V26.7463C19.3214 27.1211 19.6252 27.4249 20 27.4249C20.3747 27.4249 20.6786 27.1211 20.6786 26.7463V25.3535C20.6786 25.3419 20.6783 25.3304 20.6777 25.319C21.0839 25.0845 21.3572 24.6456 21.3572 24.1429V24.1072C21.3572 23.3576 20.7496 22.75 20.0001 22.75Z" fill="white"/>
</svg>
