<svg width="50" height="50" viewBox="0 0 50 50" fill="none" xmlns="http://www.w3.org/2000/svg">
<rect width="50" height="50" rx="25" fill="#FEC4DD"/>
<path d="M34.172 11.0001C32.9016 11.0001 31.7483 11.4976 30.885 12.3007C29.0364 11.4405 27.0594 11.0001 25 11.0001C17.2808 11.0001 11 17.2809 11 25.0001C11 32.7193 17.2808 39.0001 25 39.0001C32.7192 39.0001 39 32.7193 39 25.0001C39 23.1261 38.6325 21.314 37.9165 19.6078C38.5628 18.1885 39 16.7501 39 15.8282C39 13.1654 36.8503 11 34.1875 11L34.172 11.0001ZM34.172 11.9648C36.301 11.9648 38.034 13.6978 38.034 15.8268C38.034 18.2806 35.0844 23.0675 34.172 23.0675C33.2596 23.0675 30.31 18.2786 30.31 15.8268C30.31 13.6978 32.043 11.9648 34.172 11.9648ZM14.8827 16.7947C15.0744 16.7978 15.8284 16.8659 15.8284 17.7594C15.8284 19.3958 16.8818 21.4265 17.9004 22.4452C18.2537 22.7985 18.599 22.9822 18.8778 23.1296C19.3625 23.3862 19.4623 23.44 19.2231 24.4C19.0758 24.9893 18.7812 25.0209 17.685 24.8293C16.9325 24.6978 16.0787 24.5505 15.4878 25.1413C15.0395 25.5897 14.9239 26.3104 14.8019 27.0723C14.5611 28.5677 14.2918 29.5688 12.8963 29.8223C12.2975 28.3301 11.9648 26.7048 11.9648 25.0002C11.9648 21.8922 13.061 19.036 14.8827 16.7947ZM27.3701 37.8155C27.2941 37.5431 27.039 36.4913 27.4525 35.7832C27.6521 35.441 27.9863 35.2271 28.4742 35.1289C30.1739 34.7883 30.5034 33.4339 30.7679 32.3457C30.9406 31.6313 31.0911 31.0134 31.5441 30.7109C31.9782 30.4226 32.7005 30.5113 33.3991 30.5984C34.2878 30.7078 35.2969 30.8329 35.9622 30.1676C36.3772 29.7526 36.8984 29.4326 37.3324 29.2108C35.8259 33.6116 32.0288 36.9554 27.3701 37.8155ZM38.0358 25.0001C38.0358 26.0313 37.9123 27.0325 37.6842 27.994C37.2327 28.1683 36.1064 28.6593 35.2795 29.4862C34.9485 29.8189 34.2531 29.7318 33.518 29.6415C32.6848 29.5369 31.7407 29.4213 31.0088 29.9092C30.2421 30.4208 30.033 31.2842 29.8286 32.119C29.5498 33.2627 29.3281 33.9739 28.2842 34.183C27.5191 34.3367 26.9567 34.7121 26.6145 35.3014C26.0648 36.2471 26.2819 37.4589 26.407 37.9579C25.946 38.007 25.4756 38.0355 25.0003 38.0355C19.8663 38.0355 15.4165 35.0511 13.294 30.7251C15.2614 30.2483 15.5466 28.5121 15.7525 27.2274C15.8459 26.6492 15.9426 26.0521 16.1691 25.8255C16.4051 25.5895 16.9706 25.6877 17.5187 25.7828C18.4169 25.938 19.7745 26.174 20.1578 24.6359C20.5507 23.0645 20.0628 22.6669 19.3293 22.2772C19.0854 22.1473 18.8335 22.0142 18.5832 21.7639C17.7183 20.8975 16.7932 19.0837 16.7932 17.7594C16.7932 16.7598 16.2166 16.2165 15.6067 15.9789C17.9797 13.5077 21.3125 11.9648 25.0003 11.9648C26.822 11.9648 28.5772 12.3339 30.2247 13.0578C29.6719 13.8435 29.3455 14.7972 29.3455 15.8284C29.3455 18.2077 32.2539 24.0354 34.1737 24.0354C35.1416 24.0354 36.3598 22.5543 37.3308 20.7801C37.795 22.1298 38.0358 23.5444 38.0358 25.0001Z" fill="white" stroke="white"/>
<path d="M34.172 14.3788C34.9704 14.3788 35.6199 15.0283 35.6199 15.8266C35.6199 16.625 34.9704 17.2745 34.172 17.2745C33.3736 17.2745 32.7242 16.625 32.7242 15.8266C32.7242 15.0283 33.3736 14.3788 34.172 14.3788Z" fill="white"/>
</svg>
