<svg width="50" height="50" viewBox="0 0 50 50" fill="none" xmlns="http://www.w3.org/2000/svg">
<rect width="50" height="50" rx="25" fill="#588848"/>
<path fill-rule="evenodd" clip-rule="evenodd" d="M24.6241 13C28.3018 15.0704 32.3336 16.487 36.5017 17.1681C38.2725 29.3454 28.2201 37.0005 24.6241 37.0005C21.0281 37.0005 10.9756 29.3454 12.7464 17.1681C16.9145 16.487 20.9463 15.0704 24.6241 13ZM22.8469 19.1189C23.3525 18.8967 23.5823 18.3067 23.3601 17.8011C23.1379 17.2955 22.5479 17.0657 22.0423 17.2879C20.3248 18.0425 18.5289 18.5632 16.6796 18.8497C16.2439 18.9172 15.9038 19.2621 15.8424 19.6987C15.5795 21.5683 15.695 23.331 16.0794 24.898C16.211 25.4344 16.7524 25.7626 17.2888 25.631C17.8252 25.4995 18.1534 24.958 18.0218 24.4216C17.7464 23.2988 17.6311 22.0418 17.7425 20.6964C19.4959 20.3666 21.2039 19.8408 22.8469 19.1189Z" fill="white"/>
</svg>
