<svg width="50" height="50" viewBox="0 0 50 50" fill="none" xmlns="http://www.w3.org/2000/svg">
<rect width="50" height="50" rx="25" fill="#63DDB0"/>
<path fill-rule="evenodd" clip-rule="evenodd" d="M36.8295 33.8565C36.8667 33.9711 36.9021 34.0864 36.9359 34.2022C36.978 34.3839 37 34.5725 37 34.7659C37 36.2122 35.7653 37.3951 34.214 37.4699L33.9234 37.4709C29.0914 37.4864 15.8227 37.4841 15.8227 37.4841C14.2537 37.426 13 36.2359 13 34.7784C13 34.5643 13.0268 34.3561 13.0785 34.1564C13.1001 34.0827 13.1224 34.0093 13.1459 33.9361C14.7058 29.0064 19.426 25.2442 25.0007 25.2442C30.5394 25.2442 35.2347 28.9586 36.8248 33.8422L36.8295 33.8565ZM24.9967 11.5C28.721 11.5 31.7453 14.3899 31.7453 17.9494C31.7453 21.5089 28.721 24.3988 24.9967 24.3988C21.2718 24.3988 18.2482 21.5089 18.2482 17.9494C18.2482 14.3899 21.2718 11.5 24.9967 11.5Z" fill="white"/>
</svg>
