<svg width="50" height="50" viewBox="0 0 50 50" fill="none" xmlns="http://www.w3.org/2000/svg">
<rect width="50" height="50" rx="25" fill="#F7CB48"/>
<path d="M39 33.5994C39 28.6193 34.9339 24.5573 29.8975 24.5573C24.861 24.5573 20.818 28.6193 20.818 33.5994" stroke="white" stroke-width="2" stroke-miterlimit="10" stroke-linecap="round" stroke-linejoin="round"/>
<path d="M29.8971 24.3736C27.3452 24.3736 25.2765 22.3187 25.2765 19.7837C25.2765 17.2488 27.3452 15.1938 29.8971 15.1938C32.449 15.1938 34.5177 17.2488 34.5177 19.7837C34.5177 22.3187 32.449 24.3736 29.8971 24.3736Z" stroke="white" stroke-width="2" stroke-miterlimit="10" stroke-linecap="round" stroke-linejoin="round"/>
<path d="M22.3661 28.5504C21.1647 27.4718 19.5706 26.8292 17.8148 26.8292C14.0491 26.8292 10.9995 29.8586 10.9995 33.5994" stroke="white" stroke-width="2" stroke-miterlimit="10" stroke-linecap="round" stroke-linejoin="round"/>
<path d="M17.8382 26.6915C15.9243 26.6915 14.3728 25.1503 14.3728 23.2491C14.3728 21.3479 15.9243 19.8066 17.8382 19.8066C19.7521 19.8066 21.3036 21.3479 21.3036 23.2491C21.3036 25.1503 19.7521 26.6915 17.8382 26.6915Z" stroke="white" stroke-width="2" stroke-miterlimit="10" stroke-linecap="round" stroke-linejoin="round"/>
</svg>
