<svg width="22" height="22" viewBox="0 0 22 22" fill="none" xmlns="http://www.w3.org/2000/svg">
    <g clip-path="url(#clip0)">
        <path d="M2.93856 8.08727C1.07866 11.3148 2.26103 16.2127 4.31778 19.1825C5.34442 20.6672 6.38383 22 7.80748 22C7.83431 22 7.86122 21.9995 7.88877 21.9984C8.55765 21.9717 9.041 21.7658 9.50834 21.5668C10.033 21.3432 10.5757 21.112 11.4268 21.112C12.2366 21.112 12.7533 21.3357 13.253 21.5519C13.7455 21.765 14.2528 21.9854 15.0024 21.9714C16.606 21.9415 17.5906 20.5033 18.4593 19.2346C19.3658 17.9099 19.8205 16.6238 19.9739 16.1323L19.9801 16.1127C20.0093 16.0254 19.9681 15.93 19.8843 15.8916C19.882 15.8905 19.8735 15.887 19.8711 15.8859C19.5887 15.7705 17.1116 14.6715 17.0856 11.6764C17.0614 9.24295 18.9439 7.95433 19.3214 7.72077L19.339 7.70981C19.3799 7.68348 19.4084 7.64172 19.4181 7.59396C19.4277 7.54629 19.4176 7.49666 19.3902 7.45655C18.0909 5.55503 16.0993 5.26846 15.2975 5.23398C15.1812 5.22236 15.0611 5.21652 14.9405 5.21652C13.9987 5.21652 13.0966 5.5722 12.3718 5.85798C11.8715 6.05526 11.4394 6.22564 11.1413 6.22564C10.8064 6.22564 10.3718 6.05317 9.86856 5.85351C9.19557 5.58641 8.43279 5.28375 7.62528 5.28375C7.60602 5.28375 7.58705 5.28397 7.56837 5.28433C5.69079 5.31195 3.91666 6.38613 2.93856 8.08727Z"
              fill="white"/>
        <path d="M15.2991 0.000138595C14.1621 0.0464468 12.7982 0.746335 11.9829 1.70121C11.2901 2.50381 10.6133 3.84199 10.7916 5.19084C10.8028 5.27523 10.8715 5.34037 10.9564 5.34693C11.0331 5.35292 11.1114 5.35595 11.1895 5.35602C12.3012 5.35602 13.5006 4.74096 14.3196 3.7506C15.1817 2.70484 15.6175 1.36277 15.4857 0.16063C15.4753 0.0664271 15.3924 -0.00354009 15.2991 0.000138595Z"
              fill="white"/>
    </g>
    <defs>
        <clipPath id="clip0">
            <rect width="22" height="22" fill="white"/>
        </clipPath>
    </defs>
</svg>
