<svg width="24px" height="24px" viewBox="0 0 24 24" version="1.1" xmlns="http://www.w3.org/2000/svg">
    <path d="M5.644695,5.611065 C6.04278,5.212978 6.68821,5.212978 7.08629,5.611065 L12.01682,10.54159 L16.9473,5.611065 C17.3454,5.212979 17.9908,5.212979 18.3889,5.611064 C18.787,6.00915 18.787,6.65457 18.3889,7.05266 L13.45841,11.98318 L18.3889,16.9137 C18.787,17.3118 18.787,17.9572 18.3889,18.3553 C17.9909,18.7534 17.3454,18.7534 16.9473,18.3553 L12.01682,13.42478 L7.05266,18.3889 C6.65457,18.787 6.00915,18.787 5.611065,18.3889 C5.212979,17.9909 5.212978,17.3454 5.611064,16.9473 L10.57522,11.98318 L5.644695,7.05266 C5.24661,6.65458 5.24661,6.00915 5.644695,5.611065 Z"
          fill="#ffffff"></path>
</svg>